<?xml version="1.0" encoding="utf-8"?>
<!-- Generator: Adobe Illustrator 24.3.0, SVG Export Plug-In . SVG Version: 6.00 Build 0)  -->
<svg version="1.1" id="bold" xmlns="http://www.w3.org/2000/svg" xmlns:xlink="http://www.w3.org/1999/xlink" x="0px" y="0px"
	 viewBox="0 0 512 512" style="enable-background:new 0 0 512 512;" xml:space="preserve">
<style type="text/css">
	.st0{fill:#E3F8FA;}
	.st1{fill:#8CE1EB;}
	.st2{fill:#26C6DA;}
</style>
<circle class="st0" cx="256" cy="256" r="256"/>
<path class="st1" d="M291.1,189.2c-6.7,0-12.1-5.4-12.1-12.1V159h-48.3v18.1c0,6.7-5.4,12.1-12.1,12.1s-12.1-5.4-12.1-12.1V159
	c0-13.3,10.8-24.1,24.1-24.1H279c13.3,0,24.1,10.8,24.1,24.1v18.1C303.2,183.8,297.8,189.2,291.1,189.2z"/>
<path class="st2" d="M327.3,261.7v11.1c0,4.9-4.1,9.1-9.1,9.1s-9.1-4.1-9.1-9.1v-11.1H200.6v11.1c0,4.9-4.1,9.1-9.1,9.1
	c-4.9,0-9.1-4.1-9.1-9.1v-11.1H110v81.5c0,18.3,14.8,33.2,33.2,33.2h223.3c18.3,0,33.2-14.8,33.2-33.2v-81.5H327.3z M366.6,171.1
	H143.2c-18.3,0-33.2,14.8-33.2,33.2v39.2h72.4v-15.1c0-4.9,4.1-9.1,9.1-9.1c4.9,0,9.1,4.1,9.1,9.1v15.1h108.7v-15.1
	c0-4.9,4.1-9.1,9.1-9.1s9.1,4.1,9.1,9.1v15.1h72.4v-39.2C399.8,186,384.9,171.1,366.6,171.1z"/>
<polyline class="st0" points="36.7,388.1 13.3,494.7 117.9,471.6 "/>
</svg>
