<svg xmlns="http://www.w3.org/2000/svg" viewBox="0 0 164.28 384.3"><g id="Layer_2" data-name="Layer 2"><g id="Layer_1-2" data-name="Layer 1"><path d="M123.43,383.93h0a17,17,0,0,0,2.69-1.53,49,49,0,0,0,5.1-5.09c.69-.79,1-1.86,1.69-2.66,1-1.21,2.35-2.1,3.31-3.34,1.3-1.68,2.12-3.7,3.43-5.38,1-1.34,2.48-2.32,3.57-3.62.67-.81.78-2.16,1.71-2.67.74-.41,1.68.33,2.53.32.19,0,.32-.21.45-.34a17.46,17.46,0,0,0,2.31-2.32c1-1.36,1.51-3,2.42-4.37a38.73,38.73,0,0,1,3.27-4.28,25.42,25.42,0,0,1,3.78-3.77c1.27-.94,3.34-.88,4.23-2.2.75-1.12.12-2.71,0-4.05-.21-2.18-.8-4.3-1-6.47-.77-9.15-1.54-18.3-1.88-27.48,0-1.07.8-2.06.74-3.12-.61-10-2.11-19.9-2.74-29.88,0-.74.76-1.36.71-2.1-.32-4.69-1.55-9.28-1.83-14a168.92,168.92,0,0,1,0-17c0-.71.74-1.29.78-2,0-.39-.6-.61-.6-1s.61-.61.6-1-.64-.59-.64-1c0-.71.66-1.32.64-2s-.77-1.29-.77-2,.73-1.29.77-2c0-.39-.6-.61-.6-1s.61-.61.6-1-.53-.6-.64-1a1.74,1.74,0,0,1,0-1.06c.13-.39.71-.61.68-1-.37-5-1.5-10-1.87-15-1.09-15.06-1.46-30.16-2.5-45.22-.24-3.58-1.16-7.1-1.34-10.69,0-.74.8-1.37.71-2.1-.26-2-1.49-3.86-1.7-5.9-.12-1.06.81-2.06.73-3.12-.3-3.69-1.61-7.26-1.85-10.95-.1-1.38.92-2.68.85-4.05a47.33,47.33,0,0,0-1.67-10.73c-.17-.59-1.09-.66-1.7-.7-.8,0-2.24-.33-2.34.46a89.67,89.67,0,0,0-.15,18c.83,12,2.86,23.94,3.86,35.95.06.73-.8,1.36-.7,2.1.25,2,1.5,3.86,1.69,5.9.1,1.05-.76,2-.84,3.06a39.8,39.8,0,0,0,0,7c.06.72.75,1.29.78,2,0,.39-.58.59-.65,1a10.55,10.55,0,0,0-.14,3c1.14,11.67,2.88,23.28,3.83,35,.06.73-.81,1.31-.81,2s.71,1.27.82,2a15.06,15.06,0,0,1,.14,4c-.09.72-.67,1.29-.84,2a4.94,4.94,0,0,0-.13,2c.12.71.66,1.29.83,2a5.31,5.31,0,0,1,.13,2c-.14,1.06-.9,2-.85,3.07.25,4.66,1.49,9.22,1.74,13.88,0,1.05-.91,2-.84,3.06.64,9.69,2.26,19.31,2.94,29,0,.71-.74,1.29-.77,2,0,.39.55.59.65,1a4.77,4.77,0,0,1,.13,2c-.12.72-.92,1.32-.8,2,.18,1.11,1.45,1.83,1.64,2.94.13.71-.82,1.3-.79,2,.36,9,1.39,18,2,27a6.46,6.46,0,0,1-.14,2c-.08.29-.29.64-.59.69-8.68,1.51-17.4,2.77-26.13,4-12.91,1.76-25.82,3.61-38.79,4.88-13.24,1.29-26.53,2-39.8,2.79a.39.39,0,0,1-.37-.32,2.26,2.26,0,0,1,.33-1.5c1-1.13,2.34-1.82,3.37-2.89a.56.56,0,0,0,0-.62c-.36-.53-.72-1.26-1.34-1.35-.84-.13-2.28,1.62-2.41.79-1.82-11.36-2.33-22.9-3-34.39-.06-1.05.95-2,.84-3.06-.24-2.38-1.6-4.56-1.83-6.94-.11-1.05.87-2,.83-3.06-.68-16.46-1.83-32.9-3-49.34-.11-1.55-.81-3-.84-4.6,0-1.07.82-2.06.74-3.12-.25-3.34-1.38-6.57-1.71-9.9,0-.41.66-.63.64-1,0-.72-.69-1.29-.78-2a9.29,9.29,0,0,1,.13-3c.07-.38.66-.58.65-1,0-.72-.78-1.29-.77-2,0-1.06.91-2,.84-3.06-.22-3-1.4-5.9-1.71-8.9,0-.4.55-.63.68-1a2.5,2.5,0,0,0,0-1.09c-.57-4.33-1.49-8.61-1.86-12.95a56.22,56.22,0,0,1,0-9c0-.73.89-1.31.82-2-.22-2-1.46-3.88-1.67-5.92-.08-.73.73-1.32.82-2a23.69,23.69,0,0,0,0-5c-.44-4.35-1.46-8.62-1.83-13,0-.41.63-.63.64-1s-.6-.61-.6-1,.61-.61.6-1-.53-.6-.64-1a1.91,1.91,0,0,1,0-1.06c.18-.68.84-1.26.81-2-.39-8.18-.72-16.41-2.08-24.49-.11-.67-1.46-.28-2,.09a6,6,0,0,0-1.73,2.34,1.61,1.61,0,0,0-.11,1.06c.15.7.74,1.29.77,2,0,.39-.53.6-.64,1a1.67,1.67,0,0,0,0,1.06c.12.36.56.57.68.94a1.67,1.67,0,0,1,0,1.06c-.13.38-.7.6-.68,1,.66,14.31,2.07,28.58,2.71,42.9,0,.74-.75,1.36-.71,2.1.58,10.16,1.58,20.29,2.56,30.42.24,2.51,1,5,1.12,7.5,0,.73-.74,1.31-.82,2a36.27,36.27,0,0,0,0,5,16.89,16.89,0,0,0,.15,3c.07.39.64.59.65,1s-.62.61-.6,1c0,.71.71,1.29.79,2,.14,1.34.51,2.85-.14,4-1.13,2-3.16,3.4-4.87,5-.3.28-.82.28-1.11.57a78.35,78.35,0,0,0-6.15,6.74c-1.32,1.67-2.16,3.68-3.43,5.38-.74,1-1.81,1.67-2.57,2.62s-1,1.87-1.7,2.66c-1.62,1.85-3.09,6.44-5.22,5.22-2.69-1.54-1.41-6.06-1.64-9.15-.05-.73.81-1.31.81-2,0-1.05-.82-2-.81-3,0-.71.7-1.27.82-2a4.77,4.77,0,0,0-.13-2c-.1-.38-.65-.58-.65-1s.55-.6.65-1a4.75,4.75,0,0,0,.13-2c-.12-.7-.66-1.28-.83-2a5.1,5.1,0,0,1-.13-2c.17-1,1-2,1-3C15,217,13.65,202.39,12,187.83c-.95-8.44-2.86-16.74-3.91-25.17-.05-.4.64-.63.64-1s-.53-.6-.64-1a1.74,1.74,0,0,1,0-1.06c.11-.37.64-.58.64-1s-.58-.59-.65-1a10.91,10.91,0,0,1-.13-3,2.74,2.74,0,0,1,.48-1.48c.8-1.06,2-1.8,2.79-2.83.58-.72.82-1.69,1.43-2.38,1.73-2,3.83-3.64,5.57-5.62.69-.79,1-1.84,1.69-2.66s1.6-1.5,2.31-2.34a41.84,41.84,0,0,0,3-4c.9-1.39,1.42-3,2.42-4.37s2.53-2.28,3.58-3.62c1.3-1.68,2.1-3.72,3.43-5.38,1.08-1.37,2.18-2.9,3.75-3.66,1.21-.59,2.69-.28,4-.14.71.08,1.28.74,2,.79.39,0,.61-.61,1-.6s.6.52,1,.64a3.07,3.07,0,0,0,1.09,0c10.64-.55,21.26-1.38,31.9-1.71.42,0,.66.71,1.08.68,4.33-.31,8.59-1.37,12.92-1.68.42,0,.66.7,1.08.68,6.32-.32,12.58-1.41,18.9-1.71.72,0,1.32.6,2,.72a10.22,10.22,0,0,0,3,.13c6-.78,12-2,18-2.85a5.65,5.65,0,0,1,2.09,0c.39.09.61.74,1,.69a33.73,33.73,0,0,0,7.15-1.79c1.06-.39,1.77-1.41,2.78-1.9.51-.25,1.22.09,1.66-.25a5.79,5.79,0,0,0,1.73-2.35,3.72,3.72,0,0,0,.13-2c-.51-3-1.58-6-2-9a25.54,25.54,0,0,1,0-6c.07-.71.8-1.26.82-2s-.6-1.31-.69-2a15.92,15.92,0,0,1-.13-4c.08-.73.86-1.31.82-2-.25-5.66-1.43-11.26-1.68-16.92,0-.73.79-1.31.83-2a157.67,157.67,0,0,0,0-17c-.24-3.7-1.46-7.28-1.83-11,0-.41.66-.63.64-1,0-.72-.67-1.3-.78-2a5.12,5.12,0,0,1,.13-2c.17-.69.79-1.26.84-2a99.92,99.92,0,0,0,0-12c-.07-1-.94-1.95-1-3s1.15-1.77.84-2.63c-.41-1.12-2.05-1.36-2.67-2.37-.2-.33.53-.6.64-1a1.39,1.39,0,0,0,0-1.06,2.84,2.84,0,0,0-1.31-1.32,2.87,2.87,0,0,0-2.06,0c-.79.32-1.11,1.65-2,1.65s-1.18-1.33-2-1.65a3.53,3.53,0,0,0-2.06,0c-.38.08-.6.77-1,.65-.81-.28-1.15-1.41-2-1.65a10.49,10.49,0,0,0-4-.15c-4.67.45-9.26,1.52-13.94,1.87-.72.05-1.34-.67-2.06-.67-.39,0-.6.55-1,.65a4.81,4.81,0,0,1-2,.13c-.72-.12-1.31-.85-2-.82-7.66.26-15.31,1-22.94,1.7-12,1.15-24,2.91-36,4-.4,0-.62-.55-1-.68a2.67,2.67,0,0,0-1.09,0c-6.25.52-12.52.92-18.74,1.68-.28,0-.45.39-.54.67a1.64,1.64,0,0,0,0,1.05c.12.36.56.57.68.94a1.24,1.24,0,0,1,0,1.08c-1.88,2.56-4.23,4.73-6.14,7.26-1.29,1.69-2.11,3.72-3.43,5.38S18,27.2,16.65,28.93c-1.72,2.29-2.71,5.08-4.43,7.37-2.3,3.06-5.29,5.57-7.58,8.63A43.06,43.06,0,0,0,.07,52.56c-.22.48.1,1.08.36,1.54s1,.91,1.35,1.49a2,2,0,0,1,.14,1,15.22,15.22,0,0,1-.14,3c-.07.39-.66.59-.65,1,0,.71.8,1.28.77,2,0,1.05-.83,2-.95,3a14.64,14.64,0,0,0,.13,4c.11.71.84,1.27.82,2,0,1-.9,1.95-.95,3-.28,5.66-.22,11.34,0,17,.41,11.33,1.47,22.63,1.84,34,0,.4-.68.6-.68,1,0,.71.66,1.32.64,2s-.8,1.28-.77,2c.58,12,1.38,24,2.6,36,.8,7.8,2.49,15.5,3.44,23.29,1.12,9.2,2.08,18.43,2.77,27.68,0,.4-.63.63-.64,1s.61.61.6,1-.66.63-.64,1c.33,6.65,1.36,13.26,1.68,19.92,0,.4-.68.6-.68,1,0,1,.71,2,.68,3.06,0,.71-.7,1.27-.82,2a4.75,4.75,0,0,0,.13,2c.1.38.66.59.65,1,0,.71-.8,1.28-.77,2,.39,10.61,1.19,21.2,2,31.79.16,2.09.9,4.12.93,6.21,0,.73-.88,1.31-.81,2C14.74,309.82,17.17,327.9,19,346c.68,6.68.93,13.4,1.71,20.06.46,3.87,1.93,7.62,2,11.52,0,1.14-1.66,1.84-1.67,3,0,.81,1,1.31,1.63,1.81a7.22,7.22,0,0,0,2.66,1.54c.39.09.61-.59,1-.68a15.32,15.32,0,0,1,3-.14,8.11,8.11,0,0,1,2,.15c.69.17,1.26.78,2,.83a50,50,0,0,0,9,0c7.06-.71,14-2.27,21.06-3,8-.85,15.92-1.43,23.91-1.79.41,0,.63.64,1,.64s.6-.53,1-.64a2.67,2.67,0,0,1,1.09,0c6.18.55,12.35,1.08,18.51,1.78,2.16.25,4.27.86,6.44,1.07a10.2,10.2,0,0,0,3-.13c.39-.08.62-.82,1-.67m-77-1.2h0c-3.37,0-6.77.35-10.1-.11A13.56,13.56,0,0,1,28,378.11c-.14-.07-.08-.35,0-.47,1.32-1.51,2.93-2.75,4.17-4.33s2.15-3.68,3.43-5.38c1.73-2.31,3.92-4.26,5.57-6.63,1.45-2.08,2.31-4.52,3.69-6.66.36-.56.83-1.23,1.49-1.36s1.35.79,2.06.66a7.16,7.16,0,0,0,2.66-1.54c.61-.44,1-1.14,1.62-1.56a3.9,3.9,0,0,1,1.6-.6c7-.79,14-1.54,21-2,.4,0,.63.64,1,.64s.6-.53,1-.64a1.67,1.67,0,0,1,1.06,0c.37.12.56.64.94.69a18.37,18.37,0,0,0,5,.13c5-.67,9.94-2.14,15-2.82.42,0,.66.69,1.08.67,1-.05,2-.7,3-.86,6.94-1.08,13.87-2.19,20.86-2.84.73-.07,1.37.8,2.1.7,2.9-.36,5.64-1.55,8.52-2,6.43-1.09,12.9-1.95,19.38-2.67.46-.05,1.6,0,1.36.36-1,1.71-2.83,2.78-4.08,4.32-1.93,2.37-3.46,5.05-5.43,7.38-1.71,2-3.8,3.68-5.58,5.62a88.61,88.61,0,0,0-6,7c-1,1.34-1.32,3.12-2.42,4.37-1.28,1.46-3.27,2.19-4.57,3.63-1.65,1.81-2.33,4.45-4.2,6-.76.65-2,.25-3,.13s-2-.79-3-.82c-.39,0-.57.55-.94.68a2.23,2.23,0,0,1-1.09,0c-1.75-.25-3.47-.73-5.23-.93-6.89-.75-13.78-1.91-20.71-1.9-8.93,0-17.83,1-26.71,1.94M28.21,372.3h0c-.2.18-.34.62-.6.54s-.53-.54-.62-.89a85.58,85.58,0,0,1-1.93-10.27c-.07-.73.78-1.37.71-2.1-1.55-15.92-3.6-31.79-5.56-47.66-.6-4.77-1.67-9.48-2.12-14.26,0-.41.64-.61.69-1a20,20,0,0,0,.14-5c-.43-3.71-1.67-7.3-2-11-.35-4.33-1.5-9,0-13,1.44-3.88,5.72-6,8.27-9.26,3.36-4.3,6-9.14,9.43-13.38a44.63,44.63,0,0,1,6.78-6.61c.24-.19.6.27.73.55a16.71,16.71,0,0,1,1.6,4.71c.09.73-.83,1.31-.8,2,.88,18.89,2.25,37.75,3.53,56.62.32,4.79,1.09,9.54,1.28,14.34,0,.42-.7.65-.68,1.08.32,7.65,1.35,15.26,1.68,22.91,0,.41-.64.64-.64,1.05s.52.6.64,1a1.6,1.6,0,0,1,0,1.08,12.78,12.78,0,0,1-1.57,2.64c-2.45,3.27-5.21,6.3-7.58,9.62-1,1.36-1.42,3-2.42,4.37s-2.56,2.27-3.58,3.63-1.51,3-2.42,4.37m61.42-41.42h0c12.08-1.25,24.22-2.12,36.26-3.77,1.6-.22,2.91-1.49,4.5-1.82.4-.09.66.76,1.06.65a30.27,30.27,0,0,0,5.69-2.57c.41-.22.88-.52,1-1,.83-3.87.75-7.92,1.76-11.75.24-.89,1.6-1.14,1.89-2a9.38,9.38,0,0,0,.14-4c-.13-1-1.09-2-1-3,.22-1.77,2.08-3.22,1.94-5a75.25,75.25,0,0,0-3.72-17.73c-.33-1-1.74-1.19-2.7-1.63a1.65,1.65,0,0,0-1-.11,27.09,27.09,0,0,0-5.75,1.74,5.29,5.29,0,0,0-2,2.05c-1,1.73-1.23,4-2.55,5.49-1,1.13-2.58,1.53-4,2-2.75,1-5.67,1.48-8.43,2.44a.9.9,0,0,0-.59.7,26.31,26.31,0,0,0,0,6.08,10.34,10.34,0,0,0,1.6,4.64A6.53,6.53,0,0,0,120.4,301c3.44.69,7.3-1.22,10.5.2,1.71.75.75,3.78,1.88,5.27,1,1.27,3.38,1.09,4,2.53.88,1.92,1.44,4.79,0,6.32-2.6,2.75-6.78,3.39-10.35,4.65-.38.13-.63-.63-1-.62s-.59.57-1,.65a5.1,5.1,0,0,1-2.06,0c-.69-.14-1.26-.9-2-.82-5.7.6-11.27,2.12-17,2.81-.4.05-.63-.64-1-.64s-.6.52-1,.64a1.74,1.74,0,0,1-1.06,0c-.37-.13-.57-.56-.94-.68a1.74,1.74,0,0,0-1.06,0c-.69.18-1.26.79-2,.82a89.32,89.32,0,0,1-15,0,19.2,19.2,0,0,1-7.66-2.66c-.79-.49-.89-1.68-1-2.61-1.51-14.05-2.69-28.13-3.85-42.22a9.46,9.46,0,0,1,.12-3.05,13.09,13.09,0,0,1,1.62-3.67,5.69,5.69,0,0,1,2-2,30.07,30.07,0,0,1,5.67-2q7.29-2.12,14.68-3.9c2.74-.67,5.51-1.3,8.31-1.71a16.23,16.23,0,0,1,4.06-.12c.71.08,1.28.74,2,.79.39,0,.61-.6,1-.6s.61.6,1,.6.61-.6,1-.6.61.61,1,.6.59-.59,1-.66a16.48,16.48,0,0,1,4-.13c1,.11,2,.83,3,.83.71,0,1.26-.75,2-.83a50,50,0,0,1,6,0,4.92,4.92,0,0,1,2,.15,4.07,4.07,0,0,1,1.72,1.62,27.81,27.81,0,0,1,2.57,5.7c.1.31-.71.55-.53.81.52.74,1.31,1.59,2.21,1.55s1.68-1,2.4-1.7a.59.59,0,0,0,.07-.58,45.25,45.25,0,0,0-2.72-7.77,11.17,11.17,0,0,0-3.06-3.07,6,6,0,0,0-2.64-1.57,36.1,36.1,0,0,0-8-.13c-1,.07-2,.8-3,.83-.39,0-.56-.63-.94-.69a14.71,14.71,0,0,0-4-.14c-.71.09-1.28.67-2,.84a5.16,5.16,0,0,1-2,.13c-1-.17-2-.88-3-1a24.9,24.9,0,0,0-7.06.12c-9.09,1.83-18.09,4.16-27,6.76a9.78,9.78,0,0,0-3.57,2.18,12.78,12.78,0,0,0-3.09,3.67,24.57,24.57,0,0,0-1.65,5.7,6.72,6.72,0,0,0-.11,2.05c.51,6,1.46,12,1.82,18,0,.43-.73.67-.68,1.09.35,3,1.43,5.94,1.83,9a13.84,13.84,0,0,1-.14,4c-.06.41-.74.61-.69,1a126.72,126.72,0,0,0,2.46,13.51,4.72,4.72,0,0,0,1.21,2.25,8.08,8.08,0,0,0,2.91,1.92,46.16,46.16,0,0,0,9.7,2.65m57.1-23.89h0a13.55,13.55,0,0,1-3.06-.14c-.3-.08-.63-.67-.38-.84,1.31-.87,2.8-2,4.37-1.83.79.08.62,1.6.37,2.35M137.48,296h0c-5.23,0-10.5.74-15.68.06-1-.13-1.41-1.43-1.73-2.35s-.78-2.21,0-2.71a37.36,37.36,0,0,1,11.33-4.71,13.41,13.41,0,0,1,7.61-.05c1.2.42,1.46,2.15,1.78,3.38.1.39-.63.64-.63,1s.72.64.62,1a7.82,7.82,0,0,1-1.53,2.66M138.48,281h0a24,24,0,0,1-3,.15c-.46,0-1.36,0-1.3-.48.11-.79,1-1.29,1.61-1.79.81-.63,1.64-1.47,2.67-1.53.47,0,.49.85.5,1.32M33.38,263h0a15.85,15.85,0,0,0,3.08,0,3.26,3.26,0,0,0,1.6-.93,5.29,5.29,0,0,0,1.73-2.37,11.92,11.92,0,0,0,0-5.08,2.09,2.09,0,0,0-1.32-1.32,3.09,3.09,0,0,0-2.08,0,6.52,6.52,0,0,0-2.62,1.55,6.17,6.17,0,0,0-1.69,2.75,8.66,8.66,0,0,0,0,4.08m.32-27.54h0a8.54,8.54,0,0,0,1.51-.47A6.76,6.76,0,0,0,36,232.07a11.57,11.57,0,0,0,1.82-3.39,2,2,0,0,0-.17-1.36A6.94,6.94,0,0,0,36.24,225a6.49,6.49,0,0,0-2.78-1.65c-.39-.11-.62.54-1,.67-.54.19-1.33-.19-1.69.26a24.53,24.53,0,0,0-2.71,5.33,2,2,0,0,0-.1,1.06,3.48,3.48,0,0,0,.47,1.48A4.18,4.18,0,0,0,30,233.62M8.45,146h0c-.79-9.77-1.82-19.53-2.36-29.32,0-.41.68-.61.68-1,0-.71-.64-1.32-.64-2,0-.39.55-.6.65-1a5.1,5.1,0,0,0,.13-2c-.14-1-.79-2-.82-3,0-.41.71-.61.68-1-.36-6-1.48-12-1.83-18a123.2,123.2,0,0,1,0-14c.06-1.05.79-2,1-3a4.94,4.94,0,0,0-.13-2c-.17-.69-.73-1.27-.83-2a8.78,8.78,0,0,1,.13-3c.07-.38.65-.58.65-1s-.55-.6-.65-1a4.92,4.92,0,0,1-.13-2c.17-1,.79-2,1-3a4.61,4.61,0,0,0-.13-2c-.1-.38-.61-.56-.7-1a3,3,0,0,1,0-2,39.13,39.13,0,0,1,4.57-6.66c1.68-2,4-3.54,5.57-5.63C17,38,18,35.25,19.65,32.93c1-1.37,2.57-2.25,3.57-3.62,1.68-2.32,2.84-5,4.42-7.38.52-.77,1.41-2.91,1.85-2.09,1.59,2.93,1.79,6.44,2.28,9.74.06.4-.55.62-.68,1a2.85,2.85,0,0,0,0,1.09c.79,13.89,1.49,27.78,2.45,41.65.33,4.78,1.25,9.51,1.41,14.3.28,8.87.63,17.78-.09,26.62-.08.93-1.65,1-2.21,1.71-1,1.31-1.39,3-2.4,4.34-1.33,1.71-3.24,2.92-4.57,4.63-3.35,4.31-6.09,9.07-9.43,13.38a35.09,35.09,0,0,1-4.31,4.31c-.31.28-.81.28-1.11.57m60.67-32.07h0c-9.34,0-18.69.28-28,0-1.18,0-3,.13-3.4-1-1.62-5.27-1.55-10.93-1.94-16.44,0-.41.59-.62.69-1a5.66,5.66,0,0,0,.14-2c-.84-9-2.14-18-2.83-27,0-.41.59-.62.69-1a5.44,5.44,0,0,0,.14-2c-.49-4.34-1.54-8.62-1.83-13-.05-.73.81-1.31.81-2,0-1-.81-2-.81-3,0-.71.8-1.26.81-2s-.74-1.29-.77-2c0-.39.59-.59.65-1a25.65,25.65,0,0,0,.15-4,7.67,7.67,0,0,0-.15-2c-.1-.38-.65-.58-.65-1s.68-.64.64-1c-.32-3.34-1.44-6.58-1.68-9.92-.05-.73.7-1.32.82-2.05a4.77,4.77,0,0,0-.13-2c-.1-.38-.67-.58-.65-1s.26-1.29.78-1.39a142.19,142.19,0,0,1,16.48-2c.4,0,.63.64,1,.64s.6-.56,1-.65a5.16,5.16,0,0,1,2-.14c.7.12,1.28.74,2,.79.39,0,.61-.61,1-.6s.6.52,1,.64a2.5,2.5,0,0,0,1.09,0c6.26-.87,12.51-1.75,18.74-2.8,1.08-.18,2.07-.84,3.16-.89.43,0,.66.67,1.08.67,1.6,0,3.15-.66,4.75-.76,13.39-.84,26.8-1.44,40.21-2.08a3.28,3.28,0,0,1,1.65.1c.88.44,1.31,1.94,2.3,1.87,3.38-.24,8.73-5.95,9.8-2.73,4.27,12.76,1.93,26.84,2.74,40.27a11.66,11.66,0,0,1-.14,3c-.07.39-.67.59-.65,1,0,.71.69,1.29.79,2a9.28,9.28,0,0,1-.14,3c-.08.39-.69.56-.69,1,0,.71.66,1.32.64,2s-.77,1.28-.77,2,.74,1.28.77,2c0,.39-.55.59-.65,1a6.52,6.52,0,0,0-.13,2c.57,10.68,1.48,21.34,2,32a64.9,64.9,0,0,1-.14,8,.78.78,0,0,1-.56.68c-6.55,1.07-13.14,2-19.75,2.64-.4,0-.62-.55-1-.68a2.85,2.85,0,0,0-1.09,0c-8,.54-15.92,1.37-23.9,1.71-.4,0-.63-.63-1-.64s-.61.61-1,.6-.6-.52-1-.64a2.36,2.36,0,0,0-1.09,0c-3.64.51-7.24,1.39-10.9,1.71-.42,0-.66-.73-1.08-.68-2.68.31-5.24,1.3-7.9,1.71M54.43,96h0a14.25,14.25,0,0,0,2.81-1.71,8.36,8.36,0,0,0,1.55-2.61,1.59,1.59,0,0,0,.11-1,6.23,6.23,0,0,0-1-2.64c-1.26-1.44-2.52-3.79-4.43-3.66s-3.29,2.54-4.35,4.27a4.45,4.45,0,0,0-.13,3A5.2,5.2,0,0,0,52.38,96m72.51-3.34h0c1.08-.74,2.21-1.41,3.23-2.24a9.51,9.51,0,0,0,2.1-2.1,26.91,26.91,0,0,0,3.57-6.63,9.63,9.63,0,0,0,0-5.11,40.55,40.55,0,0,0-3.58-8.62,5.35,5.35,0,0,0-2.11-2.11c-3.08-1.76-6.12-4-9.62-4.57-2.42-.41-4.82,1-7.15,1.73a14.17,14.17,0,0,0-3.59,1.84,29.15,29.15,0,0,0-4,3.38,5.49,5.49,0,0,0-1.12,1.72c-1,2.19-2.71,4.31-2.57,6.69.21,3.43,1.89,6.67,3.56,9.68,1,1.7,2.66,2.85,4.13,4.12a3.8,3.8,0,0,0,1.47.75,62.19,62.19,0,0,0,8.2,1.93,30,30,0,0,0,6,0m-42-2h0c1-.05,2.14.26,3.09-.14A29.9,29.9,0,0,0,91.06,87a8.64,8.64,0,0,0,2.16-2.74,27.69,27.69,0,0,0,2.58-5.62,5.35,5.35,0,0,0,0-3.12A21.15,21.15,0,0,0,92.86,70a8.73,8.73,0,0,0-2.7-2.11,10.94,10.94,0,0,0-3.67-1.62,19.75,19.75,0,0,0-7.11,0c-1.73.37-3.18,1.56-4.63,2.57a6.3,6.3,0,0,0-2.07,2.07c-1.13,2.1-2.46,4.28-2.61,6.66s1.06,4.78,1.75,7.14a4.39,4.39,0,0,0,.81,1.58,22.92,22.92,0,0,0,3.11,3.12A8,8,0,0,0,78.38,91m-23-.84h0c0,.32.17.67,0,1a1.63,1.63,0,0,1-1,.87c-.46.11-1.27.14-1.36-.31a2.56,2.56,0,0,1,.86-2c.21-.24.65-.1.95,0M123.48,89h0c-4,0-8.24,1.22-12.08,0-2.55-.8-4.06-3.53-5.72-5.63a8.13,8.13,0,0,1-1.62-3.66,18.22,18.22,0,0,1,0-6.12,6.08,6.08,0,0,1,1.58-2.63c1.23-1.47,2.39-3.12,4.06-4.06,2.36-1.34,5-2.6,7.71-2.6,2.1,0,3.88,1.62,5.73,2.6.49.26.75.87,1.25,1.1s1.22-.08,1.67.25a5.08,5.08,0,0,1,1.34,2,22.45,22.45,0,0,1,2.39,5.38,13.28,13.28,0,0,1,0,6.11,12.55,12.55,0,0,1-2.93,4.58m-44.39.85h0c-1,0-2.17.37-3.07-.13a15,15,0,0,1-3.75-3.66,6.52,6.52,0,0,1-1.58-2.64,8.06,8.06,0,0,1,0-4.11,11.1,11.1,0,0,1,2.67-4.72,5.28,5.28,0,0,1,3.66-1.55c.88,0,1.29,1.22,2,1.69a.66.66,0,0,0,.64,0c.85-.49,1.4-1.78,2.38-1.74,1.36,0,2.54,1.09,3.6,2a4.6,4.6,0,0,1,1.73,2.36,10.52,10.52,0,0,1,0,5.11,10.84,10.84,0,0,1-2.7,4.76c-1.24,1.24-3,1.8-4.61,2.55M53.4,78.1h0a6.46,6.46,0,0,0,1.51-.47,5.3,5.3,0,0,0,1.31-1.32,9.23,9.23,0,0,0,1.57-2.64,8.42,8.42,0,0,0,.13-3,3.06,3.06,0,0,0-.49-1.48,9.58,9.58,0,0,0-2-2c-.92-.71-1.81-1.77-3-1.82s-1.87.93-2.69,1.55c-.64.49-1.45,1-1.66,1.76a16.23,16.23,0,0,0-.13,5,2.72,2.72,0,0,0,.48,1.49A9.3,9.3,0,0,0,51,77.62m18.1-33h0c.9,1.26,1.53,2.76,2.7,3.79a16,16,0,0,0,3.92,2A15.1,15.1,0,0,0,79.37,52a11.9,11.9,0,0,0,5.11,0,13.12,13.12,0,0,0,4.63-2.57,30.88,30.88,0,0,0,5.11-5.11,11.84,11.84,0,0,0,2.57-4.63,14.38,14.38,0,0,0,0-7.08c-.53-1.8-2-3.17-3.38-4.5a6.94,6.94,0,0,0-2.94-1.79c-.4-.12-.66.74-1.06.64-2.74-.66-5.24-2.14-8-2.81a6.56,6.56,0,0,0-3,.12A22.67,22.67,0,0,0,74.7,25.8a9.38,9.38,0,0,0-2.9,1.39,13.55,13.55,0,0,0-3,4.35A18,18,0,0,0,67,38.62M53.59,28.89h0a5.41,5.41,0,0,1-.74,1.36,9.63,9.63,0,0,1-2.4,1.69c-.14.07-.33-.15-.36-.3a12.73,12.73,0,0,1-.14-3c0-.47,0-1.36.51-1.33m.65,44.38h0a3.74,3.74,0,0,1,1.32-.53c.79,0,2.27-.29,2.32.5.09,1.26-.81,3.16-2.07,3.17M46.79,26.62h0c-.24.32-.66.57-.71,1a9.21,9.21,0,0,0,0,4.08A5.44,5.44,0,0,0,48.41,35c1.2.62,2.71.22,4.05,0a3,3,0,0,0,1.6-.93c1.36-1.35,3.14-2.56,3.71-4.39a5.12,5.12,0,0,0-.9-4.53c-1-1.22-2.84-1.49-4.38-1.87a4.94,4.94,0,0,0-3.09,0,6.8,6.8,0,0,0-2.33,2.32m.63,26.76h0A27.8,27.8,0,0,0,50.4,55a1.51,1.51,0,0,0,1,.12,3.15,3.15,0,0,0,1.48-.47,12.54,12.54,0,0,0,2.52-2.52,2.81,2.81,0,0,0,.49-1.49,23.78,23.78,0,0,0,0-5,3.62,3.62,0,0,0-1-2,2.31,2.31,0,0,0-1.48-.49,6.06,6.06,0,0,0-3,.14,8.71,8.71,0,0,0-2.75,2.66c-.66.81-1.57,1.66-1.56,2.7M50.45,51h0c-.12-.79-.84-1.72-.36-2.36a2.15,2.15,0,0,1,2.37-.31c.43.17.32.9.31,1.37,0,.18-.2.32-.34.45a3.47,3.47,0,0,1-1,.86m72.28-.15h0c1.44-.92,3.12-1.55,4.33-2.77a30.14,30.14,0,0,0,4.12-5.69,12.17,12.17,0,0,0,1.62-3.67,9.54,9.54,0,0,0,0-4.12A36.18,36.18,0,0,0,131.23,28a6.77,6.77,0,0,0-1.37-2,18.08,18.08,0,0,0-3.4-2.71c-.49-.29-1.19,0-1.68-.25-.7-.43-.89-1.66-1.7-1.8a29.23,29.23,0,0,0-8.71,0,7.2,7.2,0,0,0-3.66,1.62,21.28,21.28,0,0,0-4,5,18.71,18.71,0,0,0-2.61,5.67,13.7,13.7,0,0,0,0,6.11,12.9,12.9,0,0,0,2.57,4.63,18.27,18.27,0,0,0,4.07,4.07A15.11,15.11,0,0,0,116.38,51m4.1-3h0c-.35-.21-.64-.62-1-.62s-.64.73-1,.62a21.62,21.62,0,0,1-5.69-2.57,12,12,0,0,1-3.07-3.07,17.23,17.23,0,0,1-2.57-4.63,4.8,4.8,0,0,1,0-3.11,44.66,44.66,0,0,1,3.57-6.63A5.79,5.79,0,0,1,112,26.08a11.48,11.48,0,0,1,3.39-1.83,4,4,0,0,1,2.09,0c.38.09.55.69.94.69.72,0,1.36-.83,2.06-.66a12.9,12.9,0,0,1,5.66,2.54,12.81,12.81,0,0,1,3.67,5.72,11.62,11.62,0,0,1,0,6.11,13.55,13.55,0,0,1-2.57,4.63,12.93,12.93,0,0,1-3.06,3.07M84.48,48h0a22.58,22.58,0,0,1-4.11,0,16,16,0,0,1-4.69-1.64,6.34,6.34,0,0,1-2-2.05,22.3,22.3,0,0,1-2.57-4.63,3.7,3.7,0,0,1,0-2.11,24.15,24.15,0,0,1,1.64-4.69,8.58,8.58,0,0,1,2-3,8,8,0,0,1,3.63-1.59,13.12,13.12,0,0,1,5.11,0,23.86,23.86,0,0,1,6.7,2.63,5.76,5.76,0,0,1,2.6,2.7,7.48,7.48,0,0,1,0,4.09,11.88,11.88,0,0,1-1.62,3.66,14.84,14.84,0,0,1-2.32,2.91"/></g></g></svg>