<svg xmlns="http://www.w3.org/2000/svg" viewBox="0 0 57.23 60.34"><g id="Layer_2" data-name="Layer 2"><g id="Layer_1-2" data-name="Layer 1"><path d="M37.65,59.39h0c3.11-.64,6.27-1,9.31-1.93a11.76,11.76,0,0,0,3.41-1.76,7.52,7.52,0,0,0,2.07-2.06,36.8,36.8,0,0,0,3-6A29,29,0,0,0,57.06,42a12.45,12.45,0,0,0,0-4.13c-1-5.7-2.11-11.39-3.63-17a33.7,33.7,0,0,0-2.74-6.43,31.54,31.54,0,0,0-3.22-5.23,30.4,30.4,0,0,0-4.09-4.09c-.8-.68-1.89-1-2.66-1.69-.93-.85-1.17-2.63-2.4-2.92a21.87,21.87,0,0,0-9.66,0c-1.25.28-1.95,1.68-2.76,2.68a7.12,7.12,0,0,0-1,2c-1.23,3.13-1.64,6.65-3.46,9.47-1.93,3-5.14,4.92-7.52,7.56-.7.79-1,1.86-1.69,2.67-1,1.2-2.31,2.13-3.31,3.33-.59.72-.83,1.67-1.43,2.38-1.07,1.29-2.55,2.23-3.53,3.59-.8,1.1-1,2.54-1.72,3.69-.49.78-1.61,1.13-1.88,2A6.4,6.4,0,0,0,.33,44,19.22,19.22,0,0,0,4,49.72a17.92,17.92,0,0,0,4,3,79,79,0,0,0,7,4,20.5,20.5,0,0,0,4.37,1.73,77.1,77.1,0,0,0,10.32,1.8c.4,0,.63-.64,1-.63s.6.52,1,.64a1.82,1.82,0,0,0,1.06,0c.37-.13.56-.63.94-.7M27.2,55.93h0a4.3,4.3,0,0,1-1.55.32,36.48,36.48,0,0,1-4.77-1.47c-2-.65-4-1.25-5.92-2a25.55,25.55,0,0,1-4-2,23.25,23.25,0,0,1-4.12-3.12,12.43,12.43,0,0,1-2.54-3.64,2.41,2.41,0,0,1,0-2c.22-.42.87-.42,1.34-.46a9,9,0,0,1,3.06.12c3.7,1,7.1,3.06,10.88,3.73s7.37.13,11.06.13a5.21,5.21,0,0,0,2.05-.13c2.36-1,4.94-1.89,6.76-3.71A9.36,9.36,0,0,0,42.05,36c.16-1.66-.78-3.29-1.55-4.78a80.61,80.61,0,0,0-6-10c-.6-.83-1.71-1.16-2.43-1.89a54.88,54.88,0,0,1-5.7-6.4c-.26-.36,0-.92.15-1.33a33.23,33.23,0,0,1,2.4-4.38c.63-1,1.06-2.34,2.16-2.71a8.19,8.19,0,0,1,5.65,0c1.83.77,2.77,2.86,4.29,4.14.75.63,1.92.75,2.5,1.55A44.37,44.37,0,0,1,48.4,19a45.89,45.89,0,0,1,2.19,8.2c1,4.57,2.24,9.12,2.45,13.78.06,1.12-1.39,1.83-1.67,2.92-.11.4.79.67.64,1a41.62,41.62,0,0,1-3.53,6.66,3,3,0,0,1-1.11,1.11,21.43,21.43,0,0,1-4.31,1.82,65.63,65.63,0,0,1-8.31,1.75,15.34,15.34,0,0,1-4.06.12c-.71-.08-1.29-.74-2-.78-.39,0-.62.52-1,.6m-3-13.83h0C19,40.81,11.22,42.28,7.5,37.63c-2.22-2.77,4.77-5.25,7-8,1.61-2,2.85-4.32,4.43-6.38s2.65-4.44,4.82-5.63c.9-.49,1.88.87,2.66,1.54a36,36,0,0,1,5.09,5.09A45.31,45.31,0,0,1,37,32.86c.31.65-.65,1.34-.65,2,0,.4.58.59.65,1,.17.87.54,1.93,0,2.66a6.24,6.24,0,0,1-3.2,1.94,49.58,49.58,0,0,1-7.13,1.79"/></g></g></svg>