<svg xmlns="http://www.w3.org/2000/svg" viewBox="0 0 53.32 54.25"><g id="Layer_2" data-name="Layer 2"><g id="Layer_1-2" data-name="Layer 1"><path d="M35,53.73h0c1.58-.57,3.22-1,4.74-1.71a12.16,12.16,0,0,0,2.7-1.73,23.21,23.21,0,0,0,3.1-3.09c.58-.71.76-1.71,1.41-2.36s1.88-.93,2.61-1.67a12,12,0,0,0,1.94-2.93,11.6,11.6,0,0,0,1.58-3.7c.1-.72-.8-1.3-.8-2s.71-1.27.83-2a6.18,6.18,0,0,0,0-3.08,7.43,7.43,0,0,0-2.61-3.66c-1.59-1-4-.39-5.47-1.52s-1.37-3.15-2.48-4.42c-1.25-1.43-3.13-2.19-4.47-3.53-.73-.73-.94-1.89-1.67-2.62s-1.83-1-2.64-1.67a49.34,49.34,0,0,1-5.42-4.89c-.29-.32.07-.94-.21-1.26a20,20,0,0,0-3.71-3.16A22.56,22.56,0,0,0,19.81.15a3.68,3.68,0,0,0-2.08,0c-.38.08-.59.65-1,.65s-.59-.57-1-.65a4.44,4.44,0,0,0-2,0A2.26,2.26,0,0,0,12.26,1C11.12,3,10.63,5.22,9.55,7.18c-.37.67-1.18,1-1.59,1.64-1.93,3-3.45,6.35-5.42,9.37C2,19.07.53,19.45.4,20.48a72.48,72.48,0,0,0,0,15.09A9.55,9.55,0,0,0,2,39.24a42.71,42.71,0,0,0,4.32,6.9A34.16,34.16,0,0,0,13,52.26,10.1,10.1,0,0,0,17.76,54a99,99,0,0,0,14,0c.72,0,1.29-.72,2-.78M23.8,50h0a30,30,0,0,1-5.11-.14A8.5,8.5,0,0,1,15,48.26,63.6,63.6,0,0,1,8,41.2a15.05,15.05,0,0,1-2-3,10.27,10.27,0,0,1-1.62-3.67,48.91,48.91,0,0,1,0-12.09c.16-1,1.59-1.4,2.14-2.29C8.85,16.5,10.62,12.49,13,8.82c1.08-1.69,1.86-4.21,3.82-4.64s3.87,1.48,5.64,2.54A6.37,6.37,0,0,1,24.5,8.78a7.57,7.57,0,0,1,1.6,3.72,4.33,4.33,0,0,1-1.56,2.7c-2.59,2.63-5.71,4.71-8.31,7.34a6.42,6.42,0,0,0-1.83,2.91c-.17.7.65,1.34.65,2.06,0,.39-.57.59-.65,1a3.72,3.72,0,0,0,0,2.09,23.74,23.74,0,0,0,2.94,5.57A7.43,7.43,0,0,0,20,38.24a15.24,15.24,0,0,0,4.69,1.64c2.34.32,4.87.78,7.09,0,2.58-.93,4.53-3.13,6.61-4.93.71-.61.93-1.7,1.7-2.23a33.13,33.13,0,0,1,6.61-3.55c.44-.18,1.2-.1,1.4.33a5.61,5.61,0,0,1,.14,3c-.09.72-.75,1.29-.79,2,0,.39.53.6.65,1a1.6,1.6,0,0,1,0,1.08,8.37,8.37,0,0,1-1.57,2.64c-1,1.06-2.54,1.59-3.59,2.64a25.58,25.58,0,0,0-1.67,2.64,10.51,10.51,0,0,1-1.84,1.81,11.43,11.43,0,0,1-2.91,1.93,32.28,32.28,0,0,1-6.71,1.66m2.93-15.75h0c-1,.58-1.83,1.5-2.94,1.74a13.17,13.17,0,0,1-5.12,0A13.1,13.1,0,0,1,21,34.26a2.12,2.12,0,0,1-.81-.79,16.91,16.91,0,0,1-1.83-3.9A5.79,5.79,0,0,1,20,23.82a59.58,59.58,0,0,1,6.09-5.1c.73-.55,1.74-.72,2.35-1.4.82-.91.93-2.33,1.8-3.2.26-.26.76.14,1,.39.47.45.61,1.18,1.09,1.63,2.58,2.43,5.49,4.5,8.06,6.94a5.54,5.54,0,0,1,1.72,2.37,2,2,0,0,1-.67,1.84c-1.25,1.17-3,1.67-4.32,2.79-1.13,1-1.79,2.42-2.88,3.43"/></g></g></svg>