<svg xmlns="http://www.w3.org/2000/svg" viewBox="0 0 150.76 34.06"><defs><style>.cls-1{fill:#6e6f77;}</style></defs><g id="Layer_2" data-name="Layer 2"><g id="Layer_1-2" data-name="Layer 1"><path class="cls-1" d="M20.38,33.86h0c18.34,0,36.7.46,55,0,22.93-.59,45.84-1.91,68.74-3.15.47,0,.78-.66,1.25-.66s.6.59,1,.67a3,3,0,0,0,2,0c1-.53,2.34-1.28,2.31-2.39-.15-6.39-2.2-12.6-2.81-19-.07-.71.7-1.27.82-2,.2-1.12,1.28-3.33.14-3.41C120.17,1.85,91.3,1.73,62.48,1c-.74,0-1.36.73-2.1.71C48.05,1.39,35.76,0,23.43,0c-3.07,0-6,1.5-9,1.85a35.49,35.49,0,0,1-7,0c-.71-.07-1.29-.92-2-.79A2.18,2.18,0,0,0,3.73,2.57C2.73,7.7,3.17,13,2.12,18.16c-.21,1-2.47,1.29-2.07,2.22.81,1.89,3.72,2.16,4.71,3.95.51.92-.7,2-.82,3a9.55,9.55,0,0,0,.13,3,1,1,0,0,0,.61.71,71.07,71.07,0,0,0,9.68,2.64m45.58-4.34h0a5.92,5.92,0,0,0-1.52-.51,35.36,35.36,0,0,0-6,0c-.71.07-1.28.74-2,.78-.39,0-.61-.62-1-.6-.71,0-1.28.8-2,.77-1.05,0-2-.88-3-.95a82.4,82.4,0,0,0-11,0c-.71,0-1.28.66-2,.83a8.61,8.61,0,0,1-2,.15,8.48,8.48,0,0,1-2-.15c-.7-.17-1.27-.76-2-.83a48,48,0,0,0-6,0,8,8,0,0,0-2,.15c-.4.11-.62.77-1,.69a27.09,27.09,0,0,1-8.16-2.58c-.54-.32.64-1.13.69-1.76a68.88,68.88,0,0,0,0-8,2.7,2.7,0,0,0-.49-1.48c-.35-.46-1.23-.46-1.42-1A44.29,44.29,0,0,1,5.05,6.42c-.11-.78-.3-1.92.37-2.36s1.29.71,2,.79a21.91,21.91,0,0,0,5,0c3.71-.46,7.33-1.45,11-2a5.1,5.1,0,0,1,2,.13c.38.1.58.64,1,.65s.61-.6,1-.6.61.6,1,.6.61-.61,1-.6.6.55,1,.65a8,8,0,0,0,2,.15,37.92,37.92,0,0,0,5,0c.73-.09,1.31-.83,2-.83,4,0,8,.68,12,.82,22.28.76,44.57,1.46,66.87,1.87.41,0,.63-.65,1-.65s.6.53,1,.64a1.74,1.74,0,0,0,1.06,0c.37-.11.58-.66,1-.64.72,0,1.29.69,2,.79a15.3,15.3,0,0,0,4,0c.71-.1,1.28-.67,2-.84a5.66,5.66,0,0,1,2-.13c4.42.48,8.84.94,13.2,1.78.28.06-.49.4-.54.68a9.83,9.83,0,0,0-.13,3c.45,3.68,1.37,7.28,1.85,11a9.58,9.58,0,0,1,.12,4.12,2.17,2.17,0,0,1-1.84,1.21c-11.53,1.08-23.1,1.56-34.66,2.22a6.77,6.77,0,0,1-2-.14c-.38-.1-.59-.64-1-.65s-.61.6-1,.6-.61-.61-1-.6-.58.65-1,.64c-.71,0-1.3-.67-2-.68s-1.32.63-2,.64c-.39,0-.61-.61-1-.6s-.59.56-1,.65a5.12,5.12,0,0,1-2,.14c-.71-.12-1.29-.74-2-.79-.39,0-.61.6-1,.6s-.61-.6-1-.6-.61.61-1,.6-.63-.66-1-.64c-7.67.38-15.3,1.34-23,1.83a49.71,49.71,0,0,1-6,0m9.45-3.47h0a45.49,45.49,0,0,0,3.33-3.33,9.65,9.65,0,0,0,1.53-2.66c.08-.19-.18-.36-.32-.5-.31-.32-.59-.93-1-.85a5.87,5.87,0,0,0-2.63,1.51c-.71.61-.91,1.73-1.7,2.21-.59.35-1.8.71-2,.08-1.65-4.11,1.27-12.17-3.09-12.92-4-.69-1.17,8.22-3,11.87-.44.88-2.5.92-2.94,0-1.68-3.3-1.45-7.27-2.52-10.82a6.61,6.61,0,0,0-1.56-2.62.87.87,0,0,0-1,0,2,2,0,0,0-.87,1,1.63,1.63,0,0,0,0,1.09c.16.53.67.94.79,1.49.77,3.72.85,7.58,1.86,11.24a2.38,2.38,0,0,0,1.68,1.56,15.09,15.09,0,0,0,5,.14c.71-.07,1.29-.84,2-.79.54,0,.76.81,1.26,1a28.75,28.75,0,0,0,4.71,1.61m51.51-1.31h0c.39-.2.9-.26,1.17-.61a19.49,19.49,0,0,0,2.71-4.36,3.09,3.09,0,0,0,0-2.12,22.36,22.36,0,0,0-2.58-5.62A11.27,11.27,0,0,0,119.45,9a4.69,4.69,0,0,0-3,0,3.24,3.24,0,0,0-1.62.93c-.91.93-1.07,2.85-2.34,3.11-.92.18-.94-1.65-1.6-2.32A6.05,6.05,0,0,0,108.48,9a6,6,0,0,0-3.12,0,14.22,14.22,0,0,0-3.66,1.61,2.07,2.07,0,0,0-1,1c-1.12,3-.83,6.65-2.81,9.15-.73.93-2.19-.94-3.15-1.62-.65-.47-1.68-1-1.61-1.79s1.37-1,1.93-1.57a6.21,6.21,0,0,0,1.73-2.37,10.57,10.57,0,0,0,0-4.08,1.05,1.05,0,0,0-.62-.73c-1.53-.69-3.05-1.72-4.73-1.72s-3.19,1-4.72,1.7c-.61.27-1.57.45-1.66,1.12a42.19,42.19,0,0,0,0,10.71,10.61,10.61,0,0,0,1.61,3.67c.16.27.41.61.73.61a2.12,2.12,0,0,0,1.75-.6c.83-1.14.3-3.26,1.54-3.93.83-.46,1.29,1.4,2,2a9.46,9.46,0,0,0,2.64,1.57,3,3,0,0,0,2.08,0c.79-.32,1.13-1.79,2-1.65,1.57.27,2.43,2.19,4,2.66s3.36.17,5,.13a2.92,2.92,0,0,0,1.3-.3c1.23-.69,2.08-2.29,3.49-2.4.84-.06.9,1.47,1.54,2a7.28,7.28,0,0,0,2.62,1.55,8.65,8.65,0,0,0,3,.13m19.46-1.47h0c.29-.35.92-.6.88-1.06A70.35,70.35,0,0,0,139.11,14c-.3-1.39-.3-3-1.21-4.11-.45-.55-1.47-.22-2.13,0-.91.37-1.41,2-2.38,1.77-2.21-.5-3.54-3.19-5.78-3.63-.88-.17-1.14,1.41-1.55,2.21a1.65,1.65,0,0,0-.11,1,30.69,30.69,0,0,1,1,3c.25,2.54-.54,5.18.11,7.63.26,1,1.53,1.26,2.38,1.74a.59.59,0,0,0,.65,0,6.06,6.06,0,0,0,1.69-2.34c.12-.39-.62-.6-.67-1a9.74,9.74,0,0,1,0-4.06c.14-.45.87-.41,1.35-.45.84-.09,1.87-.47,2.54.06a6.21,6.21,0,0,1,1.78,3.39c.1.39-.61.61-.68,1a6.69,6.69,0,0,0,0,3.05,2,2,0,0,0,1.33,1.32M50.88,23.38h0c.3-.33.77-.56.89-1a4.23,4.23,0,0,0,0-2.09,86.2,86.2,0,0,0-2.77-10c-.3-.86-.73-2-1.6-2.23-.6-.18-1.39.71-1.34,1.34a99.24,99.24,0,0,0,2.63,13.73.83.83,0,0,0,.69.57m-14,0h0a7,7,0,0,0,1.34-1.32,1.35,1.35,0,0,0,0-1.08c-.46-1.25-1.87-2.26-1.72-3.58.1-.95,1.43-1.32,2.31-1.73.47-.22,1.26-.51,1.55-.07,1.38,2.07,1.28,5,2.94,6.85.66.72,2.16.24,2.9-.39.53-.45.19-1.41,0-2.08s-.74-1.19-1-1.85c-.69-2-1-4.19-1.77-6.2a19.84,19.84,0,0,0-1.84-3.58c-.18-.29-.67-.93-.8-.62-.5,1.2.17,2.78-.57,3.85a5.72,5.72,0,0,1-3.36,1.82,2.62,2.62,0,0,1-2.4-.34c-.49-.48-.16-1.39,0-2.05.08-.4.77-.62.67-1-.22-.87-.62-2.08-1.51-2.23A2.32,2.32,0,0,0,30,9.73a10.57,10.57,0,0,0,0,5.69c.74,2.72,2.3,5.16,3.61,7.67a1.39,1.39,0,0,0,.73.62m-14.71-.13h0c1.8-.81,3.84-1.23,5.41-2.42a11.34,11.34,0,0,0,2.68-3.74c.17-.32.29-.9,0-1.09A2.87,2.87,0,0,0,25.4,16c-1,.38-1.46,1.51-2.29,2.14a10.66,10.66,0,0,1-2.63,1.57c-.54.2-1.34.46-1.71,0a15.56,15.56,0,0,1-2.2-4.61C16,13.6,14.89,12,15.09,10.4A2.94,2.94,0,0,1,17.43,8c1.15-.12,1.85,1.47,2.95,1.84a2.49,2.49,0,0,0,2.07-.14c.4-.25.41-.91.31-1.37a3.31,3.31,0,0,0-.91-1.6A5.71,5.71,0,0,0,19.48,5,7.84,7.84,0,0,0,15.4,5c-.78.22-1.27,1-1.76,1.66a7.94,7.94,0,0,0-1.58,2.64,5.86,5.86,0,0,0,0,3.11A61.73,61.73,0,0,0,15.63,22a3.39,3.39,0,0,0,1.77,1.67m101-1.88h0c-.79-.8-2-1.34-2.38-2.42a10.12,10.12,0,0,1,0-5.07A1.78,1.78,0,0,1,117.39,13a2.62,2.62,0,0,1,2,.84,9.37,9.37,0,0,1,2.36,3.45,5,5,0,0,1,0,3.08,2.32,2.32,0,0,1-1.32,1.32m-13,0h0a5.65,5.65,0,0,1-2.13,0c-.91-.34-2.06-.8-2.35-1.73a9.88,9.88,0,0,1,0-5.65A4.39,4.39,0,0,1,105.4,12a2,2,0,0,1,2,0,6.59,6.59,0,0,1,2.34,3.3,7.71,7.71,0,0,1,0,4.68M93.41,11h0c0,.27.17.59,0,.8a4.76,4.76,0,0,1-2,1.88,2.22,2.22,0,0,1-2.37-.32A1.81,1.81,0,0,1,89.39,11"/></g></g></svg>