<svg xmlns="http://www.w3.org/2000/svg" viewBox="0 0 167.72 79.1"><g id="Layer_2" data-name="Layer 2"><g id="Layer_1-2" data-name="Layer 1"><path d="M66.91,78.82h0c.31-.32.8-.54.93-1a5.77,5.77,0,0,0,.22-3c-.57-2.12-2.37-3.84-2.67-6a30.4,30.4,0,0,1,.35-11.09c.31-1.34,1.84-2.07,3-2.88a.79.79,0,0,1,1,0,34.57,34.57,0,0,1,3.08,5.34c1.21,2.45,2,5.07,3.25,7.51a1.19,1.19,0,0,0,.74.7,5.86,5.86,0,0,0,3,.08c.45-.16.43-.86.49-1.33a3.74,3.74,0,0,0-.06-2C78.35,61,75.5,57.29,73.87,53c-.58-1.49.11-3.21-.13-4.8,0-.32-1-.59-.7-.69a45,45,0,0,1,8.37-1.67c.4,0,.63.79,1,.67.82-.25,1.27-1.18,2-1.59a2.1,2.1,0,0,1,1-.11C87,44.87,88.85,44,90,45c1.41,1.28,1.35,3.58,1.73,5.45a9.18,9.18,0,0,1,0,3.05c-.66,5-1.73,9.95-2.42,14.95a4.09,4.09,0,0,0,.07,2,2.42,2.42,0,0,0,1.29,1.34,1.75,1.75,0,0,0,1.52-.29,4.06,4.06,0,0,0,1.87-2c.2-.68-.73-1.31-.7-2s.76-1.26.82-2c0-.39-.6-.63-.56-1,.06-.72.74-1.27.84-2,.29-2.17-1.21-5,.3-6.55,2.05-2.15,5.55-2.32,8.5-2.68,3.47-.41,7.92-2,10.49.37,3.42,3.17,2.71,8.93,4.28,13.33a25.58,25.58,0,0,0,1.92,4,1.65,1.65,0,0,0,.74.69,2,2,0,0,0,1,.15c.47-.05,1.12,0,1.35-.4a2.65,2.65,0,0,0,.08-2.07c-.77-2.52-2-4.84-3-7.3-.84-2.22-1.66-4.47-2.33-6.76a1.85,1.85,0,0,1,.05-1.09,1.16,1.16,0,0,1,.62-.68c1.46-.6,3.07-.8,4.53-1.41A6.25,6.25,0,0,0,125,51c.82-.76,1.54-3.48,2.16-2.55,2.35,3.52,2.62,8.05,4.13,12a1.21,1.21,0,0,0,.75.7,3.5,3.5,0,0,0,2,.06,2.86,2.86,0,0,0,1.36-1.28,1.23,1.23,0,0,0,0-1.06c-.23-.52-.82-.82-1.09-1.32A36.63,36.63,0,0,1,131,50.75c-.4-1.3-.8-3,0-4.12,1-1.35,3-1.54,4.52-2.17.22-.09.63-.18.71,0a56.32,56.32,0,0,1,2.72,9.07c1.39,7.26,1.37,14.78,3.24,21.93.21.79,1.72.3,2.47-.05.43-.2.45-.85.5-1.32a19.77,19.77,0,0,0,0-4.07c-.57-4.79-1.33-9.56-2.21-14.31-.47-2.6-2.33-5.12-1.83-7.72.56-2.93,3-5.21,4.78-7.59,1-1.35,2.56-2.23,3.67-3.51,2.2-2.5,4.26-5.13,6.24-7.81,1.41-1.91,2.48-7.81,3.92-5.93,3.2,4.18,2.52,10.22,3.35,15.42.06.4-.62.6-.72,1a4.67,4.67,0,0,0-.07,2.07c.13.65.69,1.15.86,1.78.63,2.31.73,4.77,1.52,7,.23.66.78,1.63,1.46,1.48a2.37,2.37,0,0,0,1.63-2.17c-.06-2.64-1.34-5.11-1.85-7.71-1.14-5.77-2.27-11.55-3.12-17.38a14.53,14.53,0,0,1,0-4.06c.1-.71.68-1.28.84-2,0-.17-.16-.34-.29-.48A8.5,8.5,0,0,0,162,16.84a14.92,14.92,0,0,0-2.58-1.66A2.68,2.68,0,0,0,158.4,15c-5.33-.19-10.65-.59-16-.47-1,0-2,.81-3,.87a26.31,26.31,0,0,1-6-.31,1.79,1.79,0,0,1-1.4-.89c-1.07-2.89-1.4-6-2.26-9a25.13,25.13,0,0,0-1.41-3.64c-.08-.18-.3-.38-.5-.34-.38.07-.6.56-1,.62a15.32,15.32,0,0,1-3,.06,9.13,9.13,0,0,1-2-.22c-.69-.19-1.24-.8-2-.89a32.05,32.05,0,0,0-7-.21A23.73,23.73,0,0,0,107,2.16a5.63,5.63,0,0,0-2.65,1.7c-.24.34.65.63.65,1s-.71.62-.67,1c.26,2.85,3.86,6.76,1.55,8.44-4.5,3.27-11,1.87-16.51,2.42-.4,0-.61-.68-1-.67-.71,0-1.31.69-2,.72-2.5.13-5.88,1.62-7.51-.27-2.51-2.92-1-7.7-2.44-11.29a4.48,4.48,0,0,0-3-2.67A93,93,0,0,0,52.85,0a6.15,6.15,0,0,0-4.54,2.66c-.71.95-.2,2.39,0,3.58.09.7.75,1.28.78,2,.13,3.15,2.31,7.7-.31,9.44C43.83,20.92,37.1,19.52,31.24,20c-.4,0-.58-.7-1-.71-.71,0-1.34.6-2.05.58-.4,0-.61-.71-1-.67a28,28,0,0,0-5.76,1.45c-.29.1-.67.43-.56.7.3.8,1.19,1.26,1.58,2a1,1,0,0,1,0,1.06c-1.95,2.18-4.33,4-6.32,6.09-.71.77-1.06,1.83-1.77,2.61-1.37,1.51-3.06,2.7-4.43,4.21-.63.68-.88,1.65-1.5,2.34A48.65,48.65,0,0,1,4,43.9c-.32.27-.84.24-1.14.53A12.46,12.46,0,0,0,0,47.8c-.21.48.61.9.67,1.42C1.49,56,1.81,62.82,2.58,69.6c.34,3,.22,6.07,1.43,8.78.33.75,1.69.22,2.46,0a2.14,2.14,0,0,0,1.36-1.28A10.87,10.87,0,0,0,8,73c-.08-.71-.68-1.29-.78-2a4.78,4.78,0,0,1,.19-2c.11-.37.67-.56.68-1s-.56-.61-.62-1a8.29,8.29,0,0,1,0-3c.91-4.49-.23-10.47,3.36-13.31,4.1-3.23,10.37-1.34,15.59-1.63,3-.16,6.14-.56,9,.28,1.21.34,1.3,2.21,2.3,3a1.69,1.69,0,0,0,1.59,0A3.26,3.26,0,0,0,40.62,51a1.83,1.83,0,0,0,.06-1.09c-.45-3.68-1.29-7.3-1.53-11-.15-2.34-.7-4.93.35-7,.51-1,2.24-.46,3.36-.34.71.07,1.25.71,2,.88a5.6,5.6,0,0,0,2.08.09c2.69-.41,5.31-1.23,8-1.62.8-.12,2.14-.67,2.41.09,1.3,3.66,1.47,7.64,1.71,11.52,0,.72-.72,1.26-.88,2a3.54,3.54,0,0,0-.06,2.06c.31.8,1.21,1.24,1.64,2a2,2,0,0,1,.1,1c-.05,1.68.22,3.43-.29,5-.14.45-.92.36-1.38.27s-.56-.64-1-.67-.63.59-1,.57-.59-.62-1-.63-.61.57-1,.63a9.07,9.07,0,0,1-3,0c-1-.17-1.92-1-3-1-.71,0-1.3.62-2,.76a3.58,3.58,0,0,1-2.07.06c-.91-.38-1.36-1.51-2.26-1.91A1,1,0,0,0,40.7,53a19.46,19.46,0,0,0-2.19,5.24,117,117,0,0,0-2.32,12.61c-.18,1.33-.49,2.79,0,4a1.39,1.39,0,0,0,1.85.44c.76-.57.85-1.71,1.06-2.64,1-4.35.35-9.21,2.44-13.15.89-1.68,3.58-1.32,5.44-1.74a4.48,4.48,0,0,1,2.09.08c.38.11.55.61.93.73a7.15,7.15,0,0,0,2,.21,7.27,7.27,0,0,0,2-.09c.38-.09.57-.67,1-.66.71,0,1.3.68,2,.7s1.11-.82,1.66-.62a3.08,3.08,0,0,1,1.81,1.92c1.14,4.3,1.31,8.81,2.21,13.17a12,12,0,0,0,1.35,4.08,5.63,5.63,0,0,0,2.34,1.76M63.94,51.75h0a12.86,12.86,0,0,0-.26-2.08c-.14-.53-1.2-1.19-.73-1.46a20,20,0,0,1,6.41-1.72c.47-.08,1.54,0,1.35.4A7.92,7.92,0,0,1,68,49.6,23.58,23.58,0,0,1,64.25,52m32.08-2h0c-.45-.29-1.27-.34-1.37-.88-.91-5-2.25-10.17-1.53-15.22.2-1.43,2.54-1.45,3.94-1.8a62.18,62.18,0,0,1,9.48-1.52c2.2-.18,4.59-.72,6.61.15,1.17.49,1.24,2.23,1.72,3.41a2.8,2.8,0,0,1,.09,1.08,9.08,9.08,0,0,1-.2,2c-.19.68-.8,1.24-.89,1.94a39,39,0,0,0-.21,7c0,.71.61,1.32.72,2,0,.18-.18.34-.31.46a3.51,3.51,0,0,1-1,.85,2.11,2.11,0,0,1-1,.1,24.53,24.53,0,0,1-4-.25c-.4-.07-.59-.76-1-.71-1.71.24-3.23,1.34-5,1.56m19-1.46h0a13.24,13.24,0,0,0-2.08.23c-.29.08-.54.77-.74.54a7.06,7.06,0,0,1-1.52-3.19c-.16-.79-.4-2.34.4-2.37,2.23-.12,4.39,1.05,6.38,2.05.31.16-.21.68-.44.93M12.17,42.14h0a45,45,0,0,1,2.68-3.61c1.47-1.6,3.25-2.88,4.71-4.48.62-.68.86-1.67,1.5-2.34,2.22-2.33,4.59-4.51,7-6.62a3.15,3.15,0,0,1,1.64-.9c11.27-1,22.57-1.71,33.86-2.38,15.94-.95,31.89-1.82,47.84-2.48,14.62-.59,29.24-1.29,43.86-1.25.64,0,1.13.75,1.36,1.35a2.72,2.72,0,0,1-.07,2.06,16.86,16.86,0,0,1-2.67,3.58c-.8.92-1.91,1.57-2.65,2.55-1,1.32-1.48,3-2.55,4.28-1.72,2-4,3.5-5.75,5.47-1.06,1.19-1.41,3-2.69,4-.47.35-1-.61-1.59-.76a8.5,8.5,0,0,0-2-.21,15.33,15.33,0,0,0-3,.06c-.71.12-1.29.71-2,.77a14.28,14.28,0,0,1-4-.25c-.38-.07-.55-.61-.93-.73a7.54,7.54,0,0,0-2-.21,37.81,37.81,0,0,0-5-.13c-.72.06-1.33.89-2,.72-.45-.11-.49-.86-.43-1.32.1-.7.7-1.26.88-1.94a5,5,0,0,0,.2-2,34,34,0,0,0-1.56-6.81,2.84,2.84,0,0,0-1.65-1.64,8.91,8.91,0,0,0-4-.27C105,27.44,99,29.07,93,29.88c-.4.06-.61-.56-1-.69a1.37,1.37,0,0,0-1,0c-.55.29-1.27.67-1.36,1.27-.14,1,.68,2,.74,3.06.11,2.15,1.53,5.21-.22,6.44-3.47,2.46-8.27,2-12.48,2.54-.71.1-1.32-.68-2-.72-.39,0-.63.59-1,.57s-.58-.55-1-.67a1.71,1.71,0,0,0-1,0c-.38.1-.61.62-1,.61s-.58-.54-1-.67a1.89,1.89,0,0,0-1.08,0c-1.72.46-3.28,1.5-5,1.68a1.36,1.36,0,0,1-1.28-1c-.91-4.78-1-9.67-1.69-14.49a.57.57,0,0,0-.49-.4,7.25,7.25,0,0,0-2.08-.09c-3.68.41-7.31,1.26-11,1.54a35.54,35.54,0,0,1-7-.22c-.71-.08-1.24-.76-2-.89a5.86,5.86,0,0,0-3-.08c-.45.15-.45.85-.5,1.32a36.47,36.47,0,0,0-.18,6c.09,1,.81,2,.88,3C36.31,40,38,43.58,36,44.25c-8.1,2.7-17,1.92-25.52,2.18-.48,0-.53-1-.34-1.38.34-.79,1.26-1.19,1.76-1.89m43.9-24.7h0a14.49,14.49,0,0,1-2.51.37c-.46,0-1.11-.08-1.29-.5s.54-.59.67-1a2.36,2.36,0,0,0,.06-1.09c-.45-3.34-1.25-6.63-1.55-10a2.43,2.43,0,0,1,.52-1.46c.24-.37.57-.83,1-.84a115.39,115.39,0,0,1,13,.25c1,.08,2,.85,3,.92.39,0,.59-.55,1-.65a1.52,1.52,0,0,1,1.09,0c1,.52,2.53.83,2.86,1.94.53,1.76-.66,3.65-.62,5.49,0,.71.64,1.29.77,2s.83,2.25,0,2.46c-5.67,1.59-11.65,1.73-17.5,2.39m71.16-3.88h0c-3.69-.05-7.37-.31-11-.14-.72,0-1.31.69-2,.72-.38,0-.59-.62-1-.63s-.63.58-1,.57-.59-.64-1-.63c-.54,0-1.26,1.16-1.48.67A40.41,40.41,0,0,1,107.32,6c-.06-.32.33-.63.63-.77a17.13,17.13,0,0,1,4.78-1.59,26.89,26.89,0,0,1,7,.33c2.25.34,4.83.36,6.6,1.79,1.29,1.05,1.19,3.13,1.52,4.76a10.82,10.82,0,0,1,0,3.06"/></g></g></svg>