<svg xmlns="http://www.w3.org/2000/svg" viewBox="0 0 234.19 90.88"><g id="Layer_2" data-name="Layer 2"><g id="Layer_1-2" data-name="Layer 1"><path d="M36.54,90.78h0c1.3-6.27,2.25-12.61,3.89-18.79.13-.53.8-.84,1.34-.93,1.14-.19,2.91-.88,3.46.14,1.51,2.84.71,6.44,1.68,9.51.16.51,1,.53,1.5.56s1.21.06,1.35-.38c.22-.67-.61-1.35-.55-2.06s.72-1.27.86-2a5.39,5.39,0,0,0,0-2c-.14-.69-.69-1.29-.75-2,0-.47,0-1.26.5-1.32a37.77,37.77,0,0,1,8,.17,2.89,2.89,0,0,1,1.46.54,2.46,2.46,0,0,1,.84,1,2.43,2.43,0,0,1,.09,1c-.1,3.67-.07,7.34-.43,11-.07.71-1,1.27-.86,2a4.15,4.15,0,0,0,1.74,2.07,1,1,0,0,0,.95,0,1.89,1.89,0,0,0,.91-.94,6.19,6.19,0,0,0,.23-2c.18-3.67.51-7.33.42-11,0-.73-.87-1.35-.73-2.06a5.46,5.46,0,0,1,1.64-2.6,85,85,0,0,1,9.09-8.3c.37-.29,1,0,1.36.36s.11.7.1,1c-.08,3,0,6-.35,9-.08.71-.79,1.25-.86,2,0,.39.58.63.55,1s-.59.57-.68.94a3.63,3.63,0,0,0-.08,2.06,2.41,2.41,0,0,0,1.27,1.37,2.84,2.84,0,0,0,2,.08A3,3,0,0,0,77.87,79a2,2,0,0,0,.18-1c.16-3,.47-6,.35-9,0-1-.86-2-.84-3s1-2,1-3C78.38,60.39,75,57,77,55.51c3.62-2.68,9-1,13.44-1.45.55-.05,1.23-.32,1.65,0A3.66,3.66,0,0,1,93,56.17c.91,4.11,1.82,8.23,2.32,12.42,0,.4-.72.58-.72,1,0,1.05.73,2,.69,3.06,0,.71-.77,1.26-.84,2,0,.39.57.63.56,1s-.62.59-.64,1,.6.63.56,1c-.07.72-.76,1.26-.86,2a21.94,21.94,0,0,0-.2,5c.06.72.75,1.29.75,2s-.86,1.32-.74,2,.59,2,1.45,2.24c.65.19,1.34-.71,1.54-1.37a86.77,86.77,0,0,0,2.09-10.65A6.67,6.67,0,0,0,99,76.75c-.12-.71-.7-1.29-.76-2a26.13,26.13,0,0,1,.2-5c0-.47,0-1.19.5-1.32a9.61,9.61,0,0,1,4,0c.71.11,1.26.8,2,.87.41,0,.67-.67,1.07-.6,1.92.34,4.26.35,5.6,1.79,1.57,1.68,1.35,4.41,2.22,6.55,1.11,2.76,2.37,5.48,3.71,8.14a1.46,1.46,0,0,0,.74.69c.32.13.78.26,1,0a1.85,1.85,0,0,0,.51-1.31c.15-1.69.53-3.43.08-5-1-3.52-3.17-6.61-4.33-10.08a1.61,1.61,0,0,1,.44-1.54c.79-.78,2.09-.9,2.85-1.71,1.44-1.56,2.29-3.57,3.62-5.22a7.26,7.26,0,0,1,1.85-1.6c.19-.13.55-.16.65,0a52.74,52.74,0,0,1,3.42,7.45c.3.84-.3,1.9.13,2.69a3.19,3.19,0,0,0,2.33,1.8c1,0,1.72-1,2.43-1.61a.63.63,0,0,0,0-.66C132,65.69,130.19,62.45,129,59a3.53,3.53,0,0,1,.09-2.08c.15-.51.37-1.26.9-1.36,6.64-1.18,13.44-1.25,20.09-2.38.34-.07.18-.78,0-1a4.72,4.72,0,0,0-2.27-1.82,18.83,18.83,0,0,0-6-.38c-3.37.23-6.66,1.21-10,1.45-.41,0-.61-.66-1-.68s-.63.57-1,.56-.59-.62-1-.64-.63.6-1,.56c-.71-.07-1.25-.85-2-.85-1.05,0-2,.78-3,.83-2.16.13-4.61.79-6.49-.29-1.37-.79-1.32-2.9-1.69-4.45a4.49,4.49,0,0,1,.09-2.09c.18-.69.77-1.24.92-1.93a11.17,11.17,0,0,0,.11-3c0-.47.07-1.28-.4-1.36a54.05,54.05,0,0,0-11-.58c-3.33.13-6.57,1.52-9.89,1.4-.92,0-1.21-1.49-2.06-1.85a1.2,1.2,0,0,0-1.4.39,5.14,5.14,0,0,0-.26,3c.3,2.06,1.31,4,1.58,6,0,.4-.66.6-.67,1s.51.62.61,1,.51,1.28,0,1.47a27.22,27.22,0,0,1-7.49,1.61c-.4,0-.61-.66-1-.68s-.64.58-1,.56-.59-.55-1-.68a1.82,1.82,0,0,0-1.06,0c-.69.16-1.29.74-2,.74-4.8.06-10.8,2.62-14.39-.56-3.4-3-.56-9.09-1.54-13.51-.12-.54-1-.59-1.57-.46-1.08.27-1.84,1.51-3,1.6-1.38.12-2.64-1-4-1-5.61,0-11.3,0-16.8,1.1-1,.2-1.25,1.69-1.72,2.62a2.37,2.37,0,0,0-.17,1.06,8.54,8.54,0,0,0,.05,2c.09.37.62.61.62,1s-.65.58-.64,1c0,.72.62,1.33.71,2a5,5,0,0,1-.22,2c-.11.37-.69.56-.68,1,0,.72.68,1.32.7,2s.12,1.89-.57,2.28-1.26-.77-2-.87a40.68,40.68,0,0,0-7-.26c-1.05,0-2,.71-3.06.7-.39,0-.55-.62-.92-.73a7.21,7.21,0,0,0-2-.23,7.25,7.25,0,0,0-2,.07c-.38.1-.59.61-1,.66a9.37,9.37,0,0,1-3.08-.1,60.7,60.7,0,0,1-7.64-2c-.29-.1-.66-.49-.52-.76a62,62,0,0,1,5.9-9.42c1.64-2.08,4-3.44,5.79-5.41,1.41-1.6,2.28-3.61,3.64-5.24.91-1.1,1.73-2.64,3.12-2.89,6.77-1.26,13.73-1.13,20.61-1.51,13.09-.72,26.19-1.45,39.31-1.79.4,0,.6.57,1,.72a3.06,3.06,0,0,0,1.09.07c17-.6,34.06-1,51.07-1.88,4.34-.23,8.6-1.27,12.93-1.56q11.55-.78,23.13-.87c.43,0,.63.74,1.06.72,4.36-.18,8.66-1.17,13-1.3.71,0,1.25.79,2,.85.39,0,.63-.51,1-.6a1.74,1.74,0,0,1,1.06,0c.38.14.58.72,1,.72,8.65,0,17.29-.72,25.94-.7.73,0,1.32.71,2,.75.39,0,.61-.54,1-.61a3.66,3.66,0,0,1,2,.09c.24.11.1.6-.06.81a20.12,20.12,0,0,1-2.69,3.06c-1.28,1.18-2.85,2-4.08,3.24-.75.74-1.07,1.83-1.8,2.59-1.89,2-4.08,3.65-6,5.6-.29.29-.31.81-.61,1.09-1,.95-2.41,1.5-3.32,2.56-1.09,1.26-1.53,3-2.59,4.26s-2.17,3.32-3.91,3.52c-6.77.79-14.3,2.26-20.45-.69-3.17-1.51-1.27-6.94-2.4-10.27a4,4,0,0,0-1.67-1.71,1.94,1.94,0,0,0-1-.17,8.86,8.86,0,0,0-2.06,0c-6,1.19-12.06,2-17.82,3.92-1,.33-1.37,1.66-1.76,2.64a4.41,4.41,0,0,0-.08,2.11c.63,5.36,1.77,10.67,2.22,16.05a17.34,17.34,0,0,1-.37,6c-.22.83-1.41,1.1-1.77,1.87a2.4,2.4,0,0,0-.07,2.06c.21.41.88.42,1.35.36s.66-.77,1-.6.49.86.43,1.32c-.6,4.65-1.93,9.19-2.39,13.86a2.87,2.87,0,0,0,.8,2.09,1.86,1.86,0,0,0,1.49.4,1,1,0,0,0,.73-.56c1.26-3.09,2.32-6.24,3.34-9.41.75-2.33,1.4-4.7,1.95-7.09.19-.8-.53-2.2.25-2.46,3.66-1.24,7.64-1.33,11.5-1.48a1.67,1.67,0,0,1,1.57,1c1.73,5,2.56,10.27,4.09,15.33a1,1,0,0,0,.73.61c.18,0,.34-.16.48-.28.33-.29.86-.51.91-.94.08-.7-.59-1.34-.56-2,0-.39.54-.58.67-.94a2,2,0,0,0,.07-1.09c-.69-3.35-1.89-6.59-2.34-10-.09-.72.7-1.32.74-2,0-.39-.82-.74-.56-1a59.76,59.76,0,0,1,8.63-8c.36-.27.36.9.28,1.35s-.79.58-.71,1A67.62,67.62,0,0,0,189.15,71a3,3,0,0,0,1.7,1.73c.42.15.86-.43,1-.84a5.1,5.1,0,0,0,.46-2.52c-.07-.7-.74-1.24-.9-1.92-.94-4-1.77-8.09-2.4-12.18a3,3,0,0,1,.22-2c.26-.39.89-.39,1.37-.4,2.52,0,5.15-.38,7.55.37.79.25.82,1.47.95,2.28,1.67,10.68,2.46,21.51,4.43,32.14.12.6,1.07.79,1.68.76a3.2,3.2,0,0,0,2-.91,1.88,1.88,0,0,0,.43-1.52c-1.3-10.72-3.11-21.37-4.49-32.08a3.43,3.43,0,0,1,.09-2.11,36.26,36.26,0,0,1,4.83-6.46c2.43-2.63,5.43-4.69,7.87-7.31,1.75-1.9,2.88-4.3,4.65-6.19.66-.7,1.82-.77,2.53-1.42s1-1.73,1.65-2.44c.35-.35,1.15-1.08,1.37-.63a27,27,0,0,1,2.06,7.93c.87,6.44.88,13,1.62,19.4,0,.29.37.48.65.58a1.68,1.68,0,0,0,1,0,1.16,1.16,0,0,0,.73-.56A25.08,25.08,0,0,0,234.18,49c.1-.73-.64-1.37-.73-2.12-.8-6.57-1.15-13.2-2-19.78-.17-1.41-1.17-2.74-1-4.16.11-.87,1.4-1.16,1.76-1.94a2.82,2.82,0,0,0,.08-2.06,3,3,0,0,0-1.27-1.37,2.06,2.06,0,0,0-1-.18c-3.33-.17-6.66-.4-10-.4-12.67,0-25.34.46-38,.35-.41,0-.61-.66-1-.68s-.61.55-1,.61c-.68.13-2.19.61-2.07-.08.2-1.09,1.78-1.36,2.49-2.23a1.15,1.15,0,0,0,.16-1c-.71-2.09-2.36-3.9-2.58-6.09a2.67,2.67,0,0,1,1.7-2.69,64.22,64.22,0,0,1,15.79-1c1.37.06,3.11.55,3.7,1.79,1.29,2.65.33,6,1.38,8.74.26.69,1.47.81,2.14.52.88-.4,1.32-1.44,1.82-2.28a2.32,2.32,0,0,0,.16-1.06,15.62,15.62,0,0,0,.12-3c-.09-.71-.68-1.3-.76-2-.18-1.49,1.14-3.54,0-4.48C201.83.56,198.6.14,195.7,0c-6-.22-12,.77-18,1.36a3.85,3.85,0,0,0-1.75.57,5.83,5.83,0,0,0-1.72,1.67,1.57,1.57,0,0,0-.06,1.09c.64,4,3.36,8,2.16,11.81-.64,2-4.14,1.13-6.28,1.32-.4,0-.6-.65-1-.68s-.63.58-1,.56-.59-.62-1-.64-.63.6-1,.56c-.71-.06-1.26-.82-2-.84s-1.31.69-2,.69c-.39,0-.57-.59-1-.69a4.72,4.72,0,0,0-2-.08c-.38.06-.6.63-1,.61s-.61-.7-1-.68c-3,.19-6,1.09-9,1.33a.75.75,0,0,1-.72-.57c-.64-5.1,3.3-13.08-1.31-15.34C138.79-1.46,130,3.68,122.1,5c-1.47.24-3.43.46-4.11,1.8-1,2-.48,4.48-.24,6.7a17.4,17.4,0,0,0,1.45,4.75c.12.29.43.68.74.6a6.16,6.16,0,0,0,2.69-1.4,6.94,6.94,0,0,0,1.8-2.68,2.08,2.08,0,0,0-.3-1.56,1.61,1.61,0,0,0-1-.85c-.31-.07-.56.66-.81.47-.7-.54-1.6-1.36-1.45-2.23s1.28-1.23,2.1-1.46a44.09,44.09,0,0,1,8.3-1.51c.43,0,.63.76,1.06.72,2.35-.22,4.61-1.1,7-1.44a2.31,2.31,0,0,1,1.36.25c.69.36,1.59.72,1.84,1.47.2.6-.67,1.12-.76,1.75a16.47,16.47,0,0,0,0,4c0,.39.62.61.62,1s-.62.58-.64,1,.56.64.56,1a.77.77,0,0,1-.56.69c-4.91.87-9.85,1.61-14.82,2.05-.4,0-.61-.66-1-.68s-.64.57-1,.56-.58-.64-1-.64-.61.57-1,.61a14.32,14.32,0,0,1-4,0c-.72-.11-1.27-.93-2-.9-3,.16-6,1.41-9,1.48-6,.14-13.34,2.93-18-.85-3.22-2.63,1.67-8.16,1.84-12.31,0-.62-.74-1-1.26-1.37a2,2,0,0,0-1-.18,40.73,40.73,0,0,0-5.06-.08C78.1,6.32,71.89,7.05,65.69,7.9c-.82.11-1.54.67-2.37.79-1.22.18-2.57-.4-3.7.1a3,3,0,0,0-1.8,2.33c0,1.13,1.16,2,1.59,3a2.73,2.73,0,0,1,.08,1.07,26.4,26.4,0,0,1-.16,4c-.1.61-.15,1.58-.76,1.68C51.42,22,44.14,21.9,37,22.6q-6.9.69-13.75,1.73A1.85,1.85,0,0,0,22,24.9c-1.46,2-2.44,4.32-3.83,6.37A30.24,30.24,0,0,1,15,35.15c-1.49,1.57-3.4,2.74-4.74,4.44A154.73,154.73,0,0,0,.1,53.86c-.27.44,0,1.07.28,1.53a2.1,2.1,0,0,0,.94.9c.5.24,1.2,0,1.61.32a2.74,2.74,0,0,1,.77,1.77C4.82,67.22,5.08,76.17,6.53,85c.1.6,1.07.68,1.68.76a1.8,1.8,0,0,0,1.36-.39c.25-.24.2-.68.16-1-.87-8-2-16-2.9-24.07-.07-.69-.46-1.69.11-2.09.92-.64,2.24-.46,3.36-.32s1.92,1,3,1.08c3.15.4,6.94-1.41,9.49.45,2.32,1.71,1.38,5.61,2.44,8.29.26.66.77,1.65,1.46,1.52.88-.16,1.47-1.22,1.66-2.09.54-2.44-1.16-5.59.47-7.48s5.77-3.51,7.3-1.55c2.53,3.25,1.27,8.18,1.09,12.29,0,.87-1.41,1.15-1.72,2-.13.37.5.62.61,1a2.86,2.86,0,0,1,0,1.09c-.76,5-1.8,9.87-2.42,14.85-.06.47,0,1.14.39,1.36m21-22h0a44.79,44.79,0,0,1-5.06-.35c-.71-.12-1.24-.79-1.95-.91a15.67,15.67,0,0,0-4-.16c-.61.06-1.55,1.2-1.75.61-1.32-3.91-1.67-8.11-2.17-12.22a20.41,20.41,0,0,1,.09-5.06c.13-1,.87-2,.94-3,0-.39-.6-.58-.66-1-.16-1.14-1.06-3,0-3.45,4.27-1.56,9-1.47,13.56-1.55,1.83,0,4.63-.46,5.35,1.22,1.91,4.46,1.16,9.65,1.37,14.51,0,.4-.68.6-.68,1,0,.72.67,1.32.71,2,.09,2.19.58,4.56-.32,6.54-.53,1.15-2.22,1.3-3.43,1.68m6.7-2.06h0c.14-3.68,0-7.38.42-11.05,0-.27.58-.1.81,0,.56.36.88,1,1.44,1.41a1.53,1.53,0,0,0,1,.16c.69-.14,1.3-.63,2-.74a3.48,3.48,0,0,1,2.05.08c.57.26,1.3.8,1.24,1.43A4.87,4.87,0,0,1,71,60.36a72.2,72.2,0,0,1-6.55,6.06m34.6-.15h0c-.77-.2-1.74,0-2.32-.58-.29-.27.63-.59.64-1s-.51-.62-.61-1a1.82,1.82,0,0,1,0-1.06c.14-.36.58-.54.72-.91a1.92,1.92,0,0,0,.07-1.09c-1-4.7-2.39-9.3-3.15-14-.07-.4.61-.6.72-1,.27-.88-.43-2.3.39-2.72,2.87-1.47,6.2-1.92,9.4-2.3a15.69,15.69,0,0,1,7.09.3c.74.26.46,1.56.36,2.36s-1,1.27-.9,2c.4,4.72,1.69,9.35,2.27,14.07a4.79,4.79,0,0,1-.19,2.63c-.35.74-1.54.87-1.83,1.63-.2.56.74,1.1.6,1.67s-.79,1-1.32,1.3a1.8,1.8,0,0,1-1,.09m51.67-2.44h0c-.48-.47-.8-1.26-1.45-1.42s-1.34.55-2.05.56a.75.75,0,0,1-.68-.54A103.41,103.41,0,0,1,155.39,50c-.06-.72.74-1.28.89-2a5,5,0,0,0-.05-2c-.09-.37-.76-.63-.62-1a3.65,3.65,0,0,1,1.65-1.69,12.28,12.28,0,0,1,3-1c2.9-.78,5.79-1.67,8.75-2.18,1.19-.19,2.61-.58,3.61.09s1.37,2.21,1.65,3.46c.08.39-.66.6-.67,1s.55.62.61,1a4.78,4.78,0,0,1-.08,2.06c-.1.37-.57.56-.74.91a1.88,1.88,0,0,0-.16,1c.41,2.69,1.29,5.3,1.53,8a20,20,0,0,1-.26,6.08c-.13.61-.83,1-1.37,1.27a2,2,0,0,1-1,.09c-3-.08-6-.09-9-.35m-45.56-1.84h0c-.79-2.44-3.67-5.08-2.39-7.29s4.86-1.32,7.35-1.29c.62,0,1.39.8,1.22,1.39-.42,1.43-1.69,2.46-2.66,3.59m56.21,1.8h0c-.1-.44-.39-.88-.32-1.32s.69-.57.69-1c0-.72-.66-1.31-.71-2a9.72,9.72,0,0,1,.3-4c.17-.44.89-.39,1.36-.39a21.63,21.63,0,0,1,6,.37c.45.13.29.91.26,1.37,0,.21-.22.36-.39.48a23.24,23.24,0,0,0-3,1.85c-1,.88-1.49,2.15-2.37,3.12M71.87,21h0c-2.37-.11-4.85.44-7.1-.3A4,4,0,0,1,62.5,18c-.44-1.67-1.45-4.59.17-5.17,7.12-2.55,15-2.16,22.5-3,.48-.05,1.21-.06,1.39.39a5.7,5.7,0,0,1,0,3c-.12.7-.83,1.24-.87,2s.72,1.32.69,2-.74,1.26-.84,2c0,.28.74.68.46.71"/></g></g></svg>