<svg xmlns="http://www.w3.org/2000/svg" viewBox="0 0 92.95 159.13"><g id="Layer_2" data-name="Layer 2"><g id="Layer_1-2" data-name="Layer 1"><path d="M78.57,158.82h0c2.14-.6,4.57-.57,6.41-1.81,1.42-1,2-2.83,2.71-4.36a1.17,1.17,0,0,0,0-1.09c-.56-.87-1.5-1.45-2.13-2.28s-.83-1.67-1.43-2.38c-.82-1-1.59-2.15-2.78-2.61-.67-.25-1.29.72-2,.79a22.25,22.25,0,0,1-6,0c-1.57-.29-4.08-.32-4.41-1.89s2.12-2.15,3.38-2.95c.47-.3,1.22.1,1.66-.25.77-.61,2-1.46,1.71-2.41-1.46-5.46-4-10.6-6.54-15.66-.56-1.1-1.94-1.6-2.59-2.65-1.06-1.68-1.47-3.7-2.46-5.41-1.82-3.11-5.16-5.51-6-9-.29-1.3,2.23-1.52,3.47-2,6-2.28,12.17-4.07,18.2-6.25A45,45,0,0,0,85,94.38a18.3,18.3,0,0,0,3-2,10.71,10.71,0,0,0,2.1-2.1,22.83,22.83,0,0,0,2.57-4.63,2.3,2.3,0,0,0,0-2.08,6.77,6.77,0,0,0-3.3-2.34,8,8,0,0,0-4.11,0c-1.75.4-3.27,1.5-5,2.08-4,1.34-8.17,2.09-12.07,3.65-4.11,1.65-7.7,4.49-11.87,6-.6.21-1.14-.71-1.38-1.29a3.49,3.49,0,0,1,0-2.05c.09-.4.74-.61.69-1C55.37,86.2,54.36,84,54,81.65c-.23-1.36-1.21-3.29-.12-4.13,2.25-1.76,5.57-1.3,8.27-2.22.5-.17.7-.92,1.22-1s.64.73,1,.63a9.54,9.54,0,0,0,3.44-1.73,42.92,42.92,0,0,0,5.34-4.93,19,19,0,0,0,3-4A22.25,22.25,0,0,0,78,59.06a86,86,0,0,0,1.72-9.41c.24-1.88-.67-4,.23-5.69,1.24-2.3,4.12-3.29,5.74-5.34.32-.41-.05-1.09-.34-1.51a8.35,8.35,0,0,0-2.28-2.27c-1.86-1.19-6.17-.8-5.92-3,.29-2.54,4.85-2,6.69-3.78C85,27,86.05,25.18,85.67,23.63s-2.28-2-3.61-2.79c-1.94-1.09-4.82-.88-6.1-2.7-.75-1.07,1.41-2.24,1.74-3.49a7.44,7.44,0,0,0,0-3.08,1,1,0,0,0-.63-.73c-3.25-1.31-6.71-2.09-9.91-3.53-.27-.12.44-.42.53-.69a1.74,1.74,0,0,0,0-1.06,2.63,2.63,0,0,0-.87-1.46,14.11,14.11,0,0,0-4.43-1.84c-.4-.09-.64.63-1,.63s-.6-.52-1-.64a1.57,1.57,0,0,0-1.09,0c-1,.44-1.84,1.31-2.89,1.71a1.88,1.88,0,0,1-1.68,0c-1.35-1-2-2.77-3.35-3.75-.54-.4-1.34-.17-2-.13A3,3,0,0,0,48,.4c-2,1.08-3.73,2.47-5.68,3.56a.59.59,0,0,1-.65,0c-1.22-1.14-2-2.75-3.35-3.72-.54-.39-1.35-.2-2-.13a2.61,2.61,0,0,0-1.48.48C33.75,1.57,33,2.94,32,4a.63.63,0,0,1-.66,0c-1.68-.82-3.17-2-4.92-2.73a2.87,2.87,0,0,0-2.08,0,3.63,3.63,0,0,0-1.7,1.61C21.8,4.32,21.55,6,20.85,7.56c-.09.2-.34.44-.54.35-1.72-.73-3.16-2-4.92-2.67a1.92,1.92,0,0,0-1.53.35A4.67,4.67,0,0,0,12.55,6.9,11.23,11.23,0,0,0,11,9.54a5.86,5.86,0,0,0-.14,2.05A7.86,7.86,0,0,0,11,13.65c.45,1.67,1.33,3.2,1.74,4.88a4.43,4.43,0,0,1,0,2.08c-.06.2-.38.25-.58.21-1.92-.43-3.77-1.17-5.7-1.6a3.21,3.21,0,0,0-2.11-.11A5.65,5.65,0,0,0,2,21.54a2.8,2.8,0,0,0,0,2.11,8.4,8.4,0,0,0,1.57,2.63c1.15,1.38,2.63,2.45,3.79,3.83.25.3.59.79.36,1.11a4.5,4.5,0,0,1-2.33,1.69c-.39.12-.62-.54-1-.66a1.67,1.67,0,0,0-1.06,0,4.07,4.07,0,0,0-1.6.92C1,33.87,0,34.6,0,35.59s.88,1.91,1.55,2.69a20.12,20.12,0,0,0,3.34,3,18.9,18.9,0,0,0,3.51,2c1.51.67,3.87.16,4.72,1.59,1.87,3.18,1.49,7.24,2.57,10.77a14.39,14.39,0,0,0,2,4.4,28.9,28.9,0,0,0,5.63,6,45.3,45.3,0,0,0,9.25,5.29c3.36,1.5,7.17,1.86,10.48,3.47a4.21,4.21,0,0,1,1.79,2.53,44.24,44.24,0,0,1,1.93,8.2,22.5,22.5,0,0,1,0,5c0,.47,0,1.12-.45,1.34s-1.07-.06-1.51-.33C41.48,89.48,38.36,87,35,84.8c-2.4-1.56-5-2.83-7.37-4.42-.63-.43-1-1.25-1.64-1.59-2.13-1.06-4.3-2.29-6.66-2.54-1-.11-2,.81-2.68,1.53A4.6,4.6,0,0,0,15,80.6a4.8,4.8,0,0,0,1.56,3.68,108.75,108.75,0,0,0,15.09,10.1c5.18,3,12,3.56,16.1,7.9,1.45,1.53-3.64,2.2-5.2,3.62-.77.71-1,1.84-1.69,2.66s-1.65,1.46-2.31,2.34c-1.27,1.71-2.1,3.72-3.43,5.38s-3.3,2.87-4.57,4.63A31.61,31.61,0,0,0,27,127.54a3.12,3.12,0,0,0,0,2.11c.7,2,1.94,3.87,2.73,5.89.21.53-.2,1.35.25,1.71,1.57,1.27,3.66,1.73,5.36,2.81a3.41,3.41,0,0,1,1.38,1.51,2.9,2.9,0,0,1,0,2.05c-.11.25-.58.11-.82,0-1.35-.82-2.46-2-3.84-2.79a19.28,19.28,0,0,0-5.62-2.57,28.62,28.62,0,0,0-8.06-.12,4.29,4.29,0,0,0-2.65,1.06A13.71,13.71,0,0,0,13,143.54a3,3,0,0,0,0,2.11,9.27,9.27,0,0,0,1.57,2.63,7.67,7.67,0,0,0,2.11,2.1,59.23,59.23,0,0,0,6.92,3c2.21.9,4.35,2.14,6.7,2.54,2.66.45,5.58,1,8.08,0,2.33-.93,3.8-3.32,5.28-5.34.23-.32-.75-.65-.62-1,.74-2.2,2.14-4.12,3.07-6.24,1.17-2.69,1.95-5.56,3.24-8.2.7-1.42,1.12-3.65,2.68-3.92,1.19-.21,1.5,2,1.87,3.12.85,2.61,1,5.42,1.75,8.05a1.72,1.72,0,0,0,1,.95c1.46.68,3.54.34,4.54,1.59,2,2.44,2,6,3.68,8.65a21.57,21.57,0,0,0,5.53,5.33c.31.23.61-.61,1-.6s.59.56,1,.65a4.94,4.94,0,0,0,2,.14c.71-.13,1.27-.79,2-.83M55.41,66.94h0c-4,0-8.12.55-12.13,0a22.17,22.17,0,0,1-7.69-2.64,29.28,29.28,0,0,1-8-6c-2.25-2.58-3.52-5.89-5-9a14.86,14.86,0,0,1-1.67-4.73c-.35-3.34-.82-6.84.13-10.05a37.47,37.47,0,0,1,6.54-12.61c1.26-1.58,3.75-1.54,5.5-2.55.62-.35.85-1.3,1.53-1.49C37.74,17,41,16,44.33,16.24c4,.35,7.81,2.18,11.64,3.51a7,7,0,0,1,2.34,1.32,41.57,41.57,0,0,1,5.81,5.83,34.74,34.74,0,0,1,3.95,6.94,17.87,17.87,0,0,1,1.75,5.76c.39,4.66,1,9.49-.12,14-.69,2.93-3.07,5.21-4.94,7.57A9.67,9.67,0,0,1,62,63.38m-9.41-3.57h0c2.18-1.18,4.93-1.66,6.54-3.56a30.38,30.38,0,0,0,5.51-10.63c.24-.78-1-1.31-1.63-1.81a6.75,6.75,0,0,0-2.64-1.57,1.79,1.79,0,0,0-1.8.63c-1.63,2.59-2.22,5.74-3.83,8.35A5.69,5.69,0,0,1,52.39,53a2.34,2.34,0,0,1-1.06.13,15.72,15.72,0,0,1-3,0c-.7-.12-1.27-.69-2-.84a3.49,3.49,0,0,0-2,0,4.9,4.9,0,0,0-1.76,1.66A6.34,6.34,0,0,0,41,56.56c-.1.63.45,1.22.89,1.66a5.12,5.12,0,0,0,2.4,1.69c.71.15,1.3-.81,2-.79,1,0,2,.84,3,1m4.95-48.93h0a37.48,37.48,0,0,1,4-1.92c.53-.19,1.26-.4,1.69,0,.94.78,1.2,2.14,2,3.08a2.87,2.87,0,0,0,1.25.83c2.16.79,4.58.93,6.6,2,.45.24.12,1.05-.09,1.51-.37.81-.7,2.31-1.58,2.15-1.41-.26-1.84-2.3-3.1-3M52.17,26h0c-1.59-.59-3.15-1.3-4.77-1.79-.35-.11-.82-.22-1.09,0a9.16,9.16,0,0,0-1.79,2.62C43.9,28.05,43,29.24,43,30.58c0,1,.88,1.91,1.55,2.7C46,35,47.35,36.9,49.31,37.94a5.18,5.18,0,0,0,4,0,4.06,4.06,0,0,0,2.33-2.32,6.08,6.08,0,0,0,0-4.08M53.33,10.25h0c0,.23.26.64,0,.68a10.82,10.82,0,0,1-4.09,0c-1.22-.27-3.05-.47-3.36-1.68-.27-1,1.49-1.5,2.39-2a1.08,1.08,0,0,1,1.06,0c.31.19.25.74.54,1M27.32,11.13h0c.34-.28.59-.91,1-.86.62.07,1.71.55,1.49,1.14a2.86,2.86,0,0,1-2.49,1.51c-.46,0-.35-.89-.36-1.36M10.37,38h0A10.81,10.81,0,0,1,12,36.43c.19-.12.59-.07.64.14.1.45.1,1.12-.3,1.36m9.49-20.35h0c-.85,1.25-1.06,4-2.53,3.74-1.72-.33-1.86-3-2.36-4.67a6.42,6.42,0,0,1,0-3.08c.05-.21.44-.24.64-.15A33.16,33.16,0,0,1,22,15.81c.28.17.65.45.62.78m14.17,22h0A4.11,4.11,0,0,0,38,38a5.54,5.54,0,0,0,1.73-2.37,10.17,10.17,0,0,0,0-5.11A9.52,9.52,0,0,0,37,26.81a6.73,6.73,0,0,0-2.64-1.58,3.77,3.77,0,0,0-2.08,0,3.46,3.46,0,0,0-1.6.93A5.29,5.29,0,0,0,29,28.54a10,10,0,0,0,0,5.11,9.49,9.49,0,0,0,2.67,3.73,5.85,5.85,0,0,0,2.66,1.53c.39.1.63-.61,1-.62s.62.52,1,.61m38.19-12h0A17.57,17.57,0,0,1,73,24.61c-.07-.14.14-.33.3-.36a4.4,4.4,0,0,1,2,0c.52.18,1.35.62,1.19,1.14M37.79,8.57h0c.28.34.94.58.85,1-.12.6-.78,1.63-1.31,1.3S36.85,9.34,37,8.57"/></g></g></svg>