<svg xmlns="http://www.w3.org/2000/svg" viewBox="0 0 77.38 144.09"><g id="Layer_2" data-name="Layer 2"><g id="Layer_1-2" data-name="Layer 1"><path d="M30,143.91h0a12.76,12.76,0,0,0,2.51-1.53,5.35,5.35,0,0,0,1-2,57.51,57.51,0,0,0,2.5-7.62c.09-.4-.55-.64-.63-1,0-.19.16-.39.32-.5a10.42,10.42,0,0,1,2.95-1.82c.4-.12.66.74,1.06.64,1.09-.27,1.85-1.36,2.94-1.64.39-.1.63.59,1,.62s.62-.77.76-.5C46.2,132,47,136,48.9,139.4c.35.64,1.31.66,2,.79,4.23.77,8.46,1.82,12.76,1.89a9.53,9.53,0,0,0,4.75-1.63,5.37,5.37,0,0,0,2.6-2.7,3.08,3.08,0,0,0-.92-2.67,6,6,0,0,0-3-1.84c-3.64-.94-7.6-.53-11.15-1.78-1-.34-1.18-1.74-1.62-2.69a1.88,1.88,0,0,1-.11-1.05,2.71,2.71,0,0,1,.47-1.37,6.22,6.22,0,0,1,2.21-1.84c.29-.13.46.46.76.55a1.77,1.77,0,0,0,1.09,0,18.67,18.67,0,0,0,3.66-1.61c.62-.37.94-1.13,1.55-1.5,1.06-.63,2.55-.58,3.41-1.46a7.81,7.81,0,0,0,1.68-3.73,4.33,4.33,0,0,0,0-3.11,29.27,29.27,0,0,0-5.67-6.74c-1.57-1.43-3.71-2.11-5.38-3.43-3-2.36-5.61-5.2-8.62-7.57-1.67-1.31-3.66-2.18-5.38-3.43-1.32-1-2.85-1.78-3.71-3.15a3.14,3.14,0,0,1,.05-2.66A4.08,4.08,0,0,1,42,84.93c5-3.23,10.24-6,15.19-9.21a4.5,4.5,0,0,0,1.85-2,4.72,4.72,0,0,0,0-3.06,4.31,4.31,0,0,0-1.66-1.76c-.83-.62-1.66-1.55-2.69-1.55s-1.87.92-2.69,1.55-1.63,1.86-2.62,2.57c-2.73,2-5.3,4.44-8.5,5.48-.86.28-1.25-1.36-1.55-2.21a3.68,3.68,0,0,1,0-2.08c.08-.38.69-.55.69-.94,0-1.06-.85-2-.7-3.09.19-1.4,1.34-2.53,1.69-3.9.07-.3-.81-.64-.52-.75,2.77-1,5.79-1.27,8.59-2.25a24.28,24.28,0,0,0,4.28-2.25,44.06,44.06,0,0,0,6-4c.75-.64.93-1.74,1.55-2.5s1.07-2,1.79-1.61c1.6.84,2.5,2.67,3.35,4.27a2.3,2.3,0,0,1,0,2.06c-.22.41-.87.49-1.34.44-.72-.08-1.32-.92-2-.79A4.75,4.75,0,0,0,59.91,59a10,10,0,0,0-2.55,4.72c-.14,1,.73,2,1.51,2.63a7.84,7.84,0,0,0,3.78,1.67c.63.09,1.21-.47,1.67-.9.68-.63.93-1.67,1.68-2.21,1.08-.79,2.52-1,3.65-1.69a3.32,3.32,0,0,0,1.57-1.57c.92-2.83.72-6,1.76-8.74.61-1.62,2.58-2.51,3.07-4.17a10.93,10.93,0,0,0,0-6.08c-.38-1.27-2.51-1.65-2.65-3-.11-1,1.47-1.48,2.08-2.31a7.62,7.62,0,0,0,1.58-2.64,6.47,6.47,0,0,0,0-4.08c-.76-1.63-2.86-2.35-3.7-3.94a4.85,4.85,0,0,1,0-3.06c.06-.38.68-.55.69-.94,0-.71-.64-1.32-.64-2,0-.4.71-.64.63-1A11.44,11.44,0,0,0,72.44,16a8.57,8.57,0,0,0-2.06-2.06,9.56,9.56,0,0,0-2.64-1.57c-.81-.28-2,.45-2.55-.2-1.43-1.71-1.58-4.19-2.7-6.11A4.39,4.39,0,0,0,60.39,4,74.24,74.24,0,0,0,48.75,1.35a2.43,2.43,0,0,0-1.54.37C46.62,2,46.35,3,45.69,3s-.78-.82-1.28-1A16.06,16.06,0,0,0,39.68.23a35.16,35.16,0,0,0-9,.13A5,5,0,0,0,28,1.91c-.72.71-.69,2.15-1.61,2.56-2.93,1.33-6.26,1.47-9.33,2.4A4.45,4.45,0,0,0,15,7.93c-1.51,1.64-2.33,3.86-3.9,5.43C10,14.5,8.19,14.81,7,15.91c-1.79,1.71-3.81,3.46-4.68,5.78s-.31,4.69-.14,7c0,.71,1,1.33.79,2-.47,1.24-1.9,1.88-2.65,3a1.8,1.8,0,0,0-.14,1c0,2.68-.53,5.44.14,8C.67,44,2.27,44.61,3,45.69a1.51,1.51,0,0,1,.12,1,4.07,4.07,0,0,1-.47,1.48C2,49.41.74,50.33.33,51.67a6.69,6.69,0,0,0,0,4.08c.33,1,1.5,1.45,2.13,2.28s.81,1.7,1.43,2.38c1.2,1.31,2.89,2.14,4,3.53.2.25-.64.5-.53.81a10.59,10.59,0,0,0,1.79,2.94A7.79,7.79,0,0,0,11,69.51c1.6,1,3.54,1.52,5.06,2.67.25.19-.09.7-.36.87a1.31,1.31,0,0,1-1.08,0c-1.34-.46-2.51-1.39-3.88-1.73a7.32,7.32,0,0,0-3.09,0,3,3,0,0,0-1.61.92C5.37,73.08,4.52,74,4.51,75A3.3,3.3,0,0,0,6,77.5c1.59,1.15,3.65,1.48,5.37,2.43,2,1.13,3.8,2.71,5.85,3.8a85.19,85.19,0,0,0,11.41,5.35c.68.23,1.35-.79,2.06-.66s1,.75,1.35,1.27a1.88,1.88,0,0,1,.13,1c0,1.34.49,2.83-.13,4s-2.3,1.33-3.16,2.31-1,2.33-1.77,3.3c-.64.79-1.86,1-2.4,1.87-.35.55.37,1.45,0,2-3.1,4.16-7,7.68-10.21,11.74-.15.19.5.36.41.58a12.5,12.5,0,0,1-1.81,2.87c-.45.59-1.29.88-1.6,1.55-.14.28.53.48.51.79s-.53.6-.65,1a1.26,1.26,0,0,0,0,1.06A13.54,13.54,0,0,0,14,126.5,6.81,6.81,0,0,0,16.66,128c.4.1.65-.73,1.06-.65,1.39.29,2.51,1.45,3.91,1.69.71.12,1.47-1.07,2.06-.66s.62,1.59.35,2.33c-.6,1.63-1.11,4-2.81,4.39-2.81.65-5.63-1.31-8.48-1.79a3.8,3.8,0,0,0-2.09,0A4.9,4.9,0,0,0,8.9,135c-.62.82-1.57,1.65-1.55,2.69A3.77,3.77,0,0,0,9,140.53a19.5,19.5,0,0,0,7.6,3.56M29.42,79.94h0c-1.24-.57-2.53-1-3.72-1.71-1.79-1-5.48-1.22-5.2-3.24s4.21-1.35,6-2.6A3.57,3.57,0,0,0,28,69.72a3.2,3.2,0,0,0-1.53-2.66c-3.18-1.75-7-2-10.19-3.79-.49-.27.65-1,.72-1.52a2.5,2.5,0,0,0-.34-1.51A3.16,3.16,0,0,0,15.43,59c-1.42-.69-3.14-.71-4.49-1.54a10.75,10.75,0,0,1-3.25-3.26A1.11,1.11,0,0,1,8,52.94a8.58,8.58,0,0,1,2.63-1.58,1.14,1.14,0,0,1,1.09,0c2.24,1.87,4,4.29,6.28,6.13a22.29,22.29,0,0,0,5,3c2.43,1.08,5.23,1.26,7.54,2.59A4,4,0,0,1,32,65.69c.09.39-.57.61-.68,1a5,5,0,0,0-.13,2c.18,1,.87,2,1,3a45.44,45.44,0,0,1,0,7c0,.47,0,1.15-.45,1.34m11.05-24h0c-3.05,0-6.12.37-9.14,0a18.84,18.84,0,0,1-4.89-1.66A15.56,15.56,0,0,1,25,52.51a24,24,0,0,1-5.1-5.11,30.78,30.78,0,0,1-3.54-7.65c-.13-.38.65-.63.63-1,0-.72-.73-1.29-.79-2a18.93,18.93,0,0,1,.12-6.06A40.79,40.79,0,0,1,19.94,22c1.13-2.16,2.26-4.46,4.09-6.08a13.93,13.93,0,0,1,5.62-2.52c.39-.11.62.58,1,.68a3.77,3.77,0,0,0,2,.13c1.4-.4,2.52-1.62,4-1.84a35.15,35.15,0,0,1,9-.13,19.05,19.05,0,0,1,4.73,1.67,10,10,0,0,1,2.91,1.4A14.59,14.59,0,0,1,56.44,19c1.44,2.43,3,4.91,3.61,7.67.66,2.94.3,6,.12,9,0,.71-.75,1.28-.78,2,0,.4.7.64.63,1a22.82,22.82,0,0,1-1.63,4.91,16,16,0,0,1-1.91,3.73,16.72,16.72,0,0,1-4.11,4.11M6.64,36.4h0c.45.1,1.13-.1,1.35.31s-.65.59-.65,1c0,.71.61,1.3.7,2s.58,2.21-.16,2.24C7,42,6.65,40.6,6.33,39.77a4.41,4.41,0,0,1-.13-2.05m22-6h0a24.18,24.18,0,0,0,2.49,2.37,1.77,1.77,0,0,0,1,.13c1.34,0,2.75.3,4-.13a4.68,4.68,0,0,0,2-1.87,3,3,0,0,0,.48-1.48,5.92,5.92,0,0,0-.11-2.06A29,29,0,0,0,36.42,24a1.82,1.82,0,0,0-1-1,31.44,31.44,0,0,0-6.73-1.62c-.45,0-.8.48-1,.86a2.35,2.35,0,0,0-.47,1.48c.06.71.74,1.29.77,2,0,.39-.58.59-.66,1a8.82,8.82,0,0,0-.13,3m1,17h0c.26.25.44.62.78.76,2.53,1,5,2.43,7.74,2.61a5.65,5.65,0,0,0,4-1.84c.61-.59.5-1.65.51-2.51a2.83,2.83,0,0,0-.48-1.48c-.23-.37-.54-.84-1-.86-.72-.05-1.35.81-2.06.67A33.07,33.07,0,0,1,30,41.47c-.93-.44-1.34-1.63-2.26-2.1a3.62,3.62,0,0,0-2-.13,3.36,3.36,0,0,0-1.48.48,1.87,1.87,0,0,0-.87,1,3.1,3.1,0,0,0,0,2.06A5.22,5.22,0,0,0,25,44.5m38.36,5.23h0c.22,0,.61-.25.66,0,.11.44.12,1.3-.33,1.33m1-2h0c-.08-.19-.28-.38-.23-.58A29.29,29.29,0,0,1,66,44a1,1,0,0,1,.7-.59,2.1,2.1,0,0,1,1.33.16,4.79,4.79,0,0,1,2.09,1.55,1.69,1.69,0,0,1,0,1.66,5.44,5.44,0,0,1-2.33,2.32m0-13h0a5,5,0,0,1-.49-1.32,6.11,6.11,0,0,1,.14-3,1.08,1.08,0,0,1,1.37-.31c1,.53,2.27,1.25,2.27,2.34s-1.39,1.71-2.28,2.34M50.64,33.37h0a6.71,6.71,0,0,0,1.53-.65c.72-.55,1.6-1.11,1.87-2a6.78,6.78,0,0,0,0-4.06A7.75,7.75,0,0,0,51.39,23c-1.32-1-3.06-1.19-4.64-1.6-.55-.14-1.23-.35-1.7,0a4.54,4.54,0,0,0-1.68,2.37c-.12.38.54.62.66,1a1.67,1.67,0,0,1,0,1.06c-.13.37-.61.56-.69.94a3.77,3.77,0,0,0,0,2.08,11.32,11.32,0,0,0,1.94,3.58,5.71,5.71,0,0,0,2.36,1.73,3.59,3.59,0,0,0,2.08,0M66.88,23.93h0a29.17,29.17,0,0,1-2.55-4.16,1.21,1.21,0,0,1,.33-1.39c.44-.25,1.06.09,1.51.34a1.54,1.54,0,0,1,.87,1"/></g></g></svg>