<svg xmlns="http://www.w3.org/2000/svg" viewBox="0 0 120.71 35.34"><defs><style>.cls-1{fill:#6e6f77;}</style></defs><g id="Layer_2" data-name="Layer 2"><g id="Layer_1-2" data-name="Layer 1"><path class="cls-1" d="M51.36,12.16h0c-5.17.71-10.38,1.11-15.5,2.12-.3.07-.17.73.07.93,1,.83,2.33,1.17,3.38,1.94a3.08,3.08,0,0,1,1.33,1.53c.11.39-.69.63-.63,1a27,27,0,0,0,1.89,7.42c.21.44,1,.12,1.47-.12s1.34-.75,1.31-1.38c-.1-2.05-1.37-3.9-1.67-5.93-.06-.4.63-.63.63-1s-.52-.61-.64-1-.23-.79,0-1.05a1.91,1.91,0,0,1,1.34-.46c1.34-.08,2.92-.63,4,.15.65.46-.45,1.54-.51,2.34A8.43,8.43,0,0,0,48,21.73a8.62,8.62,0,0,0,2,3.59A12.07,12.07,0,0,0,54.29,28a5.32,5.32,0,0,0,3.11,0A7.89,7.89,0,0,0,60,26.46c.64-.49,1.42-1,1.66-1.76a2.43,2.43,0,0,0-.32-2.37c-.48-.48-1.41-.24-2,0-.35.13-.28.73-.55,1A8.17,8.17,0,0,1,56.4,25a2.87,2.87,0,0,1-2.08,0,5.08,5.08,0,0,1-1.76-1.66A10,10,0,0,1,51,20.73a5.22,5.22,0,0,1-.12-2.05,3.07,3.07,0,0,1,.3-1.31c.42-.76.74-1.77,1.55-2.09a7.21,7.21,0,0,1,3.66,0c.7.11,1.27.75,2,.82.46.05,1.24,0,1.3-.46a3.21,3.21,0,0,0-.87-2.55,7.4,7.4,0,0,0-3.37-1.82,6.55,6.55,0,0,0-3.08,0m14,22.86h0a42.37,42.37,0,0,1,5,0c1,.13,2,.89,3,1a68,68,0,0,0,10,0c10.33-.75,20.65-1.76,30.94-3A8.38,8.38,0,0,0,119,31.1a3.86,3.86,0,0,0,1.72-2.43c.16-1-.7-1.94-.85-3-.78-5-1.07-10.08-1.94-15.06A48.37,48.37,0,0,0,116,3.77c-.21-.66-.27-1.7-.94-1.83A122.77,122.77,0,0,0,98.39.33c-.41,0-.64.64-1,.64s-.61-.62-1-.59c-.71,0-1.28.76-2,.76s-1.28-.72-2-.76c-.38,0-.61.62-1,.59-.71,0-1.28-.76-2-.78q-16.49-.37-33,0c-.72,0-1.27.72-2,.84a25.78,25.78,0,0,1-4,.15,15.22,15.22,0,0,1-3-.15c-.39-.08-.59-.65-1-.65s-.59.57-1,.65a9.29,9.29,0,0,1-3,.13C41.62,1.06,41,.3,40.3.33,34,.59,27.71,1.7,21.39,2c-.43,0-.66-.74-1.09-.68A136.75,136.75,0,0,0,6.38,3.88a33,33,0,0,0-5.71,2,1,1,0,0,0-.62.8c0,.38.64.58.64,1C.68,8.37,0,9,0,9.72c.33,4.35,1.37,8.62,1.83,13a10.2,10.2,0,0,1-.13,3c-.11.54-1.16,1.08-.77,1.45,1.19,1.11,3.22.93,4.44,2,.41.35-.46,1-.37,1.55a3.86,3.86,0,0,0,1,1.69,2.06,2.06,0,0,0,1,.7c3.76.84,7.54,1.61,11.36,2.07a27.26,27.26,0,0,0,6,0c.71-.07,1.29-.74,2-.78.39,0,.61.59,1,.59s.62-.62,1-.59c.72,0,1.29.76,2,.76s1.29-.77,2-.76,1.29.72,2,.78c2.32.21,4.66,0,7,0a28.48,28.48,0,0,0,4-.15c.39-.06.58-.64,1-.65s.61.59,1,.59.62-.62,1-.59c.72,0,1.29.73,2,.78a61.31,61.31,0,0,0,9,0c.71,0,1.27-.74,2-.84m1-31.14h0c2.35,0,4.7.2,7,0,.73-.07,1.31-.85,2-.83C81,2.6,90.65,3.68,100.3,4c.41,0,.64-.66,1-.64.72,0,1.29.71,2,.78a22.2,22.2,0,0,0,5-.13c.4-.06.61-.76,1-.68,1.29.23,2.83.49,3.64,1.53,1.2,1.51,1.45,3.59,1.88,5.47a69.07,69.07,0,0,1,1.78,10.28c.06.73-.83,1.31-.81,2.05,0,1.05.82,2,1,3a9.29,9.29,0,0,1-.14,3,.85.85,0,0,1-.59.69,207.7,207.7,0,0,1-20.76,2.77c-8.32.5-16.67.26-25,0-.72,0-1.28-.67-2-.84a6.54,6.54,0,0,0-2-.13c-8.34.57-16.67,1.4-25,2a28,28,0,0,1-4,0c-7.84-.6-15.72-.92-23.49-2.09-.47-.07,0-1,.13-1.42s.71-.56.7-.95c0-1-.76-2-.83-3,0-.78-.29-2.16.48-2.3s1,1.37,1.58,1.94A8.17,8.17,0,0,0,18.29,27a2.92,2.92,0,0,0,2.08,0c.59-.24,1.69-.83,1.35-1.37-1-1.59-3.1-2.14-4.38-3.5A1.56,1.56,0,0,1,17,20.65a4.79,4.79,0,0,1,1.65-1.76c.73-.57,1.68-.83,2.38-1.43,1-.82,2.22-1.57,2.61-2.78.19-.59-.74-1-1.27-1.35a1.14,1.14,0,0,0-1.05,0c-1.53.9-2.82,2.14-4.28,3.13a20,20,0,0,1-2.67,1.59c-.21.09-.58.18-.69,0-1-2-1.63-4.12-2.61-6.1a1,1,0,0,0-.7-.6c-.47-.06-1.22-.12-1.37.32a9.08,9.08,0,0,0-.14,4c.12,1,.93,2,1,3s-1,1.73-.83,2.64,1.67,1.34,1.85,2.31a16.52,16.52,0,0,1-.14,7.07,1.29,1.29,0,0,1-1.85.41A9.38,9.38,0,0,1,7,26.71c-.09-.39.63-.63.63-1s-.6-.62-.6-1,.72-.63.6-1a2.14,2.14,0,0,0-1.29-1.29c-.31-.11-.51.6-.82.51S5,22.33,4.89,22a77.56,77.56,0,0,1-2-11.28A4.7,4.7,0,0,1,4,8a1.86,1.86,0,0,1,1.18-.77Q12.41,5.83,19.77,5c6.49-.74,13-1.44,19.51-1.67,1.06,0,2,.78,3.07.85,3.32.22,6.66,0,10,0a8.6,8.6,0,0,0,2-.14c.69-.17,1.27-.76,2-.84m-23,25h0c.12-.51.49-1,.37-1.53s-.92-.68-1-1.19c-.81-3-.91-6.24-1.74-9.28-.28-1-.61-2.3-1.56-2.8-.55-.29-1,.75-1.35,1.27a1.54,1.54,0,0,0-.12,1c.59,3.82,1.06,7.67,2,11.41A2.65,2.65,0,0,0,31.32,29m37-9.87h0a61.22,61.22,0,0,0-2.3-6.24c-.2-.4-1-1.07-1.15-.66A30.65,30.65,0,0,0,63,20.71c0,.53.87.71,1.06,1.21.7,1.78.67,3.82,1.56,5.51.29.55,1.11.66,1.72.71s1.12,0,1.35-.44a3.06,3.06,0,0,0,0-2.05c-.09-.38-.6-.57-.71-.95S67.6,23.47,68,23c.7-.87,2.06-2.59,2.83-1.78,1.91,2,1.57,5.35,2.88,7.79.2.38,1,.29,1.31,0a5,5,0,0,0,1.69-2.37c.1-.3-.68-.23-.76-.53C74.69,22,74,17.71,72.85,13.53c-.13-.48-.55-1.71-.79-1.27-1.16,2.12-1.14,4.75-2.28,6.88m6.4-.77h0c-.07,1.46-.58,3-.2,4.36a12.72,12.72,0,0,0,2.7,4.75A6.44,6.44,0,0,0,81.29,29a1.72,1.72,0,0,0,1.12,0,35,35,0,0,0,4.68-1.63A6.17,6.17,0,0,0,89,26.1a9.34,9.34,0,0,0,1.72-2.37c.16-.32.29-.9,0-1.08a2.87,2.87,0,0,0-2.36-.33c-1,.37-1.38,1.56-2.25,2.1-1.14.71-2.38,1.83-3.69,1.58s-2.18-1.75-3-2.85c-.2-.26-.27-.88,0-1,2.49-.89,5.19-1.09,7.74-1.78.19-.05.59-.34.41-.43-2.11-1.08-4.44-1.67-6.57-2.72-.16-.08-.07-.37,0-.53a1.75,1.75,0,0,1,.66-.78A11.77,11.77,0,0,1,84.14,15c2.31-.61,4.75-.75,7-1.62a2.31,2.31,0,0,0,1.53-1.71c.06-.62-.73-1-1.27-1.35a1.62,1.62,0,0,0-1.09,0,72,72,0,0,0-8.21,1.82A8.15,8.15,0,0,0,78.53,14m29.2,4.66h0c-.56,1.16-.52,4-1.68,3.48-2.2-1-2.46-4.21-3.92-6.16a24.67,24.67,0,0,0-2.79-2.81c-.31-.3-.56-.74-1-.86-.78-.22-2.22-.91-2.43-.13A74.44,74.44,0,0,0,94,28.71c0,.46.87.48,1.33.43.64-.06,1.52-.17,1.76-.76,1.33-3.21-.23-8.22,2.72-10.06,2-1.25,2.38,4.11,3.74,6.05a13.16,13.16,0,0,0,1.78,1.8c.31.3.56.74,1,.86.79.22,2.22.89,2.47.11,1.75-5.62,2.13-11.57,2.92-17.4a2.2,2.2,0,0,0-.36-1.54c-.3-.4-.85-.88-1.3-.7a3.49,3.49,0,0,0-2.19,2.13"/></g></g></svg>