<svg xmlns="http://www.w3.org/2000/svg" viewBox="0 0 224.99 43.3"><defs><style>.cls-1{fill:#6e6f77;}</style></defs><g id="Layer_2" data-name="Layer 2"><g id="Layer_1-2" data-name="Layer 1"><path class="cls-1" d="M84.75,27.72h0a7.4,7.4,0,0,1-.84-2,21.09,21.09,0,0,1,0-6c.26-1.43,1.68-2.53,1.81-4a1.4,1.4,0,0,0-1.32-1.33c-.85.09-1.21,1.25-2,1.65-.47.25-1.21-.16-1.58.23A8.39,8.39,0,0,0,79,19.66a6.73,6.73,0,0,0-.13,3.06,51.3,51.3,0,0,0,1.88,7.08,4.59,4.59,0,0,0,1.1,1.9,2.32,2.32,0,0,0,1.51.51c.8,0,1.8.12,2.34-.46s.17-1.39,0-2.05M75.35,7.22h0c2.34,0,4.7.21,7,0,.71-.07,1.26-.8,2-.83s1.32.64,2,.64c.39,0,.6-.55,1-.65a8.11,8.11,0,0,1,2-.15,7.67,7.67,0,0,1,2,.15c.39.11.6.72,1,.69,7-.36,14-1.33,21-1.82a11.75,11.75,0,0,1,3,.13c.38.08.58.67,1,.65.72,0,1.29-.74,2-.78a120,120,0,0,1,13,0c.71,0,1.28.66,2,.83a8.61,8.61,0,0,0,2,.15,68.1,68.1,0,0,0,7,0c.71-.07,1.28-.75,2-.79.39,0,.6.56,1,.65a4.81,4.81,0,0,0,2,.14c.7-.13,1.28-.67,2-.84a9.17,9.17,0,0,1,2-.15c6,0,12-.22,18,0,.71,0,1.28.74,2,.78.39,0,.61-.62,1-.6.71,0,1.29.77,2,.77s1.29-.74,2-.77c.39,0,.6.53,1,.65a1.82,1.82,0,0,0,1.06,0c.37-.13.55-.68.94-.69.71,0,1.32.63,2,.64.39,0,.61-.6,1-.6s.61.6,1,.6.61-.6,1-.6.61.63,1,.6c.72,0,1.29-.77,2-.78,9-.2,18-.11,27,.13a.85.85,0,0,1,.71.61c.84,3,1.47,6.08,2,9.16q1,5.73,1.62,11.52c.16,1.49,1.53,4,.1,4.49-8.48,2.7-17.58,2.94-26.43,3.91-.73.08-1.31-.83-2-.81-1,0-1.95.93-3,1-11.66.29-23.33.26-35,0-.71,0-1.28-.67-2-.84a7.61,7.61,0,0,0-2-.13c-20.71.59-41.42,1-62.11,2-14.64.67-29.22,2.16-43.86,2.87-.41,0-.61-.63-1-.7a15.48,15.48,0,0,0-4-.13c-5.36.49-10.66,1.47-16,2a19.6,19.6,0,0,1-4.05-.12c-3.93-.44-7.85-.93-11.73-1.67-.28-.05-.46-.4-.55-.67a1.87,1.87,0,0,1,0-1c.19-.69.76-1.27.83-2a36.28,36.28,0,0,0,0-7c-.42-4-1.53-8-2-12a34.24,34.24,0,0,1,0-6c0-.48,0-1.37.5-1.33,1.12.1,1.86,1.38,2.95,1.65.41.1.65-.69,1.07-.67,5.34.33,10.61,1.75,16,1.7,4.44,0,8.76-1.49,13.18-2,6.91-.75,13.84-1.4,20.78-1.73.41,0,.63.56,1,.69a1.91,1.91,0,0,0,1.06,0c.69-.19,1.26-.79,2-.83m37,23h0a13.4,13.4,0,0,0,3,1.87,6.5,6.5,0,0,0,3.07,0,1.14,1.14,0,0,0,.74-.64,12.31,12.31,0,0,0,.9-2.51,72.68,72.68,0,0,0,1.71-7.14,8,8,0,0,0,0-3.12A13.65,13.65,0,0,0,108.14,15,7,7,0,0,0,106,12.32c-.75-.44-1.75-.16-2.63-.08-.47,0-1.15,0-1.34.45a3.27,3.27,0,0,0-.06,2.67c.41.83,1.6,1,2.21,1.7s1.58,1.6,1.55,2.61c-.1,2.57-.41,5.39-1.91,7.47-.55.77-1.67-1-2.24-1.73-1-1.33-1.4-3.06-2.42-4.37a28,28,0,0,0-4.31-4.32,2.42,2.42,0,0,0-1.48-.47c-.47,0-1.16,0-1.34.44a5.75,5.75,0,0,0-.14,3c.09.71.69,1.27.83,2a15.22,15.22,0,0,1,.15,3,7.24,7.24,0,0,1-.15,2c-.11.38-.63.56-.7.95a5.74,5.74,0,0,0,0,3.05c.17.44.87.41,1.34.46a5.7,5.7,0,0,0,2-.14,1.19,1.19,0,0,0,.71-.61c.63-1.26.14-3.84,1.54-3.93M72.41,28.26h0c-.45-.5-1.24-.84-1.37-1.51-.36-1.86-1.24-4.23,0-5.7,1.82-2.2,5.39-2.05,7.76-3.66.46-.31.18-1.12.1-1.67s0-1.36-.51-1.33c-2,.11-3.87,1.44-5.91,1.7-.71.09-1.33-.59-2-.72a4.19,4.19,0,0,0-2.08,0c-1.06.37-1.88,1.25-2.9,1.72a1.88,1.88,0,0,1-1,.11A3.11,3.11,0,0,1,63,16.72c-1-.68-1.54-1.83-2.58-2.36a3.18,3.18,0,0,0-2.11,0c-3.25.71-6.65,1.17-9.65,2.6A3.23,3.23,0,0,0,47,19.74c0,2.64,1,5.18,1.61,7.76a1.86,1.86,0,0,0,.34.9,3.48,3.48,0,0,0,1.35.88c2,.72,3.95,1.92,6,1.8,2.38-.15,4.5-1.58,6.67-2.56a1.14,1.14,0,0,0,.67-.77c.08-.46.13-1.22-.31-1.37a9.11,9.11,0,0,0-4-.14c-.71.08-1.27.7-2,.83a11,11,0,0,1-3,.14,2.7,2.7,0,0,1-1.48-.49c-.45-.35-1.44-1.16-.94-1.44,2.76-1.56,6.2-1.59,9-3.11.92-.51.61-2.48,1.65-2.71A3.54,3.54,0,0,1,66.15,21c1.64,2.93,1.45,6.6,2.74,9.7.2.49,1,.45,1.5.51a3.39,3.39,0,0,0,2-.14c.4-.25.44-.88.44-1.35m-2.51,11.5h0c20.33-.95,40.65-2.19,61-2.84.73,0,1.31.75,2,.83a50,50,0,0,0,6,0,8.11,8.11,0,0,0,2-.15c.37-.1.58-.64,1-.65s.6.53,1,.65a2,2,0,0,0,1.06,0c.69-.19,1.26-.81,2-.83q12.5-.39,25,0c.71,0,1.26.79,2,.83s1.32-.65,2-.65c.39,0,.59.6,1,.65a24.09,24.09,0,0,0,5,.14c9.67-.77,19.29-2.14,29-2.83.42,0,.66.71,1.08.68a73.66,73.66,0,0,0,12.75-1.64c.6-.15.62-1.09.7-1.7a17.75,17.75,0,0,0,0-4c-.74-6.65-1.5-13.3-2.66-19.88a35.12,35.12,0,0,0-2-6.79A2.18,2.18,0,0,0,219.12,2,15.29,15.29,0,0,0,214.38.24a53.77,53.77,0,0,0-10,0c-.71,0-1.28.66-2,.83a8.11,8.11,0,0,1-2,.15,23.59,23.59,0,0,1-4-.15c-.4-.06-.6-.7-1-.69-31,.33-61.93,1.37-92.9,1.71-.72,0-1.34-.66-2.06-.67-.39,0-.6.53-1,.65a1.82,1.82,0,0,1-1.06,0c-.38-.13-.6-.71-1-.69-6.66.32-13.26,1.35-19.92,1.68-.4,0-.63-.63-1-.64s-.61.6-1,.6-.61-.61-1-.6-.6.53-1,.65a1.91,1.91,0,0,1-1.06,0c-.37-.12-.58-.65-1-.65s-.6.53-1,.65a1.82,1.82,0,0,1-1.06,0c-.38-.13-.6-.71-1-.69-10.87.67-21.71,1.7-32.55,2.76-2.16.22-4.25,1-6.42,1.07-7,.27-14,.25-21,0-.71,0-1.27-.69-2-.84a4.77,4.77,0,0,0-2.06,0c-.38.09-.57.57-.94.7s-1.22-.2-1.53.21A9.19,9.19,0,0,0,0,10.66c-.2,1.92.67,3.81.83,5.73.73,8.7,1,17.44,1.84,26.14,0,.28.39.49.67.54a5.06,5.06,0,0,0,2.05,0c.7-.14,1.26-.76,2-.83a65.38,65.38,0,0,1,7,0,18,18,0,0,1,3,.15c.7.14,1.26.77,2,.84a21.71,21.71,0,0,0,5-.14c.71-.09,1.27-.71,2-.83a5,5,0,0,1,2,.13c.69.17,1.26.81,2,.82s1.29-.74,2-.77c.39,0,.6.53,1,.64a2.67,2.67,0,0,0,1.09,0c6.32-.58,12.61-1.52,18.95-1.85M10.85,34.73h0a19.16,19.16,0,0,0,1.91-3.95,16.13,16.13,0,0,0,.12-5.05c-.08-.73-.9-1.31-.82-2s.49-2.41,1.33-2.22c1.07.24.87,2.05,1.58,2.88a5.66,5.66,0,0,0,2.37,1.73,1.83,1.83,0,0,0,1.53-.36c1.44-1,2.41-4.2,4-3.42,2,1,1.61,4.18,1.89,6.38.09.73-.77,1.31-.82,2.05s-.27,2.13.5,2.32c1,.24,1.85-.92,2.67-1.54a4.9,4.9,0,0,0,1.66-1.76,3.39,3.39,0,0,0,0-2.09A78.71,78.71,0,0,0,26.24,19a9.24,9.24,0,0,0-1.82-3.62c-.37-.36-1.09,0-1.51.34A12,12,0,0,0,20.61,18c-.75.91-1,3.48-2,2.9-2.08-1.2-2.28-4.24-3.69-6.18a8.19,8.19,0,0,0-2.49-2.38c-.5-.28-1.5-.55-1.73,0A41.19,41.19,0,0,0,8,22.66c-.43,3-.12,6-.13,9.06,0,.55-.22,1.2.1,1.64a6.17,6.17,0,0,0,2.38,1.69m117.34-1.28h0a11.53,11.53,0,0,1-.79-3.05c0-1,.83-2,1-3a11.25,11.25,0,0,0-.13-4A7.75,7.75,0,0,0,126.18,21a4.87,4.87,0,0,0-1.76-1.65,1.83,1.83,0,0,0-1.51.34c-1.59,1-2.89,2.38-4.49,3.34-.3.18-1,.34-1,0-.16-1.61-.27-3.45.58-4.83s3.47-1,3.92-2.48c.33-1.08-1.39-1.93-2.43-2.38a4.41,4.41,0,0,0-3.08,0A3,3,0,0,0,114.67,15a33.54,33.54,0,0,0-1.76,6.77,4.31,4.31,0,0,0,.11,2.05c.7,2.25,1.12,4.72,2.55,6.59.84,1.1,2.43,1.4,3.79,1.68.39.08.61-.57,1-.68s1.17-.4,1.59-.07c.88.71.93,2.22,1.89,2.84.71.47,1.7.15,2.55.07m-92-1.15h0a20.18,20.18,0,0,0,4.11,0,14.62,14.62,0,0,0,3.67-1.62A7.61,7.61,0,0,0,44,30.15c.65-.66,1.78-1.33,1.63-2.24a2.19,2.19,0,0,0-2.26-1.53c-1.85.31-3.16,2.11-5,2.7a3.88,3.88,0,0,1-3.08,0c-.59-.36-1-1.72-.34-2,2.8-1.48,6.14-1.59,9.15-2.6a1,1,0,0,0,.56-.68c.11-.34.23-.79,0-1.06a2,2,0,0,0-1.34-.45,36.43,36.43,0,0,0-6,0c-.71.07-1.29.88-2,.78s-1-.74-1.35-1.27c-.19-.31-.36-.81-.12-1.09A6.28,6.28,0,0,1,36.39,19a26.88,26.88,0,0,1,6-1.64c.4-.06.63.55,1,.68s.8.22,1.06,0a1.82,1.82,0,0,0,.44-1.34c0-.47,0-1.29-.44-1.34a45.51,45.51,0,0,0-12.06,0c-1.08.18-1.89,1.32-2.32,2.33a5.54,5.54,0,0,0,0,3.05c.11.7.82,1.26.82,2s-.94,1.32-.8,2a26.12,26.12,0,0,0,2.58,6.68m116.73-.24h0c.85-1.64,1.6-3.34,2.54-4.93.07-.11.28,0,.41,0a7.2,7.2,0,0,1,2.13.13c2,.72,3.8,2.16,5.89,2.72a7.74,7.74,0,0,0,4.08,0c.84-.23,1.13-1.67,2-1.67,1.12,0,1.81,1.48,2.92,1.68a13.42,13.42,0,0,0,6.08,0,3.54,3.54,0,0,0,2.32-2.32,11.93,11.93,0,0,0,0-6.08c-.42-1.66-1.66-3-2.69-4.39a4.82,4.82,0,0,0-2-2,6.16,6.16,0,0,0-3.68,0A3.83,3.83,0,0,0,167.6,16a14.93,14.93,0,0,0-1.8,3.51c-.73,2.09.35,5.47-1.64,6.43s-4.39-1.53-6.49-2.51c-.3-.14-.73-.48-.6-.78.63-1.47,2.46-2.41,2.65-4s-.76-3.28-1.6-4.71a5.88,5.88,0,0,0-2.7-2.61,5.85,5.85,0,0,0-4.06,0A5.11,5.11,0,0,0,148.63,14a27.85,27.85,0,0,0-2.6,9.71A17.25,17.25,0,0,0,148,31.18m64.4-1.13h0a5.49,5.49,0,0,0,1.52-.32,1.56,1.56,0,0,0,.87-1,17.92,17.92,0,0,0,.14-6,31.92,31.92,0,0,0-3.07-8.64c-.45-.86-1.52-2.14-2.39-1.69-1.71.89-2,3.35-3.39,4.68-.28.28-.81-.12-1.12-.36-.92-.68-1.49-1.8-2.49-2.35a3.57,3.57,0,0,0-2-.13c-.53.06-1.27,0-1.52.52a19.65,19.65,0,0,0-1.81,5.92c-.07.4.55.63.67,1a1.64,1.64,0,0,1,0,1.05c-.13.37-.59.57-.69.95a7.2,7.2,0,0,0-.15,2,5.26,5.26,0,0,0,.14,2.06,5,5,0,0,0,1.73,2.34c.57.37,1.79.71,2.05.08,1.23-3.06.23-6.84,1.83-9.72.51-.91,1.75,1.17,2.7,1.6a1.88,1.88,0,0,0,1,.11,4.07,4.07,0,0,0,1.48-.47c.7-.39,1.58-2.15,1.94-1.43,1.44,2.87,1.25,6.3,2.06,9.4M188.66,29h0c1.7-.86,4.11-.94,5.12-2.57s.47-3.86,0-5.68c-.4-1.44-1.6-2.53-2.56-3.67a9,9,0,0,0-2.76-2.66,5.31,5.31,0,0,0-3.06,0c-.38.07-.57.57-.94.7s-1.24-.18-1.58.23A24.64,24.64,0,0,0,179,21.67a4.94,4.94,0,0,0,0,3.11,4.46,4.46,0,0,0,1.64,2.7,16.84,16.84,0,0,0,5.66,1.61m-67.39-1.35h0c-.3-.33-.83-.55-.9-1a3.07,3.07,0,0,1,.34-2.33c.25-.3.59.66,1,.65,1-.05,2-.73,3-.82.46,0,1.57.09,1.3.47a13.28,13.28,0,0,1-3.83,3M172.39,26h0c-1.11-.76-2.63-1.14-3.35-2.28-.55-.87-.27-2.09,0-3.09s.43-3.14,1.61-3.14c1.48,0,2.52,1.82,3.1,3.18a6.52,6.52,0,0,1,0,4.05m14.7.31h0a6.51,6.51,0,0,1-2.11,0A8.21,8.21,0,0,1,183,23.27c-.37-.38-.19-1.12.07-1.58a12.44,12.44,0,0,1,2.72-3.36,1,1,0,0,1,1.27,0,14.44,14.44,0,0,1,2.72,4.34,1.94,1.94,0,0,1-.36,1.53M51.05,20.75h0c3.09-1.13,6.09-2.56,9.28-3.39a3.15,3.15,0,0,1,2.36.35c.26.17-.27.62-.56.74a31.52,31.52,0,0,1-4,1.15,56.53,56.53,0,0,1-5.72,1.49m101-1h0c-.47-.1-1,0-1.39-.3s-.14-.68-.14-1a4.86,4.86,0,0,1,.13-2c.25-.57.73-1.28,1.35-1.28s1,.75,1.35,1.28a1.49,1.49,0,0,1,.12,1,3.83,3.83,0,0,1-.47,1.48"/></g></g></svg>