<svg xmlns="http://www.w3.org/2000/svg" viewBox="0 0 58.14 112.08"><g id="Layer_2" data-name="Layer 2"><g id="Layer_1-2" data-name="Layer 1"><path d="M22.31,111.78h0c2.74,0,5.53.58,8.23.11a13.74,13.74,0,0,0,5.6-2.56,5,5,0,0,0,1.66-2.78c.11-.4-.67-.65-.65-1.06,0-.8.69-1.46.82-2.25,1.77-10.53,3.44-21.08,4.88-31.66A2,2,0,0,0,42.48,70c-1-1.13-2.92-1.48-3.4-2.89s.78-3.06.88-4.63A2.61,2.61,0,0,0,39.48,61c-.35-.59-1.42-.88-1.34-1.56a34.51,34.51,0,0,1,2.53-8.62c.29-.71,1.17-1,1.6-1.66.92-1.38,1.37-3.07,2.42-4.36,2-2.41,4.74-4.12,6.58-6.64a41.75,41.75,0,0,0,3.91-7.72,31.73,31.73,0,0,0,2.66-6.91,20.78,20.78,0,0,0,0-7.08,1.91,1.91,0,0,0-1.32-1.32c-1-.3-2.23-.6-3,0-2,1.45-3.26,3.71-4.77,5.66-.56.73-.84,1.67-1.43,2.38a22.08,22.08,0,0,1-3.09,3.1,6.93,6.93,0,0,1-2.64,1.57c-.6.13-1.65,0-1.76-.59-1.53-8.5-1.64-17.21-3-25.75A1.92,1.92,0,0,0,35.54.05c-.61-.16-1.57.08-1.76.68-1.23,4-1.13,8.22-2.26,12.19a35.66,35.66,0,0,1-3.25,7.28c-.43.79-.93,2.24-1.8,2-1.13-.3-1.38-1.91-1.82-3-1-2.41-1.49-5-2.44-7.43a1,1,0,0,0-.71-.61,3.07,3.07,0,0,0-2.05,0,6.37,6.37,0,0,0-2.32,2.32,1.5,1.5,0,0,0-.07,1.59c.67.81,2.57.59,2.7,1.63.25,2.11-.16,4.73-1.77,6.11-.88.76-1.65-1.65-2.3-2.62a78.35,78.35,0,0,1-4.57-7.62c-.26-.51.13-1.26-.24-1.69a18.69,18.69,0,0,0-4.4-3.67c-.26-.16-.62.27-.73.56a40.59,40.59,0,0,0-2.64,8.68c-.51,4-.85,8.17,0,12.12C4.51,35,7.26,41.15,9.75,47.27c.76,1.87,2.31,3.34,3.09,5.2.18.43.1,1.24-.35,1.35-.7.17-1.3-.71-2-.78a10.85,10.85,0,0,0-4.06.11A29.09,29.09,0,0,0,.8,55.73a1.63,1.63,0,0,0-.67.77,2.5,2.5,0,0,0-.13,1,8,8,0,0,0,.13,2,1,1,0,0,0,.57.69c3.1,1,6.54,1,9.43,2.47,1.38.71,2.13,2.35,2.7,3.79a4.36,4.36,0,0,1,0,3.06c-.17.44-.87.48-1.34.44-.71-.07-1.29-.78-2-.77a1.92,1.92,0,0,0-1.5.83,10.08,10.08,0,0,0-1.87,4.41A199.9,199.9,0,0,0,6,95.52c0,.71.74,1.28.79,2,0,.39-.6.61-.6,1s.6.61.6,1-.73.64-.62,1c.29,1.08,1.5,1.81,1.68,2.92s-1.17,2.13-.7,3.08a6.18,6.18,0,0,0,3.6,2.7m19.79-2.39h0c-3.35,0-6.71.45-10,.15a29.7,29.7,0,0,1-7.78-1.78,2.74,2.74,0,0,1-1.53-1.71c-.13-.39.69-.64.64-1-.35-2.7-1.84-5.24-1.81-8C10.08,88,8.76,80.67,12.1,75.08c1.48-2.47,5.53,1.65,8.39,1.93a41.13,41.13,0,0,0,10-.13,3.24,3.24,0,0,0,2.32-1.73c.25-.54-.82-1.07-.69-1.66.23-1.1,1.37-1.85,1.64-2.94.1-.39-.61-.6-.66-1s-.1-1.41.37-1.36A6,6,0,0,1,36.9,70c.37.38.16,1.11-.07,1.58-.39.77-1.27,1.19-1.69,1.94a1.46,1.46,0,0,0,0,1.09c.47,1.66,1.28,3.21,1.73,4.88A4.9,4.9,0,0,1,37,81.51c-.55,3.14-1.53,6.19-2.13,9.32-.72,3.76-1,7.6-1.82,11.32a17,17,0,0,1-1.74,4M28.2,72.73h0c-1-.51-2.69-.45-2.91-1.52-.32-1.63,1.35-3.07,1.68-4.7a7.9,7.9,0,0,0-.14-3c-.07-.38-.76-.59-.65-1,.17-.59.69-1.34,1.3-1.3a2.16,2.16,0,0,1,1.7,1.52,38.42,38.42,0,0,1,1.64,9.75c0,.47-.86.45-1.34.5m-11-2h0c-.45-.17-1.49,0-1.36-.51.45-1.52,2.53-2.37,2.67-4,.22-2.39-1.37-4.61-1.68-7-.05-.4.63-.63.64-1s-.6-.61-.6-1,.67-.62.6-1c-.1-.53-.81-.76-1-1.25-.88-2-1.36-4.16-2.24-6.16-.46-1-1.28-1.85-1.78-2.86a48.32,48.32,0,0,1-2-4.77c-1.63-4.61-3.68-9.11-4.65-13.9a28.77,28.77,0,0,1,0-9.12c.1-.85.5-2.28,1.36-2.19,1,.11,1.26,1.62,1.75,2.52.6,1.11.85,2.38,1.5,3.46.38.63,1.12,1,1.54,1.59a29.28,29.28,0,0,1,3,5,34.5,34.5,0,0,1,2.06,6.76c1.4,6.92,2.68,13.89,3.55,20.9.1.73-.78,1.37-.7,2.1.26,2.35,1.69,4.53,1.7,6.9,0,2-.93,3.92-1.63,5.81a.84.84,0,0,1-.73.55m-6-11.8h0a7.46,7.46,0,0,1,.36,1.52c0,.15-.21.37-.33.28-.86-.66-1.92-1.29-2.3-2.3-.16-.43.88-.44,1.33-.34M26,57.56h0a6.74,6.74,0,0,1,.16-2.06c.08-.21.63-.22.68,0a15,15,0,0,1,.14,4c0,.46-.27,1.72-.48,1.3M34,54.48h0c-.05.69.21,1.49-.16,2.06-.26.4-.91.31-1.38.32a.36.36,0,0,1-.31-.31,17,17,0,0,1-.15-5,22,22,0,0,1,2.7-6.69c.88-1.45,2.58-2.25,3.57-3.63,1.68-2.31,2.46-5.26,4.41-7.35a15,15,0,0,1,5.81-3.64c.44-.16.48.91.36,1.36a12.49,12.49,0,0,1-1.94,4.59c-1.74,2.19-4.54,3.41-6.21,5.67C38,45.42,36.2,49.53,34.11,53.47m-7.3,0h0c-.26,0-.57.15-.8,0a1.79,1.79,0,0,1-.88-1,9.33,9.33,0,0,1-.13-3c0-.47,0-1.1.45-1.33s1.26-.15,1.37.3m3.18-7h0a18.5,18.5,0,0,1-1.77,3.21c-.16.18-.4-.31-.53-.51a7.65,7.65,0,0,1-1.58-2.64,15.71,15.71,0,0,1,0-6.11,56.68,56.68,0,0,1,3.35-9.38,27.61,27.61,0,0,1,2.23-4.24c.46-.72,1.43-2.74,1.69-1.93a57.39,57.39,0,0,1,2.46,14.67c0,1-.92,1.85-1.58,2.63M23,31.48h0c-.09.75.15,2.86-.29,2.25-1.31-1.81-2.56-3.95-2.55-6.18,0-1.65.93-4.21,2.58-4.22s2,2.63,2.09,4.18c.06,1.14-1.23,1.93-1.7,3"/></g></g></svg>