<svg xmlns="http://www.w3.org/2000/svg" viewBox="0 0 288.8 1140.65"><g id="Layer_2" data-name="Layer 2"><g id="Layer_1-2" data-name="Layer 1"><path d="M156.6,1140.52h0c5.92-.79,11.82-2,17.75-2.38.41,0,.61,1,1,1,.71,0,1.32-1,2-1,.39,0,.61.9,1,.9s.61-.92,1-.9c.71,0,1.32,1,2,1,.39,0,.57-.84.94-1a1.14,1.14,0,0,1,1.06,0c.37.16.58.94,1,1s.61-.92,1-.9.64,1,1,1c15.45-1,30.88-2.49,46.31-3.91,10.57-1,21.15-2,31.7-3.25,2-.24,3.92-1.23,5.91-1.35.41,0,.63.95,1,1s.61-.9,1-.9.61.9,1,.9.61-.9,1-.9.71,1.29,1,.9c1.1-1.5,1.44-3.95,2.46-5.57.29-.46.89,0,1.24-.31a3,3,0,0,0,.73-1.61,134.7,134.7,0,0,0,1.91-13.86c.07-1.09-.8-2-.81-3.06s.73-1.93.77-3c0-.58-.62-.91-.6-1.5,0-1.08.72-1.93.78-3a85.22,85.22,0,0,0,0-10.48c-.06-1.07-.82-1.89-.82-3,0-1.58.77-3,.82-4.54q.33-9,0-18c0-1.06-.78-1.91-.78-3s.73-1.93.78-3c.22-4.47.22-9,0-13.47-.05-1.07-.78-1.92-.78-3s.8-1.93.77-3c0-1.57-.86-2.94-1-4.49-.23-4-.17-8,0-12,.46-11.47,1.57-22.87,1.87-34.35,0-1.59-.82-3-.85-4.58-.26-10.48-.06-21,0-31.44a16.14,16.14,0,0,1,.15-3c.1-.56.69-.83.69-1.41,0-1.07-.64-2-.64-3,0-.59.53-.9.64-1.45a3.87,3.87,0,0,0,0-1.59c-.11-.55-.66-.87-.64-1.45,0-1.08.73-1.93.78-3a134.49,134.49,0,0,0,0-13.47c-.05-1.1-.84-2-.82-3.06.27-16.45,1.41-32.83,1.68-49.29,0-1.09-.75-2-.83-3.05a71,71,0,0,1,0-9c.1-1.55.83-3,.83-4.53,0-1.07-.81-1.89-.83-3q-.37-23.2,0-46.42c0-1.06.79-1.92.79-3s-.71-1.93-.79-3a50.61,50.61,0,0,1,0-7.49c.13-1.55.94-2.92,1-4.49s-.93-3-.84-4.58a130.86,130.86,0,0,1,1.89-13.92c.14-.87.94-1.55.8-2.42-.2-1.27-1.4-1.76-1.67-3a14.36,14.36,0,0,1,0-4.58c.07-.6.72-.9.69-1.51-.3-5.5-2.48-11-1.68-16.35.56-3.76,3.73-5.33,5.34-8.33a3.55,3.55,0,0,0,.34-2.26,4.37,4.37,0,0,0-1.35-2,.42.42,0,0,0-.62,0c-.88,1.22-1.34,3.09-2.34,4.06a.86.86,0,0,1-1.33-.49c-.18-.53.55-.9.65-1.47a11.07,11.07,0,0,0,.13-3c-.17-1.54-.92-2.92-.95-4.49,0-1.06.66-1.92.82-2.95a11.07,11.07,0,0,0,.13-3c-.12-1-.73-1.9-.83-2.95a47.33,47.33,0,0,1-.14-7.53c.11-1.56,1-2.92,1-4.49-.3-15.5-1.39-31-2-46.44a9.79,9.79,0,0,1,.14-3c.36-1.18,1.67-1.69,1.67-3,0-1.68-1.46-2.71-1.68-4.38a54.71,54.71,0,0,1-.12-9.06,6.2,6.2,0,0,1,.48-2.21c.35-.85,1-1.36,1.35-2.23a2.65,2.65,0,0,0,.12-1.62c-.4-1.23-1.34-2-1.68-3.23-.12-.44.53-.72.51-1.19s-.52-.89-.64-1.45a6.34,6.34,0,0,1,0-1.63c.58-8.48,1.49-16.89,1.86-25.38.25-6,.22-12,0-18,0-1.07-.78-1.92-.78-3s.77-1.93.78-3q.38-25.45,0-50.91c0-1.06-.78-1.92-.78-3s.74-1.94.78-3a124.45,124.45,0,0,0,0-15c-.24-3.1-1.41-5.87-1.86-8.91a33.2,33.2,0,0,1-.13-4.58c0-7.48-.15-15,0-22.45.5-22.47,1.39-44.93,2-67.4a16,16,0,0,0-.13-3c-.16-1-.82-1.89-.82-3s.68-1.91.82-2.95a10.89,10.89,0,0,0,0-3.07c-.08-.58-.65-.88-.65-1.46s.55-.89.65-1.46a17,17,0,0,0,.15-3,19.18,19.18,0,0,0-.15-3c-.17-1-.82-1.89-.84-3-.26-20.45-.4-40.92,0-61.37.27-13.51,1.44-26.95,2-40.44a26.3,26.3,0,0,0-.15-4.53c-.07-.57-.66-.87-.65-1.46,0-1.07.78-1.92.77-3s-.78-1.89-.81-3,.66-2,.64-3-.8-1.93-.77-3c0-1.57.83-2.93.95-4.49a32,32,0,0,0-.13-6c-.11-1.06-.71-1.9-.83-3a10.27,10.27,0,0,1,.13-3c.1-.56.69-.83.69-1.41,0-1.06-.59-1.95-.69-3-.19-2-.15-4-.15-6a34.13,34.13,0,0,1,.15-4.53c.07-.57.64-.87.65-1.46s-.61-.91-.6-1.5.66-1,.64-1.56c-.33-9.46-1.37-18.85-1.68-28.32,0-.61.58-.93.69-1.52a8.77,8.77,0,0,0,.13-3c-.42-2.56-1.37-4.87-1.85-7.41a18.5,18.5,0,0,1-.13-3.08c0-4-.14-8,0-12,.51-13,1.5-25.95,2-38.95.18-5,.21-10,0-15,0-1.07-.75-1.93-.78-3,0-.58.6-.88.65-1.46a48.39,48.39,0,0,0,.13-7.52,30.2,30.2,0,0,0-.83-3,19.05,19.05,0,0,1-.15-3c0-10-.24-20,0-29.94,0-1.1.86-2,.83-3.07-.31-14.48-1.3-28.9-1.83-43.37a15.22,15.22,0,0,1,.14-3c.1-.56.82-.93.65-1.46a8.21,8.21,0,0,0-2.27-3.52,1.55,1.55,0,0,0-1.74,0c-.45.22-.66,1.77-1.06,1.41-1.05-1-1-4.26-2.21-4.36C257.78,1.71,240.07,3,222.4,3a5.19,5.19,0,0,0-2,.22c-.39.16-.61,1.11-1,1-2.37-.5-4.56-2.73-7-2.71-5,.05-10,2.41-15,2.93a67.12,67.12,0,0,1-13,0c-1.05-.09-2-1.37-3-1.43-.71,0-1.29,1.11-2,1.15-.39,0-.59-.86-1-1a10.29,10.29,0,0,0-3-.22,16.49,16.49,0,0,0-4,.22c-.71.17-1.27,1.12-2,1.25-1.67.3-3.48.91-5,0-1.16-.67-1.5-3-2.39-4.3a.34.34,0,0,0-.53,0c-.81.91-1.22,2.87-2.22,3.09-10.2,2.25-20.53,3-30.81,4.19a11.33,11.33,0,0,1-4-.2c-.39-.1-.58-.85-1-1a1.21,1.21,0,0,0-1.08,0c-.55.25-1,1-1.53,1.21a51.78,51.78,0,0,1-10.35,2.86c-1.06.13-2-1.23-3.06-1.25-.72,0-1.29,1.11-2,1.15-.41,0-.64-1-1.05-1-10,.51-19.91,2.07-29.89,2.56-.72,0-1.34-1-2.06-1-.39,0-.61.79-1,1a1.18,1.18,0,0,1-1,0c-.39-.19-.61-1.07-1-1-4.35.53-8.6,2.35-13,2.74a122.76,122.76,0,0,1-18,0c-.72,0-1.29-1.1-2-1.17-.39,0-.62.91-1,.9s-.59-1-1-1c-.71,0-1.31,1-2,1-.39,0-.61-.79-1-1a1.66,1.66,0,0,0-1.1,0c-6.45,1.4-12.95,2.44-19.33,4.46-.56.18-.87,1.21-1.09,2s.22,1.84-.12,2.51c-.58,1.17-1.41,2.35-2.37,2.53-.47.09-.53-1.28-.49-2,.06-1.06.63-1.94.77-3A1.14,1.14,0,0,0,7.4,18c-.63-1-1.12-2.35-2-2.8A1.22,1.22,0,0,0,3.7,16,119.91,119.91,0,0,0,2,33.55c-.07,2.07.7,4,.86,6.08a12.76,12.76,0,0,1-.14,3c-.17,1-.82,1.89-.82,3s.9,2,.8,3.05c-.55,6-2,11.81-2.7,17.82a3.89,3.89,0,0,0,.39,2.35,6.45,6.45,0,0,0,3,2.72c.57.18,1.19-.57,1.53-1.28.8-1.64.92-3.9,1.76-5.49.19-.35.43.67.71.8a2.12,2.12,0,0,0,1.09,0C18.75,64.81,29,63.53,39.33,63c.73,0,1.34,1,2.07,1,.38,0,.61-.89,1-.89s.61.89,1,.89.61-.89,1-.89.61.93,1,.89c.71-.06,1.28-1.15,2-1.17q15.49-.55,31,0c.72,0,1.29,1.17,2,1.17s1.34-1.42,2-1.15c1,.36,1.42,2.14,2.31,2.8a1.68,1.68,0,0,0,1.65.13c.8-.35,1.39-1.52,2.21-1.78a81.51,81.51,0,0,1,11.79-2.67,15.47,15.47,0,0,1,5,0c.72.12,1.29,1.18,2,1.18s1.28-1.16,2-1.18c15.66-.37,31.33-.23,47,0,.47,0,1.12.09,1.31.72s-.57.89-.66,1.47a7.92,7.92,0,0,0,0,3.07c.23.86.8,2.33,1.35,1.91,1.84-1.43,2.89-4.51,4.51-6.45a2.18,2.18,0,0,1,1.49-.72,30.83,30.83,0,0,1,7,0c1.05.15,2,1.49,3,1.43,8-.44,16-2.15,24-2.93,2-.19,4.14-1,6.05,0,1.18.61,1.51,3,2.39,4.34.11.18.33.14.49.09a3.38,3.38,0,0,0,1.54-.71c.69-.68,1-2.12,1.76-2.58a16,16,0,0,1,6.77-2.64c8.31-.7,16.66-.22,25,0,.47,0,1.25,0,1.34.68a56.82,56.82,0,0,1,.14,10.52c0,1.07-.66,1.92-.83,3a11.38,11.38,0,0,0-.13,3c.11,1.06.73,1.93.78,3,0,.58-.6.92-.6,1.5s.6.91.6,1.49-.6.92-.6,1.5.6.92.6,1.5-.62.91-.6,1.5c0,1.06.85,1.92.77,3-.66,9-2.28,17.9-2.94,27-.08,1.06.77,1.92.77,3s-.74,1.92-.79,3c-.22,5.48-.22,11,0,16.47.07,1.58.9,3,.86,4.59-.29,10-1.38,19.89-1.86,29.86a39,39,0,0,0,.14,6c.11,1.05.8,1.89.83,3,.25,7.47.25,15,0,22.45,0,1.07-.8,1.89-.82,3s.67,1.94.68,3-.64,2-.64,3c0,.58.52.9.64,1.45a6.82,6.82,0,0,1,0,1.63c-.6,16.45-1.47,32.87-1.87,49.32-.22,9-.3,18,0,26.94.35,10,1.42,20,2,30a12.66,12.66,0,0,1-.13,3c-.11.57-.55.88-.7,1.42a5.56,5.56,0,0,0-.12,1.53c.61,36.44,1.39,72.87,2,109.31a29.7,29.7,0,0,1-.15,4.53c-.08.58-.59.85-.7,1.42a16.08,16.08,0,0,0-.15,3,19.18,19.18,0,0,0,.15,3c.17,1,.79,1.89.83,3,.25,6.47.26,13,0,19.46-.06,1.56-1,2.92-.95,4.49,0,8.52.85,17,1.09,25.5.69,24.41,1.37,48.83,1.72,73.26,0,.6-.66.95-.64,1.56,0,1.06.78,1.93.77,3s-.65,1.92-.82,3a30.88,30.88,0,0,0,0,6.08c.17,1,.81,1.89.83,3,.26,11,.24,22,0,32.94,0,1.07-.75,1.92-.78,3,0,.58.52.9.64,1.45a6.82,6.82,0,0,1,0,1.63c-.59,14-1.61,27.87-1.87,41.84-.36,19-.24,37.92,0,56.89,0,1.07.78,1.92.78,3s-.77,1.93-.78,3c-.25,14.48-.06,29,0,43.43a19.24,19.24,0,0,0,.15,3c.17,1,.85,1.88.83,2.94,0,2.55-.92,5-1,7.49,0,1.06.74,1.92.78,3,0,.58-.62.91-.6,1.49,0,1.07.78,1.93.77,3s-.8,1.88-.81,3c0,1.58.74,3,.71,4.62-.28,13.87-1,27.7-1.65,41.54a2.53,2.53,0,0,1-.3,1.24c-.84,1.3-2,2.14-2.77,3.52a2.86,2.86,0,0,0-.12,1.53c.06.7,0,1.67.44,2,.6.5,1.39.23,2.06,0,.38-.12.6-.81,1-1,.13-.06.32.19.33.42.12,5,.34,10.07,0,15.09-.24,3.92-.48,8-1.66,11.54-.65,2-2.51,2.29-3.52,3.85a22.28,22.28,0,0,0-3.51,6.93c-.22.89.7,1.75,1.29,2.07a2.29,2.29,0,0,0,2.66.07c1.43-1.3,2-4.22,3.37-5.54.4-.37.45,1.26.48,2,.14,3,.05,6,0,9a20.37,20.37,0,0,1-.15,3c-.17,1-.82,1.89-.82,2.95,0,1.59.88,3,.84,4.59-.26,10.46-1.39,20.84-1.71,31.29,0,.6.55.93.68,1.51a5.92,5.92,0,0,1,0,1.63c-.58,11.46-1.37,22.9-1.86,34.37a83.69,83.69,0,0,0,0,9c.08,1.1.89,2,.83,3.06-.27,4.55-1.56,8.88-1.81,13.42-.09,1.58.95,3,.83,4.58-.18,2.57-1.45,4.77-1.69,7.33-.11,1.1.77,2.05.7,3.15-.27,4-1.47,7.81-1.71,11.83-.06,1.09.73,2,.82,3a20.26,20.26,0,0,1-.13,4.54c-.07.57-.65.87-.65,1.45s.68,1,.64,1.56c-.31,4-1.38,7.84-1.68,11.86,0,.61.54.94.69,1.51a6.05,6.05,0,0,1,.13,1.54c0,2.5.19,5,0,7.49-.08,1.06-.75,1.91-.78,3,0,.59.52.9.64,1.45a6,6,0,0,1,0,1.64c-.23,2.66-.71,5.27-.85,8-.75,14.18-.17,28.57-1.83,42.57-.26,2.18-2.28,3-3.66,3.77-.39.24-.65-1-1.07-1-6.65.49-13.25,2.11-19.9,2.56-.74,0-1.36-1.12-2.1-1.06-6.33.43-12.6,2-18.92,2.51-.41,0-.61-.9-1-1a3.3,3.3,0,0,0-2.06,0c-.38.12-.58,1-1,1s-.64-1-1-1c-6.66.5-13.27,2-19.92,2.52-.41,0-.64-.94-1-1s-.62.9-1,.9-.62-.93-1-.9c-.72.06-1.29,1.14-2,1.17a133.77,133.77,0,0,1-17,0c-.72-.05-1.29-1.12-2-1.17-.39,0-.59,1-1,1-.71,0-1.32-1-2-1s-1.3,1-2,1.17a6.45,6.45,0,0,1-3-.19c-.38-.11-.58-1-1-1-.72,0-1.3,1-2,1.17a3.43,3.43,0,0,1-2-.19c-.38-.15-.58-1-1-1s-.61.8-1,1a1.14,1.14,0,0,1-1,0c-.37-.18-.58-.84-1-1a1.18,1.18,0,0,0-1,0c-.69.29-1.27,1.11-2,1.23a24.47,24.47,0,0,1-5,0,5.36,5.36,0,0,1-2-.22c-.38-.15-.56-1-1-1-.71,0-1.31,1-2,1-.39,0-.59-.9-1-1a14.87,14.87,0,0,0-5-.2c-.71.09-1.29,1.17-2,1.17s-1.29-1.08-2-1.18a19.41,19.41,0,0,0-6,0c-1,.17-2,1.42-3,1.42s-2-1.39-3-1.42c-13.66-.46-27.33-.09-41,0a10.29,10.29,0,0,0-3,.23c-.7.21-1.27,1.06-2,1.24a3.28,3.28,0,0,1-2-.19c-.38-.15-.58-1-1-1s-.59.89-1,1a17.45,17.45,0,0,1-4,.22,5.36,5.36,0,0,1-2-.22c-.38-.15-.66-1.32-1-1-1,1.17-2.25,2.74-2.26,4.66,0,1.35,1.33,2,2.2,2.32a7.35,7.35,0,0,0,4.05.18c1-.18,2-1.54,3-1.42,2.72.31,5.27,2.2,8,2.71.4.07.6-1,1-1,1,0,2,1,3.05,1,.39,0,.56-1,.95-1a9.75,9.75,0,0,1,4-.19c.72.1,1.29,1.17,2,1.17s1.28-1.11,2-1.17a81.37,81.37,0,0,1,10,0,6,6,0,0,1,2,.22c.7.26,1.27,1.13,2,1.25a14,14,0,0,0,5,0c.71-.12,1.28-1,2-1.25a5.15,5.15,0,0,1,2-.21c16,.83,32,2.19,48,2.74.41,0,.61-1,1-1,1,0,2,1,3,1,.4,0,.57-.88,1-1a5.17,5.17,0,0,1,2-.22,56.07,56.07,0,0,1,8,0c.72.07,1.29,1.16,2,1.16s1.29-1,2-1.16a3.35,3.35,0,0,1,2,.19c.38.15.59,1,1,1s.58-.95,1-.95c.71,0,1.32.94,2,.95.38,0,.61-.89,1-.89s.61.89,1,.89.61-.88,1-.89m109.07-15.5h0c-4.35.06-8.71.36-13.07.19-.46,0-1.56-.13-1.3-.72a49.74,49.74,0,0,1,5.61-8.66c.78-1,1.84-1.55,2.66-2.54s1.42-2.54,2.34-3.45c5.11-5,10.22-10.14,15.67-14.27.42-.33.48,1.27.5,2,.11,3,.5,6.17-.13,9-.59,2.65-2.11,4.61-3.35,6.69a105.61,105.61,0,0,1-6.31,9.41m7.35.82h0c-.44-.16-1.49.18-1.34-.48.41-1.93,1.21-4.12,2.49-4.82.7-.39.39,2.28.16,3.36m-27.33-3.82h0c-1.18,2-2,4.5-3.53,6s-3.59,2-5.43,2.83c-.35.15-.83.35-1.09,0a3.32,3.32,0,0,1-.31-2c.06-.57.56-.85.68-1.41a3.66,3.66,0,0,0,0-1.58c-.12-.57-.76-.92-.66-1.5a12.79,12.79,0,0,1,1.54-4,16.42,16.42,0,0,1,2.09-3.15c.73-.85,1.69-1.21,2.38-2.14,2.66-3.58,4.88-7.88,7.62-11.34,3.61-4.55,7.67-8.25,11.38-12.62,1-1.12,1.65-2.71,2.62-3.85,2-2.36,4.33-4.25,6.38-6.63,1.59-1.82,3.45-8.55,4.49-6,2.05,5,2.36,12.68.24,17.63-2.49,5.79-8.14,6.46-12.11,10a51.5,51.5,0,0,0-6,6m6.69-27.82h0c-2.9,3.28-5.87,6.43-8.69,9.84-.95,1.15-1.66,2.71-2.62,3.85-.72.87-1.68,1.24-2.38,2.14-4.38,5.7-8.39,12-12.83,17.65a1.73,1.73,0,0,1-1.51.5c-.15,0-.31-.24-.31-.45-.15-6-.45-12-.15-18s1.6-12,2-18a118.51,118.51,0,0,0,0-13.46c0-1.09-.88-2-.82-3,.24-4.53,1.36-8.85,1.68-13.36,0-.6-.64-.94-.64-1.56s.53-.9.64-1.45a4.25,4.25,0,0,0,0-1.59c-.18-1-.8-1.88-.81-3s.74-1.93.77-3c0-.61-.69-1-.64-1.56.31-3.52,1.38-6.84,1.68-10.36,0-.63-.75-1-.68-1.62a39.87,39.87,0,0,1,1.88-8.1c.15-.45.78.2,1-.19.83-1.5,1.1-3.56,1.93-5.08a57.73,57.73,0,0,1,4.84-7.21c.79-1,1.84-1.55,2.66-2.53s1.44-2.54,2.34-3.46c4.35-4.45,9.1-8,13.38-12.63,2.87-3.08,4.89-12.92,8-10.43,3.63,2.89,1.31,12.16,1.78,18.27a12.22,12.22,0,0,1-.13,3c-.1.55-.66.87-.65,1.45,0,1.07.8,1.92.77,3-.3,9.4-.65,18.86-1.78,28.15-.16,1.37-1.25,2.12-2,3a81,81,0,0,1-6,6c-3.07,2.82-6.3,5.28-9.37,8.12a104.43,104.43,0,0,0-9,9c-2.14,2.56-3.81,5.9-5.83,8.67-.3.42-.82.41-1.11.86a21.65,21.65,0,0,0-2.71,5.09,3.73,3.73,0,0,0,.34,2.26,2.24,2.24,0,0,0,1,1.3,2.15,2.15,0,0,0,2.06,0,6.72,6.72,0,0,0,1.75-2.48c.61-1.16.86-2.71,1.55-3.75s1.85-1.48,2.64-2.5c1.55-2,2.66-4.71,4.34-6.45a273.11,273.11,0,0,1,21.67-20.26c.41-.34.46,1.27.5,2a18.24,18.24,0,0,1-.12,4.56,11,11,0,0,1-1.58,4c-4.85,7.3-9.95,14.25-15.09,21.09-.79,1-1.85,1.53-2.66,2.55-1.21,1.5-2.13,3.46-3.34,4.94-.71.9-1.7,1.21-2.38,2.16-3.07,4.17-5.8,8.89-8.83,13.14-.3.44-.82.41-1.11.86a8.3,8.3,0,0,0-1.73,3.56,7.79,7.79,0,0,0,.93,4,6.09,6.09,0,0,0,2.38,2.59,1.8,1.8,0,0,0,2.08,0c.41-.33.48-1.3.44-2-.07-1.07-.64-2-.77-3a1.22,1.22,0,0,1,.3-.72c2.41-3.68,4.75-7.48,7.31-10.93.78-1.06,1.86-1.51,2.66-2.54,1.55-2,2.79-4.46,4.34-6.46.8-1,1.9-1.45,2.66-2.53,4.66-6.54,9.11-13.41,13.55-20.29.64-1,1.49-4.61,1.67-3.27.74,5.51,1.5,11.6.16,16.84-1.05,4.1-4.32,6-6.66,8.61m-15.69-45.55h0c1.77-2.56,3.44-5.3,5.31-7.71.7-.9,1.68-1.23,2.38-2.14a50.53,50.53,0,0,0,5.09-7.62,217.44,217.44,0,0,0,9.52-20.5c.22-.55-.45-1.18-.82-1.5a2.23,2.23,0,0,0-1.51-.51c-.19,0-.31.32-.45.51a13.65,13.65,0,0,0-1.31,2c-1.22,2.61-2.14,5.51-3.43,8.06a98.2,98.2,0,0,1-5.78,10.2c-1.08,1.61-2.55,2.54-3.69,4.05-2,2.64-3.61,5.8-5.62,8.34-2.33,3-5.05,5.18-7.38,8.13-1.91,2.43-4,4.8-5.31,8a8.06,8.06,0,0,0-.35,5.24c.61,1.81,2.11,2.56,3.29,3.5a.86.86,0,0,0,1.09,0c.54-.48,1.34-1.11,1.29-2-.09-1.68-1.24-2.83-1.64-4.4-.07-.29.17-.56.32-.77,2.47-3.31,4.92-6.68,7.52-9.76m8.52-47.22h0c-3.58,3.36-7.4,6.21-10.73,10.1-2.9,3.42-5.1,8-7.83,11.67-.21.27-.8.43-.82,0-.32-7.48-.37-15-.14-22.49,0-1.58.92-2.92,1-4.5,0-1.06-.78-1.88-.81-3s.64-2,.64-3c0-.62-.67-1-.64-1.56q1-25.6,2.65-51.13c0-.42.41.65.69.73s.34-.26.47-.45c1.31-1.86,2.46-3.94,3.84-5.67.71-.89,1.71-1.19,2.38-2.15,6.84-9.8,13.91-19.36,20.1-30.09a57.29,57.29,0,0,0,5.57-14.42,20.5,20.5,0,0,0,0-7.61c-.13-.91-.71-1.84-1.32-2a1.78,1.78,0,0,0-2,1.3c-.42,1.65.78,3.63.36,5.27a44.22,44.22,0,0,1-4.58,11.44c-5.21,8.94-11.27,16.67-16.78,25.2-.29.45-.28,1.23-.57,1.67a68.53,68.53,0,0,1-4.74,6.21c-.72.85-1.67,1.21-2.36,2.11s-.81,3.73-1.52,3c-.9-.87-.4-3.19-.3-4.8.41-6.51,1.47-12.9,1.83-19.42,0-.63-.81-1-.66-1.6a17,17,0,0,1,2.35-5.22c.73-1.14,1.85-1.53,2.66-2.55,1.3-1.62,2.32-3.71,3.62-5.34.71-.89,1.68-1.23,2.38-2.15,1.64-2.09,2.92-4.83,4.62-6.84,3-3.5,6.33-6.24,9.38-9.63,2.17-2.39,4.07-5.34,6.28-7.66a.76.76,0,0,1,1.06,0,3.63,3.63,0,0,1,1.27,2c.11.56-.61.92-.6,1.5s.53.9.64,1.45a3.87,3.87,0,0,1,0,1.59c-.11.55-.66.87-.64,1.45,0,1.08.73,1.93.78,3,.22,4.47.2,9,0,13.47-.41,9.9.74,20.49-1.81,29.65-2,7.16-7.2,11.17-11,16.44-.77,1.08-1.9,1.47-2.66,2.55-4.92,6.93-9.33,14.64-14.35,21.42-1.47,2-3.65,2.62-5,4.78-.47.73-.25,2.11,0,3.07a2.9,2.9,0,0,0,1.32,2,5.24,5.24,0,0,0,4.06,0c.44-.21.36-1.35.31-2,0-.47-.72-.74-.55-1.12.51-1.16,1.52-1.59,2.18-2.55,5.19-7.53,10.09-15.5,15.34-22.92.76-1.08,1.89-1.46,2.66-2.53,2.93-4.08,4.56-14.56,8.38-12.84,3.55,1.61.58,11.16,0,16.62-.32,3.09-1.64,5.75-2.61,8.51a21.47,21.47,0,0,1-1.94,4.4c-.69,1-1.78,1.33-2.5,2.31-3,4.08-5.62,8.76-8.62,12.83-.78,1.06-1.86,1.51-2.66,2.54-1.55,2-2.79,4.47-4.34,6.44-.8,1-1.84,1.57-2.66,2.55a13.32,13.32,0,0,0-1.82,2.74,73.72,73.72,0,0,0-4.56,10,6.75,6.75,0,0,0-.05,4,4.75,4.75,0,0,0,2.35,2.59c.49.26,1.07-.15,1.53-.54a2.08,2.08,0,0,0,.86-1.45c0-1.08-.79-2-.66-3.08a10.06,10.06,0,0,1,1.54-4c2.54-4.25,5.27-8.28,8.09-12.12.78-1,1.88-1.47,2.66-2.53,2.57-3.46,4.77-7.49,7.34-11,.78-1,1.9-1.45,2.66-2.53,1.88-2.65,2.86-10.17,5.22-8.58s.44,8.19.29,12.29c0,1.07-.66,1.92-.83,3a11.07,11.07,0,0,0-.13,3c.12,1,.69,1.9.83,2.95a7.15,7.15,0,0,1,0,3.09,18,18,0,0,1-2.92,5.39m-26.42-93.06h0c-1,.93-1.83,2.5-3,2.75-.47.11-.49-1.27-.5-2a127.92,127.92,0,0,1,.11-13.57c.24-2.93.5-6.12,1.65-8.53,2.33-4.9,5.8-8.36,8.5-12.8.71-1.17,1-2.77,1.7-4a23.42,23.42,0,0,1,2.55-3.81c.81-1,1.85-1.53,2.66-2.55,1.3-1.62,2.32-3.71,3.62-5.35.71-.88,1.69-1.21,2.38-2.14,2.32-3.08,4.29-6.75,6.62-9.83,1.12-1.47,2.26-3.15,3.69-3.76.45-.2.47,1.26.48,1.94.14,10.23,1.71,20.8,0,30.7-.57,3.22-4.2,2.32-6.11,4a133.65,133.65,0,0,0-10,10.5c-2.3,2.6-4.34,5.69-6.62,8.34-.73.85-1.68,1.24-2.38,2.14m-1.53-29.23h0c-1.77,2.65-3.42,5.48-5.3,7.95-.21.27-.81.44-.82,0-.32-11.47-.34-23-.15-34.47,0-1.06.75-1.91.79-3,0-.58-.53-.9-.64-1.45a3.87,3.87,0,0,1,0-1.59c.11-.55.66-.87.64-1.45,0-1.08-.7-1.93-.79-3-.14-1.79-.62-4,.09-5.43,1.3-2.67,3.68-3.66,5.37-5.77a43.19,43.19,0,0,0,3.81-5.73c.68-1.2,1-2.83,1.7-4q4.8-7.8,10-15c1-1.32,2.22-2,3.19-3.33.41-.55.48-1.54.88-2.11,2.72-4,5.34-8.17,8.43-11.48.38-.41.47,1.26.48,1.94.15,6,.23,12,0,18,0,1.07-.75,1.92-.78,3,0,.58.57.88.65,1.45.15,1,.44,2.29,0,3.08-1.79,3.18-4.31,5.29-6.32,8.16-3.7,5.26-7.42,10.52-10.82,16.22-2,3.41-3.45,7.56-5.43,11-1.7,3-3.93,5.33-5.57,8.43a41.51,41.51,0,0,0-2.57,6.93,4.4,4.4,0,0,0-.12,1.59,17.35,17.35,0,0,0,.48,3.7,2.26,2.26,0,0,0,1,1.3c.47.27,1.23.78,1.5.15,1.34-3.13,1.44-7.23,2.84-10.3,1.76-3.91,4.43-6.72,6.47-10.3.69-1.2,1-2.77,1.7-4,1-1.81,2.31-3.18,3.3-5,.6-1.06.8-2.56,1.43-3.56a207.24,207.24,0,0,1,11.79-17.38c.35-.45.41,1.3.34,2-.1,1-.81,1.88-.81,2.95s.86,2,.81,3.05a78.34,78.34,0,0,1-1.63,13.09,7,7,0,0,1-2,3c-.73.86-1.68,1.25-2.38,2.14-1.65,2.12-3,4.78-4.62,6.85-2.35,2.93-5,5.28-7.38,8.13-1,1.15-1.66,2.71-2.62,3.85-.72.86-1.67,1.27-2.38,2.14a33.45,33.45,0,0,0-3.1,4.64m5.16-64h0c-.61,1.2-1.15,2.5-1.85,3.6-2.93,4.62-5.85,9.3-9,13.52-.38.51-1,.85-1.51.49s-.44-1.29-.45-2c-.12-7.26-1.33-14.82.06-21.79.55-2.74,3.54-2.3,5.1-4,1.38-1.48,2.32-3.73,3.63-5.36.71-.88,1.73-1.15,2.38-2.14,1-1.51,1.56-3.62,2.52-5.2,2.74-4.47,6-8.26,8.57-12.9,2.93-5.18,5.4-10.92,8-16.47a18.5,18.5,0,0,0,1.58-4,5.76,5.76,0,0,0,0-3.11c-.23-.6-.9-.48-1.37-.46-.19,0-.32.31-.45.51-1.79,2.62-3.69,5.09-5.31,8-2.05,3.63-3.66,7.8-5.69,11.46a41.78,41.78,0,0,1-3.83,5.71c-.75,1-1.83,1.26-2.5,2.32-1.79,2.91-2.88,6.68-4.76,9.43a40.43,40.43,0,0,1-7.44,8.49c-.4.33-.46-1.25-.47-1.94-.12-4.81-.55-9.72.08-14.42.19-1.36,1.59-1.51,2.21-2.55s1-2.75,1.67-4c1-1.81,2.3-3.2,3.3-5,.68-1.21,1-2.8,1.7-4,1.39-2.43,3.09-4.44,4.52-6.82.28-.46.28-1.22.57-1.66.72-1.08,1.67-1.74,2.4-2.77,2.52-3.53,4.77-7.49,7.34-10.94.78-1,1.85-1.53,2.66-2.53,1.89-2.34,4.3-10.71,5.42-7.45,3,8.66,1.65,19.32,2,29,.05,1.58-.71,3-.85,4.58a11.05,11.05,0,0,0,.13,3c.1.55.7.82.69,1.4,0,1.58-.81,3-.81,4.54,0,1.06.68,1.92.82,3a6.1,6.1,0,0,1,0,3.09,37,37,0,0,1-4.66,7.11c-.79,1.05-1.89,1.47-2.66,2.54-4.32,6-8.28,12.63-12.55,18.75m.54-62.17h0a38.49,38.49,0,0,0-3.83,4.27c-.73,1.11-1,2.77-1.67,4-2.73,4.81-5.38,9.78-8.53,14-.34.47-.46-1.26-.47-1.94-.13-5.77-.9-11.71.06-17.3.32-1.87,2.5-1.45,3.39-2.87,3.83-6.19,6.91-13.34,10.6-19.71.66-1.15,1.67-1.72,2.4-2.77,3.52-5,6.78-10.46,10.34-15.44,1.36-1.88,2.94-6.79,4.4-5.09,2.18,2.55,1.29,8.07,1.66,12.18.18,2,.79,4.49,0,6.12-2.61,5.2-6.33,8.91-9.65,13.1-.71.9-1.69,1.23-2.38,2.14M252.18,689h0c-2.05,3.67-4.52,15.14-6.13,11-3.05-7.77-.44-18-.14-27a184.45,184.45,0,0,1,1.8-22.76c.13-.87,1.15,1.08,1.72.8a6.55,6.55,0,0,0,2.61-2.88c1.76-3.31,2.87-7.29,4.57-10.64,1-2,2.49-3.48,3.57-5.42.68-1.22,1-2.83,1.7-4q4.22-6.89,8.83-13.2c.78-1,1.85-1.52,2.66-2.53,1.43-1.77,2.53-4.11,4-5.78a.68.68,0,0,1,1.06,0,4,4,0,0,1,.45,2,44.2,44.2,0,0,1,0,6c-.45,5.91-.43,12.07-1.79,17.67-.47,1.94-2.37,2.21-3.39,3.62-3.33,4.6-6.3,9.73-9.62,14.33-1.3,1.81-3,3-4.21,4.86-.75,1.11-1,2.79-1.7,4-1.41,2.45-3.15,4.46-4.57,6.91-.68,1.2-1,2.76-1.69,4s-1.63,2.21-2.31,3.5A22.74,22.74,0,0,0,248,677.4a4.16,4.16,0,0,0-.11,1.58c.07.7,0,1.78.44,2a2.21,2.21,0,0,0,2.51-.51,19.34,19.34,0,0,0,3.3-5c1.7-3.18,2.85-7,4.7-10,5.57-9,11.4-17.76,17.49-26a.81.81,0,0,1,1.37.46c.43,3.46,1.09,7.44,0,10.57-1.67,4.84-5,7.94-7.66,11.61-.78,1.06-1.89,1.46-2.66,2.54-1,1.38-1.64,3.28-2.6,4.72-.72,1.08-1.67,1.72-2.4,2.77-2.75,3.89-5.48,7.83-8,12m-6.5-53.1h0c0-13.49-.48-27,0-40.47a33.67,33.67,0,0,1,1.8-8.88,64.44,64.44,0,0,1,4.27-10c.62-1.19,1.67-1.7,2.39-2.77,6.27-9.13,12.53-18.28,18.55-27.77a14.29,14.29,0,0,0,1.84-4.36c.15-.69.12-1.85-.33-2.09a2.14,2.14,0,0,0-2.51.51c-1.51,1.46-2.46,3.93-3.83,5.66-2,2.56-4.33,4.56-6.32,7.17-.71.93-1,2.41-1.7,3.35s-1.87,1.44-2.64,2.5q-4.47,6.11-8.55,12.8c-.71,1.16-1,2.76-1.7,4-.5.92-1,2.24-1.79,2.41-.45.09-.46-1.26-.47-2-.1-5.51-.52-11.09.14-16.51.12-1,1.45-.2,2-.86a29.69,29.69,0,0,0,3.15-5.55c1.25-2.58,2-5.65,3.43-8.06A148.14,148.14,0,0,1,264.43,527c.77-1.06,1.86-1.51,2.66-2.55A64.27,64.27,0,0,0,271.4,518c.28-.47.28-1.23.57-1.67a33.23,33.23,0,0,1,3.95-5c.54-.54,1.75-1.68,1.88-.72,1.34,10.08,1.75,20.41,2.1,30.66.34,10,.24,20,0,29.95,0,1.06-.66,1.92-.83,3a30.88,30.88,0,0,0,0,6.08c.17,1,.71,1.9.83,2.95a10.69,10.69,0,0,1-.13,3c-.1.55-.65.87-.65,1.45s.7,1,.64,1.56a71.59,71.59,0,0,1-1.91,11.11c-.13.51-.79-.14-1.06.21-.71.9-1,2.45-1.7,3.31-3.08,3.59-6.62,6.27-9.64,10A81.57,81.57,0,0,0,258.61,624c-2.49,4.28-4.79,8.85-7,13.48-.73,1.52-1,3.5-1.79,5a7.06,7.06,0,0,1-2.12,2.3c-.2.15-.6.11-.64-.22a30.28,30.28,0,0,1-.14-6c.08-1.06.69-1.9.83-2.95m11.87-32.52h0c1.85-2.8,3.83-5.45,5.56-8.42.7-1.18,1-2.81,1.7-4,2.31-3.85,5-7.14,7.3-11a20,20,0,0,0,2.57-5.48,5.26,5.26,0,0,0-.32-3.55c-.35-.57-1.12,0-1.51.51-3.11,4.1-5.76,9-8.83,13.15-.78,1.06-1.92,1.42-2.66,2.54-.92,1.36-1.31,3.4-2.22,4.78-1.12,1.66-2.69,2.56-3.81,4.24-.91,1.36-1.38,3.29-2.22,4.77-1.09,1.93-2.47,3.48-3.57,5.42a22.42,22.42,0,0,0-2.56,5.48,9.46,9.46,0,0,0,0,4.58,1,1,0,0,0,1.39.5,10.16,10.16,0,0,0,2.92-2.77c.33-.42.3-1.26.6-1.71,1.32-2,2.94-3.47,4.22-5.51M267.42,515h0c-.78,1.15-1.48,2.43-2.33,3.45s-1.89,1.46-2.66,2.54q-6,8.34-11.55,17.3c-.81,1.28-1.21,3-2,4.4a6.79,6.79,0,0,1-1.53,2c-.12.1-.32-.2-.33-.42-.11-5.51-.59-11.1,0-16.55.16-1.54,1.55-2.12,2.14-3.42.94-2.06,1.42-4.54,2.42-6.53s2.49-3.49,3.57-5.44c.6-1.06.81-2.53,1.43-3.56q3.72-6.13,7.82-11.73c.78-1.06,1.89-1.46,2.66-2.54,3.47-4.78,5.32-15.63,10-14.93,3.74.57,1.33,11.08,1.64,16.7,0,.59-.64.94-.64,1.55s.59.89.65,1.46a21.07,21.07,0,0,1,0,4.56,1.73,1.73,0,0,1-.63,1.1c-2.75,2.36-5.72,4.14-8.4,6.67m-21.3,3.4h0c-.26.36-.53,1.47-.78,1.09a12.45,12.45,0,0,1-1.61-4.71,19.94,19.94,0,0,1-.12-6.07,51.87,51.87,0,0,1,2.7-10,39.76,39.76,0,0,1,3.79-7.22c3.55-5.69,7.22-11.21,11-16.5.77-1.08,1.84-1.56,2.66-2.55a16.33,16.33,0,0,0,2.09-3.12c1.53-3,2.56-6.53,4.25-9.31a17.18,17.18,0,0,1,3.94-4.22.83.83,0,0,1,1.06,0,4.12,4.12,0,0,1,1.32,2,8.08,8.08,0,0,1,.13,3c-.5,4.67-1.2,9.3-2,13.9a6.24,6.24,0,0,1-.7,2.07c-1.94,3.19-4,6.29-6.12,9.16-.79,1.05-1.87,1.5-2.66,2.55-1.89,2.47-3.45,5.46-5.34,7.93-.74,1-1.81,1.29-2.5,2.34-1.3,1.94-2.15,4.47-3.4,6.51-.38.61-1,.73-1.42,1.32-1.48,2.23-2.84,4.64-4.16,7.1m-4.53-21.36h0c0-5-.78-10.21,0-15.12.49-3.26,2.29-5.72,3.57-8.44,2-4.23,4-8.51,6.27-12.41a132.14,132.14,0,0,1,7.83-11.69c.68-.92,1.71-1.14,2.36-2.11s.9-2.64,1.55-3.74c.36-.63,1-.73,1.41-1.32,2.81-4.18,4.86-9.65,8.16-12.93.74-.74,1.16,2.05,1.57,3.23a5.12,5.12,0,0,1,.13,1.58c0,6.31,1.76,13.26-.1,18.92-1.59,4.85-6.28,5.4-9,8.88s-4.77,8.16-7.38,11.9c-.76,1.09-1.89,1.47-2.66,2.53q-5.61,7.8-10.83,16.2c-.81,1.29-1.17,3.12-2,4.4m5.72-39.92h0c-2,3.93-2.69,12.63-5.93,11.8-3.07-.78-1.58-9.1-1.76-13.76a9.56,9.56,0,0,1,1-5.24c1.09-1.64,3.13-1.17,4.26-2.76,1.54-2.16,2.08-5.53,3.39-8s3.17-4.46,4.57-6.92c.61-1.05.8-2.55,1.43-3.56,4.06-6.5,8.61-12.28,12.57-18.9a89.59,89.59,0,0,0,5-10.43c.6-1.37,1.35-6,1.47-4.39.64,8.55,1.08,17.32.13,25.81-.29,2.58-2.34,3.91-3.66,5.62-.8,1-1.88,1.48-2.66,2.54-2.57,3.45-4.77,7.48-7.34,10.94-.69.93-1.68,1.23-2.38,2.14-.42.55-.49,1.54-.88,2.12-.72,1.07-1.67,1.73-2.4,2.77m4-32.94h0c-1.6,2.41-3.32,4.66-4.81,7.23-.68,1.19-1,2.81-1.69,4-1.89,3.19-4.15,5.87-6,9.06-.7,1.18-1,2.79-1.7,4-.82,1.45-1.6,3.2-2.79,3.91-.43.26-.46-1.26-.47-1.95-.12-6.8-.81-13.74.08-20.41.24-1.76,2.16-1.68,3-2.91a82,82,0,0,0,5.15-8.59c.67-1.22,1-2.84,1.7-4,4.87-7.72,10.27-14.68,15-22.54,1.83-3,3-6.78,4.69-10a6.7,6.7,0,0,1,1.79-2.41c.26-.17.64.34.7.76.74,5.83,1.67,11.7,1.65,17.63a4.82,4.82,0,0,1-1.72,3.57c-.52.4-1.07-1.23-1.63-1a5.17,5.17,0,0,0-2.49,2.74c-1.23,2.8-1.37,6.52-2.71,9.2m-25.77-9.24h0a16.22,16.22,0,0,0,2.51-3.07c2.2-4.48,3.64-9.74,5.94-14.11.8-1.54,2.23-2.06,3.21-3.36,2-2.62,3.64-5.73,5.62-8.34.79-1,1.85-1.52,2.66-2.53,1.21-1.5,2.13-3.46,3.34-5,.71-.88,1.73-1.16,2.38-2.14,1-1.51,1.58-3.58,2.52-5.2,1.1-1.89,2-4.63,3.58-5.27.86-.34,1.41,1.92,1.57,3.23a86.39,86.39,0,0,1,.14,10.56,34.06,34.06,0,0,1-.14,6.07,5.22,5.22,0,0,1-1.58,3.23c-.58.38-1.15-1-1.78-1a1.72,1.72,0,0,0-1.48.7,71.37,71.37,0,0,0-5.31,7.95c-.69,1.19-1,2.84-1.69,4-3.54,5.7-7.27,11.14-11,16.51-.3.44-.82.42-1.11.86a81.45,81.45,0,0,0-4.16,7.09c-.57,1.09-.84,2.49-1.43,3.57-.75,1.39-1.37,3.61-2.57,3.77-.88.11-1.16-2.05-1.57-3.23a4.87,4.87,0,0,1-.13-1.59,37.79,37.79,0,0,1,.14-4.52c.13-1.05.79-1.89.83-3m3.5-47.13h0c4.44-6.64,8.6-13.73,13.33-19.92,3.2-4.19,7-7.24,10.38-11.12,1-1.12,1.67-2.7,2.62-3.85a28.69,28.69,0,0,1,3.69-3.77c.13-.1.32.2.34.42a16.26,16.26,0,0,1,0,3.12c-.46,5-1.4,9.83-1.71,14.82,0,.61.63.91.69,1.52a9.25,9.25,0,0,1-.17,3.49,6,6,0,0,1-1.66,2.57c-.28.27-.73-.33-1,0-1.07,1.16-1.8,2.92-2.83,4.17-.72.87-1.68,1.23-2.38,2.14-.42.55-.49,1.53-.88,2.12-2.83,4.21-5.73,8.31-8.74,12.21-.8,1-1.85,1.53-2.66,2.53-2.75,3.35-5.64,6.53-8,10.48-2.08,3.47-3.41,15.37-5.22,11.59-3-6.2-.56-15.27-.18-22.87a15.45,15.45,0,0,1,1.62-5.49m-.23-7.19h0c-.34.42-.61,1-1,1.24-.14.08-.33-.2-.34-.42-.11-4.51-.9-9.23,0-13.55.58-2.84,2.86-4.13,4.13-6.41,2.35-4.19,4.33-8.82,6.7-13a61.59,61.59,0,0,1,4.83-7.21c.79-1,1.88-1.48,2.66-2.53,2.39-3.22,4.67-6.65,6.81-10.23.71-1.18,1-2.82,1.7-4,.6-1,1.52-1.45,2.15-2.4a24.69,24.69,0,0,0,2.37-4.41c.27-.66.72-1.74.33-2.26a1.71,1.71,0,0,0-2.36-.48c-1.35,1-2.1,3.27-3.28,4.7-.72.87-1.73,1.15-2.38,2.14-1.61,2.42-2.65,5.63-4.34,7.94-2.34,3.22-5.22,5.46-7.66,8.53a60.63,60.63,0,0,0-4.83,7.2c-.69,1.19-1,2.76-1.7,4-1.84,3.41-3.55,7.06-5.79,9.89-.35.45-.46-1.25-.47-1.95-.11-7-.52-14.06.13-21,.14-1.55,1.55-2.14,2.14-3.43.94-2.06,1.45-4.51,2.42-6.54.71-1.49,1.81-2.5,2.57-3.93,1.91-3.57,3.45-7.58,5.43-11.05a87.33,87.33,0,0,1,6.1-9.13c.79-1.05,1.9-1.45,2.66-2.53,3.58-5,7.36-9.9,10.33-15.76.38-.75-.71-2-1.33-2-1.34.1-2.61,1.2-3.7,2.37-2.71,2.92-5,6.66-7.58,9.78-.72.87-1.7,1.2-2.38,2.14a177.61,177.61,0,0,0-10.1,15.13c-1.09,1.88-1.42,4.54-2.42,6.54-1.49,3-3.12,10.74-5,8.28-2.55-3.39-.43-10.2-.3-15.29,0-1.07.76-1.93.79-3,0-.59-.59-.88-.65-1.46a20,20,0,0,1,0-4.57c.07-.58.57-.86.7-1.42.19-.78-.08-1.81.25-2.48.55-1.13,1.63-1.46,2.21-2.55,1.32-2.48,2-5.6,3.4-8a100.62,100.62,0,0,1,7.1-10.62c.78-1.06,1.87-1.5,2.66-2.54,1.89-2.47,3.45-5.47,5.34-7.94.7-.92,1.69-1.23,2.38-2.15,2.22-2.95,4.31-6.11,6.31-9.4a83.73,83.73,0,0,0,4.35-8.2,3.28,3.28,0,0,0,.12-1.54c-.07-.7,0-1.67-.44-2a1.84,1.84,0,0,0-2.06,0c-.35.2-.27,1.08-.54,1.46-.68,1-1.61,1.51-2.24,2.55s-1,2.72-1.67,3.95a14.44,14.44,0,0,1-1.83,2.71c-.83,1-1.86,1.51-2.66,2.54-3.88,5-7.46,10.45-11.34,15.43-.8,1-1.86,1.51-2.66,2.53a47.68,47.68,0,0,0-3.82,5.74c-.59,1.06-.83,2.51-1.43,3.57-.82,1.45-1.6,3.2-2.79,3.91-.43.25-.46-1.26-.47-2-.11-5-.57-10.13.13-15,.15-1.08,1,1.73,1.69,2.11.38.2.81-.22,1.14-.55a4.25,4.25,0,0,0,1.05-1.54c.68-1.76.9-3.91,1.72-5.53,3.29-6.54,7.12-12.45,10.53-18.84.58-1.09.81-2.55,1.43-3.57,3-4.85,6.34-9.13,9.31-14,.71-1.16,1-2.78,1.69-4,1.28-2.27,3-4,4.13-6.41a2.61,2.61,0,0,0-.31-2c-.23-.38-.68-.22-1-.19a2.53,2.53,0,0,0-1.3.42,11.16,11.16,0,0,0-2.67,2.49q-7.12,10-13.82,20.72c-.72,1.14-1,2.79-1.69,4-1.32,2.32-3.06,4.08-4.31,6.5-2.67,5.21-4.51,11.37-7.4,16.33-.49.84-.27-2.25-.16-3.36.06-.58.65-.87.65-1.46s-.67-1-.64-1.56c.41-7.78.56-15.72,1.95-23.24.6-3.2,2.39-5.63,3.87-8.1,3.09-5.15,6.42-10,9.83-14.69.77-1.07,1.9-1.44,2.66-2.53,4.94-7.13,8.74-27.9,14.38-22,7.21,7.5,1.68,26.19,2.24,39.32.77,17.9,1.41,35.81,1.75,53.74,0,.61-.55.94-.68,1.52a4,4,0,0,0,0,1.58c.19,1,.7,1.91.82,3a11,11,0,0,1-.13,3c-.17,1-.71,1.9-.83,3a10.62,10.62,0,0,0,.13,3c.1.56.65.87.65,1.45s-.53.91-.64,1.46a4.2,4.2,0,0,0,0,1.58c.18,1,.8,1.89.81,3s-.74,1.93-.77,3c0,.58.55.89.65,1.46a17,17,0,0,1,.15,3,19.05,19.05,0,0,1-.15,3c-.17,1-.79,1.9-.84,3-.27,6.29,1,12.86-.11,18.92-.58,3-3.06,4.29-4.71,6.21-5,5.86-10.54,10.87-15.38,17.12M245.42,186.79h0a8.35,8.35,0,0,1-.5-1.92c-.1-2.5-.49-5.19.13-7.53.55-2.11,2.22-3.11,3.13-4.92,1.29-2.53,2.2-5.46,3.43-8,.44-.92,1.16-1.5,1.58-2.44.92-2.07,1.29-4.7,2.42-6.54,6.49-10.55,13.76-20,20.31-30.46,1.13-1.8,1.82-8.4,2.67-6.27,1.56,4,.43,9.2.29,13.8,0,1.07-.78,1.92-.78,3s.72,1.93.78,3a40.06,40.06,0,0,1-.14,7.51c-.05.4-.59.2-.82,0-.93-1-1.57-2.5-2.52-3.45-.16-.15-.36.24-.48.45-1,1.79-1.71,3.83-2.74,5.53-.37.61-1,.73-1.41,1.32-.71,1.07-1.1,2.57-1.85,3.59-1,1.38-2.36,2.1-3.33,3.54-.68,1-.84,2.68-1.52,3.7s-1.86,1.48-2.64,2.5c-1.89,2.48-3.45,5.48-5.34,7.95-.79,1-1.91,1.43-2.66,2.53m-3.81-15.23h0c-.57,1.33-1,2.76-1.7,4-.87,1.65-2.49,6.63-2.87,4.61-1.21-6.27-1.65-13.53,0-19.57s6.22-9.09,9.13-13.91c.71-1.16,1-2.76,1.7-4,2.24-4.11,4.56-8.13,7-12,3.51-5.54,7.09-11,10.83-16.19.77-1.07,1.93-1.43,2.67-2.56a5,5,0,0,0,.5-2.26,29.13,29.13,0,0,0,0-4.48c-.05-.7-.05-1.63-.45-2s-1.27-.65-1.67-.08c-1.16,1.65-1.48,4.3-2.55,6.07-.74,1.23-2,1.59-2.78,2.72q-6,8.34-11.55,17.29c-.72,1.15-1,2.8-1.7,4-1.41,2.46-3.16,4.45-4.57,6.92-.6,1-.82,2.51-1.43,3.56-.36.63-1,.74-1.41,1.32-.87,1.26-1.34,3.15-2.35,4.15-.38.38-1,0-1.35-.47s-.11-1.1,0-1.64c.55-4.12.62-8.53,1.86-12.3a74.37,74.37,0,0,1,7-14.51c4.23-7.17,8.89-13.74,13.55-20.29.8-1.14,2-1.54,2.78-2.71s1-2.76,1.67-4c1-1.8,2.31-3.19,3.3-5a16.15,16.15,0,0,0,1.58-3.95,10.14,10.14,0,0,0,.12-3.07c0-.7-.05-1.62-.45-2s-1.27-.65-1.67-.07c-1.26,1.79-1.7,4.56-2.84,6.53a102.9,102.9,0,0,1-6.83,10.2c-.78,1-1.89,1.46-2.66,2.53-4.07,5.7-8.09,11.52-11.82,17.72-1.63,2.72-2.5,6.37-4.22,9-.33.5-.41-1.34-.36-2,.39-4.89.28-10.09,1.67-14.56.8-2.58,3.31-3,4.49-5.29,2.51-4.79,4.06-10.57,6.42-15.53,1-2.06,2.5-3.45,3.57-5.42,1.94-3.54,3.45-7.57,5.43-11a87.33,87.33,0,0,1,6.1-9.13c1.05-1.4,2.07-3.52,3.48-3.62.88-.07,1.3,2,1.53,3.26.11.61-.67,1-.66,1.6.33,22,1.39,43.89,1.68,65.86,0,.4-.58.16-.82,0-.58-.49-.92-1.5-1.52-1.94-.17-.13-.34.25-.48.44-1.79,2.61-3.65,5.14-5.31,8-.64,1.11-.85,2.71-1.55,3.75-2.57,3.85-5.61,6.95-8.18,10.81-.75,1.11-1,2.77-1.7,4a41,41,0,0,1-3.28,5c-1.37,1.79-3.11,2.95-4.31,5m-4.67-66.33h0c0-7.51-.3-15,0-22.52A13,13,0,0,1,249,56.65c2.54-4.58,5.7-8.31,8.71-12.21.79-1,1.92-1.41,2.66-2.53,1.19-1.79,1.87-4.27,3.06-6.06.74-1.12,1.89-1.46,2.66-2.53,3.82-5.28,6.47-12.81,11.06-16.45,1.34-1.06,1.36,4.1,1.73,6.3a9.3,9.3,0,0,1-.13,3c-.17,1-.74,1.9-.84,3a20.17,20.17,0,0,0,.14,4.53c.07.57.56.89.65,1.46a1,1,0,0,1-.3.71c-1.29,1.57-2.76,2.79-4,4.49-4.31,6.07-8.62,12.18-12.55,18.8-1.5,2.51-2.31,5.82-3.7,8.47-1,2-2.57,3.37-3.57,5.42-1.68,3.47-2.79,7.51-4.42,11-.46,1-1,2.24-1.8,2.42M20.45,59.59h0c-.35-.31-.64-1-1.05-1-.72,0-1.29,1.09-2,1.18a33.33,33.33,0,0,1-7,0,1.57,1.57,0,0,1-1.34-.68,2.18,2.18,0,0,1,0-1.63c2-5.44,4.29-10.69,6.57-15.91a50.87,50.87,0,0,1,3-6c2.41-4,5.15-7.45,7.57-11.41.84-1.38,1-4.08,2.19-4.55,3.24-1.26,6.68-.35,10-.2.47,0,1.54.12,1.31.72a46.9,46.9,0,0,1-4.88,8.44c-.65,1-1.61,1.5-2.23,2.54s-1,2.75-1.67,4c-2.53,4.61-5.56,8.61-7.87,13.47a4.84,4.84,0,0,0,0,3.08c.24.87.74,2,1.37,1.94,1-.09,1.87-1.34,2.67-2.3a25.82,25.82,0,0,0,3.06-4.59c1.3-2.54,2.12-5.6,3.46-8.1s3.16-4.46,4.57-6.92c.69-1.2,1-2.77,1.69-4,1.54-2.83,2.53-7.23,4.89-8.12,5.13-1.93,12-5.14,15.85.31,2.65,3.78-6.09,6.1-8.9,9.59a74.53,74.53,0,0,0-5.84,8.7c-.69,1.18-1,2.78-1.69,4-1.09,1.94-2.51,3.44-3.57,5.42-1.61,3-2,8.13-4.42,9.56m55.91.49h0c.84-1.85,1.56-3.84,2.51-5.56,1.08-2,2.49-3.47,3.57-5.42.59-1,.76-2.56,1.41-3.53s1.76-1.35,2.5-2.32c2-2.6,3.63-5.73,5.62-8.34.79-1,1.88-1.48,2.66-2.53,2.39-3.22,4.66-6.65,6.81-10.23.66-1.1.65-3.23,1.57-3.77a35.13,35.13,0,0,1,11.58-3.81c2.74-.49,6.76-3.16,8.28.28,1.26,2.83-4,3.14-5.9,5.09-1,1.05-1.67,2.7-2.62,3.85-.82,1-1.9,1.45-2.67,2.53q-6.6,9.3-12.81,19.22c-.72,1.15-1,2.77-1.69,4-1,1.81-2.31,3.2-3.31,5-.6,1.09-.56,3.27-1.47,3.64-4.46,1.83-9.15,2.06-13.75,2.61m-22,0h0c-10,0-20,.2-30,0-.47,0-1.12,0-1.34-.68a3.81,3.81,0,0,1,.33-2.26,32.09,32.09,0,0,1,2.22-4.81c1.1-1.93,2.48-3.47,3.57-5.42.68-1.2,1-2.8,1.69-4a93.69,93.69,0,0,1,5.84-8.71c.78-1,1.85-1.53,2.66-2.53,3.08-3.78,5.48-9,9-11.79,1.77-1.41,4-.34,6-.2.47,0,1.58.16,1.31.72-2,4.08-5,7-7.09,11s-3.53,8.45-5.43,12.55c-1.11,2.39-2.45,4.53-3.57,6.91-.59,1.26-1.48,2.46-1.54,4,0,.95.77,1.56,1.3,2.07a1.09,1.09,0,0,0,1,.17,2.86,2.86,0,0,0,1.48-.7,6.7,6.7,0,0,0,1.3-2c2.89-6.09,5.48-12.51,8.43-18.54.72-1.47,1.81-2.49,2.57-3.92.57-1.07.7-2.67,1.41-3.53,3.07-3.71,6-8.44,9.78-10,4.83-2,10-.35,15-.2.47,0,1.6.18,1.31.72-2.7,5.09-6.19,9.12-9.09,14-.7,1.17-1,2.82-1.69,4-2.31,3.84-5,7.15-7.31,11a39.42,39.42,0,0,0-3.56,7,2.76,2.76,0,0,0,.32,2c.23.39.68.26,1,.19a2.15,2.15,0,0,0,1.48-.7c2.42-3.15,4.43-7,6.83-10.16.73-1,1.86-1.2,2.49-2.32,1.38-2.41,2.09-5.54,3.41-8s3.14-4.47,4.57-6.91a55.72,55.72,0,0,0,3.57-7c.25-.62-.3-2,.17-2.16,3.7-1.63,7.58-2.21,11.41-2.93.47-.08,1.66,0,1.37.54a133.42,133.42,0,0,1-9.33,14.27c-.77,1.08-1.89,1.47-2.66,2.53C99.3,37.16,96,42,92.87,47.16c-2,3.4-2.59,9.4-5.45,11m85-1.59h0c-.33-.29-.62-.89-1-.88s-.64,1.07-1,.94c-1.15-.39-3.81-.88-3.16-2.36,3.16-7.24,8-12.46,12.23-18.38.8-1.13,2-1.54,2.78-2.71s1-2.78,1.67-3.95c1.65-2.83,3.66-5.17,5.31-8,2-3.38,2.88-8.61,5.58-10.61s5.78-.34,8.65.09c.27,0,.15.9,0,1.22a29.46,29.46,0,0,1-3,4.57c-.81,1-1.87,1.49-2.66,2.53-2,2.6-3.64,5.73-5.62,8.34-.79,1-1.85,1.54-2.66,2.53a22.29,22.29,0,0,0-2.55,3.82c-1.68,3.2-3,6.81-4.7,10-1.06,2-2.45,3.5-3.57,5.42s-2.07,4.26-3.21,6.27c-.28.49-.58,1.13-1,1.2s-.61-.9-1-.9m-14.48.49h0c-.5-.25-1-.81-1.52-.74-.71.08-1.29,1.15-2,1.15s-1.29-1.15-2-1.15-1.31,1.4-2,1.15c-.44-.16-.57-1.4-.34-2A143.7,143.7,0,0,1,159,37.18a81.12,81.12,0,0,1,7.74-10.7c.7-.9,1.69-1.22,2.38-2.15,3.21-4.36,5.29-11.12,9.28-13.68,3.7-2.36,8-.39,12,0,.27,0,.17.93,0,1.22q-7.32,11.55-15,22.53c-2.05,2.94-4.49,5.24-6.5,8.25-.74,1.11-1,2.79-1.69,4a63.16,63.16,0,0,1-4.81,7.24,12.22,12.22,0,0,1-3,2.7m-14.95,0h0c-3.69.07-7.38.35-11.07.2-.47,0-1.12,0-1.34-.68a3.58,3.58,0,0,1,.33-2.26c.46-1.08,1.28-1.72,1.79-2.74,2.57-5.08,4.71-10.65,7.43-15.54,2.29-4.12,5.14-7.48,7.58-11.41,2-3.22,3.62-6.93,5.7-10,1-1.47,2.07-3.27,3.45-3.54,4.65-.93,9.4-.38,14.08,0,.27,0,.16.92,0,1.22a107.79,107.79,0,0,1-6.31,9.45c-.79,1.05-1.87,1.51-2.67,2.53-1.54,2-2.79,4.47-4.33,6.45-.75,1-1.86,1.21-2.5,2.32-1.38,2.41-2.18,5.44-3.41,8-.44.92-1.15,1.5-1.57,2.44-1.59,3.56-2.64,7.65-4.41,11m-22.76,2.72h0c-3.68,0-7.36.22-11,0-.46,0-1.56-.13-1.3-.71,1.34-3.08,3.5-5.16,5.08-8,.6-1.06.8-2.55,1.43-3.57q4.85-7.84,10.1-15.11c.77-1.07,1.84-1.55,2.66-2.53s1.45-2.52,2.34-3.47c1.36-1.43,3-2.27,4.37-3.62a29.76,29.76,0,0,0,4-4.47c.95-1.36,1.08-4.36,2.38-4.7,2.08-.56,4.95-.2,6.15,2.42.8,1.75-2.08,2.89-3,4.53-.58,1.08-.81,2.54-1.43,3.57-2.39,4-5.28,7.28-7.57,11.41-3.52,6.35-6.29,13.57-9.79,20a17.31,17.31,0,0,1-3.4,4.07M209,55.15h0a9.55,9.55,0,0,1-2.67,0c-.38-.12-.57-.9-.94-1.06a3.16,3.16,0,0,0-2-.19c-.7.18-1.27,1.1-2,1.25a18,18,0,0,1-5,.2c-.46,0-1.15-.06-1.3-.72s.5-1,.8-1.51c3.81-5.79,7.55-11.7,11.53-17.25.77-1.07,1.88-1.48,2.66-2.53,2.66-3.59,4.84-8,7.62-11.34,2.58-3.14,5.75-5.08,8.38-8.13,1-1.19,1.39-3.52,2.53-4.48.55-.46,1.18.87,1.81.83.39,0,.57-.84.94-1a1.17,1.17,0,0,1,1.06,0c.37.19.57.84.94,1a1.17,1.17,0,0,0,1.06,0c.38-.19.61-1.16,1-1a3.14,3.14,0,0,1,2.18,2.3c.15,1.07-.94,1.69-1.52,2.35-.73.85-1.67,1.26-2.38,2.14-1.3,1.63-2.32,3.72-3.62,5.35-.71.89-1.68,1.23-2.38,2.14-.42.55-.49,1.54-.88,2.13-.72,1.06-1.67,1.72-2.4,2.75-2.59,3.66-5.23,7.27-7.55,11.31M189.45,55.11h0c-2.35.07-4.7.36-7,.22-.46,0-1.53-.12-1.3-.72,1-2.57,2.85-4.14,4.08-6.46,1.62-3,2.8-6.55,4.43-9.55a44,44,0,0,1,4.1-6.14c.8-1,1.87-1.49,2.66-2.53,1.89-2.47,3.45-5.48,5.34-7.95.7-.91,1.68-1.23,2.38-2.14,2.21-2.88,3.52-7.73,6.28-9.19,3.48-1.83,7.39-.56,11,0,.39.07,0,1.33-.34,1.69-1.33,1.5-3,2.13-4.36,3.63s-2.33,3.72-3.63,5.35c-.71.89-1.68,1.24-2.38,2.14-1.64,2.11-3,4.73-4.62,6.84-.7.9-1.68,1.24-2.38,2.14a51.62,51.62,0,0,0-4.1,6.14c-.59,1-.75,2.56-1.4,3.52-.79,1.17-2,1.54-2.78,2.71-.92,1.39-1.39,3.34-2.25,4.82m41.24,3.89h0c-.41-.54-1.41-.84-1.23-1.61.3-1.3,1.52-1.57,2.18-2.54,6.76-9.89,13.23-20.23,20.06-30,.76-1.09,1.84-1.54,2.66-2.53,1-1.16,1.63-2.8,2.63-3.86a15.8,15.8,0,0,1,4.62-3.84c.7-.3,1.34,1,2.06,1,.39,0,.59-.9,1-1a7.54,7.54,0,0,1,4.08,0,3.12,3.12,0,0,1,2.16,2.36c.14,1.07-.94,1.69-1.52,2.35-2.06,2.35-4.36,4.21-6.38,6.64-.43.52-.46,1.58-.88,2.12-1.7,2.12-3.79,3.49-5.4,5.75s-2.53,5.27-4.06,7.56c-.74,1.11-1.87,1.5-2.66,2.53a134.33,134.33,0,0,0-8.52,12c-.21.35.56.72.51,1.18-.08.64-.4,1.45-.83,1.49-2.15.23-4.31-.84-6.47-.72-.71,0-1.28,1.11-2,1.17-.39,0-.61-.89-1-.89m-15,1.19h0c-1.69-.08-3.4.24-5.06-.24-.27-.08-.13-.88,0-1.22a98.23,98.23,0,0,1,5.19-10.76c.74-1.24,2-1.58,2.78-2.72,4.25-5.93,8.09-12.49,12.34-18.42.77-1.08,1.84-1.56,2.66-2.54,2.39-2.81,4.35-6.51,7-8.81.88-.77,2.06-.23,3.08,0,.38.1.58,1,1,1,.72-.05,1.29-1,2-1.17a12.2,12.2,0,0,1,4,0c.46.06,1.36,0,1.3.72a5.07,5.07,0,0,1-1.61,2.68c-.82,1-1.89,1.46-2.66,2.53-3.81,5.3-7.44,10.89-11,16.53-.29.45-.28,1.23-.57,1.67-2.06,3.08-4.38,5.73-6.43,8.81-.3.44-.28,1.23-.57,1.67-1.22,1.82-2.7,3.23-3.93,5-.44.66-.55,1.76-1.05,2.31a9.49,9.49,0,0,1-3.42,2.68c-.39.14-.62-.82-1-1a1.2,1.2,0,0,0-1.06,0c-.37.19-.57.88-.94,1M7.23,50.35h0c-.11-1.08-.32-2.15-.33-3.24-.05-5.5-.78-11.18.14-16.5A12.06,12.06,0,0,1,10.9,24c1.91-1.76,4.23-2.29,6.43-2.88a5.87,5.87,0,0,1,4.09,0c.45.21.58,1.47.31,2.05-.74,1.61-2.09,2.38-3,3.78a69,69,0,0,0-4.12,7.12"/></g></g></svg>