<svg xmlns="http://www.w3.org/2000/svg" viewBox="0 0 149.27 137.57"><g id="Layer_2" data-name="Layer 2"><g id="Layer_1-2" data-name="Layer 1"><path d="M126.92,115.09h0c.33-2,1.07-4,1-6-.12-2.6-1.23-5.07-1.58-7.64-.7-5-1.94-10.09-1.58-15.16C125,83,127,80.09,128.05,77a1.48,1.48,0,0,0,.09-1,3,3,0,0,0-1.21-1.65c-.42-.2-1,.18-1.35.42A3.59,3.59,0,0,0,124,76c-.79,1.53-.56,3.53-1.58,4.91a35.07,35.07,0,0,1-7.77,7.66,20.34,20.34,0,0,1-6.9,2.75c-1.26.31-2.6-.17-3.9-.07-2.4.19-4.77.75-7.16,1-1.08.08-2.83.89-3.25-.1-1.36-3.19-.52-6.94-1.19-10.34A54,54,0,0,0,89.4,71.9a1.52,1.52,0,0,0-1.56-.73c-3.59.65-6.94,2.28-10.53,2.91a56,56,0,0,1-9.33.64c-3.9.06-7.8-.52-11.7-.34a1.52,1.52,0,0,0-1.38.93c-.3,1.16.32,2.4.2,3.59-.09.93-.8,1.75-.81,2.69,0,3,.78,6,.68,8.94,0,.52-.61.88-1,1.19-.16.11-.39,0-.57,0A16.35,16.35,0,0,0,51.53,91c-1.84-.3-3.75-.16-5.57-.52a16,16,0,0,1-3.38-1.26,23.1,23.1,0,0,1-3.77-1.93,42,42,0,0,1-7.34-5.62,39.57,39.57,0,0,1-7.09-9.83,15.69,15.69,0,0,1-1-7.43c.06-1.22,1.46-2.11,1.54-3.33,0-.48-1.32-.25-1.26-.73A28.59,28.59,0,0,1,26,52.51c1.75-3.93,3.38-8.06,6.16-11.33a25.13,25.13,0,0,1,9-6.52c6.4-2.81,13.27-4.45,20-6.24a38.19,38.19,0,0,1,8.55-1.35A104.36,104.36,0,0,1,83,27.75a52.68,52.68,0,0,1,8.09,1.32c2.51.63,4.84,1.85,7.33,2.58,1.16.34,2.44.17,3.57.61a24,24,0,0,1,5.89,3.1c4.31,3.28,8.9,6.42,12.22,10.69C122.8,49.5,123.83,54,125.52,58a9.75,9.75,0,0,1,.83,2.86c.08.74-.34,1.46-.31,2.21.07,1.65.71,3.27.6,4.92-.09,1.11-1,2-1.19,3.12a2,2,0,0,0,.6,1.46c.27.28.79.13,1.12.35s.63,1.25,1.21,1.23c2.22-.08,4.3-1.12,6.49-1.48.3,0,.83,0,.87.27a21.81,21.81,0,0,1-.09,5.82c-.15,1-1.08,1.86-1.15,2.88a115.08,115.08,0,0,0,.18,12.18,28.31,28.31,0,0,0,.63,5.27,4.46,4.46,0,0,0,1.11,1.73c.31.35.69.94,1.15.82a5.8,5.8,0,0,0,2.48-1.78,1.34,1.34,0,0,0,.23-1c-.25-5.26-.95-10.51-1-15.77,0-1.7.74-3.34.77-5s-1.12-3.51-.56-5.14c.86-2.46,3.71-3.88,4.57-6.34,1.39-4,1.7-8.33,2-12.56.11-1.35-.68-2.64-.77-4a6.13,6.13,0,0,1,.36-2.16c.29-1,.93-1.89,1.16-2.9s-.35-2,.1-2.77c.3-.51,1.41.09,1.72-.41a5,5,0,0,0,.57-3.22,2.73,2.73,0,0,0-1.2-1.69c-1.11-.8-2.58-1-3.65-1.83-2.43-1.91-4.26-4.54-6.75-6.37-.83-.62-2.31-.05-3-.83-.52-.58.59-1.66.18-2.33s-1.23-.52-1.83-.35a3.34,3.34,0,0,0-2.18,1.52c-.52,1.14,0,2.54-.23,3.77-.22,1-.91,1.91-1.17,2.92a31.46,31.46,0,0,0-.75,4.63c0,.41.26.82.19,1.23-.2,1.26-.91,2.41-1,3.67-.14,2.25.31,4.51.32,6.76a1.61,1.61,0,0,1-.28,1,.3.3,0,0,1-.43,0c-.47-.92-.55-2-1.1-2.92A30.92,30.92,0,0,0,122.12,42,102,102,0,0,0,110,31.39a25.93,25.93,0,0,0-7.23-3.31c-2.07-.66-4.33-.49-6.42-1.07s-5.92-.25-6-2.41c-.21-4.68,3.72-8.6,5.32-13a9.67,9.67,0,0,0,.48-2.93,12.11,12.11,0,0,0-.27-3.06,1.49,1.49,0,0,0-.65-.9A10.7,10.7,0,0,0,92,3.41C85.25,2.1,78.49.86,71.67.14a21.68,21.68,0,0,0-7,.35A5.58,5.58,0,0,0,62.13,2.3a1.41,1.41,0,0,0-.22,1c0,1.05.23,2.1.18,3.15s-.53,2.15-.5,3.25c.12,4.16,0,8.4.94,12.47.14.61,1.3.59,1.85.3a2.07,2.07,0,0,0,.82-1.68c.12-1.61-.32-3.21-.32-4.83,0-.75.35-1.49.32-2.24-.06-1.67-.69-3.3-.59-5s-.1-4,1.17-5.2c1-1,2.82-.29,4.21-.08,1,.15,1.77.9,2.72,1.12.54.12,1.12-.2,1.67-.11,1.84.29,3.6,1,5.44,1.26,1,.12,2-.37,2.94-.21s1.88.91,2.89,1.16c2.26.56,4.83.13,6.86,1.25.7.39,0,1.64-.27,2.4-.54,1.57-1.54,3-2.12,4.52-.26.71-.09,1.55-.4,2.24-.82,1.81-2.06,3.39-2.94,5.16-.25.49.13,1.53-.42,1.6a58,58,0,0,1-10.86-.2c-.56,0-1-.55-1.55-.63a16.18,16.18,0,0,0-3.48-.14,39,39,0,0,0-4.68.66c-3.87.72-7.79,1.28-11.57,2.38a95.2,95.2,0,0,0-15.36,5.5,36.52,36.52,0,0,0-9,6.51c-1.7,1.65-2.69,3.9-3.89,6s-2,4.23-3.2,6.24a1.16,1.16,0,0,1-.9.61c-.27,0-.41-.4-.45-.67a72.34,72.34,0,0,1-.8-8.31c0-1.21.59-2.38.54-3.59a10.51,10.51,0,0,0-.88-3.91c-.18-.38-1-.1-1.16-.48-.52-1.22.17-2.94-.74-3.91a2.46,2.46,0,0,0-2.93,0c-1.67,1.25-2.38,3.45-3.78,5a4.58,4.58,0,0,1-1.72,1.07c-.36.14-.85-.18-1.17,0s-.14.85-.46,1.07-.83-.14-1.17,0a9.29,9.29,0,0,0-3.29,2.38,7.89,7.89,0,0,0-1.48,4.33c0,1.66,1.09,3.15,1.35,4.78.1.63-.3,1.24-.27,1.87.07,1.67.5,3.3.59,5,.21,3.87,0,7.75.32,11.6.16,2,1.16,3.84,1.17,5.82A25.79,25.79,0,0,1,4.38,80c-.93,3.2-2.65,6.13-3.61,9.31A16.6,16.6,0,0,0,0,94.44c0,.45.52.78.91,1a4.16,4.16,0,0,0,2.49.79,2.72,2.72,0,0,0,2.12-1.59c.67-2.13.09-4.48.47-6.67a24.6,24.6,0,0,1,1.49-4.79c.65-1.64.65-4.13,2.29-4.78,2.27-.89,4.82,1,7.27,1,1.36,0,2.64-.75,4-.76,1.16,0,2.75-.27,3.41.69,1,1.46.59,3.49.67,5.26,0,.75-.33,1.48-.33,2.24,0,2.12.41,4.24.37,6.37,0,1.22-.65,2.41-.54,3.64a131,131,0,0,0,2.06,14.07,1.74,1.74,0,0,0,1,1.39,9.56,9.56,0,0,0,4.32.24,2.56,2.56,0,0,0,1.67-1.2,4.81,4.81,0,0,0,.45-2.38c0-2.13-.36-4.24-.37-6.37,0-.75.37-1.49.32-2.24-.21-3.6-.83-7.17-1.08-10.77,0-.34,0-1.08.28-1a2.86,2.86,0,0,1,1.64,1.68c.28.81-.28,1.72-.18,2.57,0,.18.34.17.52.2a2.68,2.68,0,0,0,1.3.15c.85-.28,1.42-1.43,2.3-1.36C41,92.05,43,93.4,45.07,94a18.9,18.9,0,0,0,4,.62c.92.06,1.85-.3,2.76-.23,1.28.1,3.14-.37,3.79.74,1.27,2.17.87,5,1,7.46.12,2-.26,3.9-.19,5.85.06,1.66.94,3.32.6,4.93-.73,3.44-2.8,6.47-3.71,9.86a36.67,36.67,0,0,0-1.38,9,2.09,2.09,0,0,0,1.22,1.67c.42.2,1-.18,1.35-.43.86-.52,2-.92,2.38-1.87,1.1-3.22,1-6.74,1.72-10.06a31.93,31.93,0,0,1,1.67-5.6c.22-.52,1.05-.65,1.23-1.19.37-1.13-.68-2.94.34-3.57,1.28-.8,3,.57,4.49.56,1.67,0,3.3-.65,5-.59,2.17.07,4.26,1,6.43,1,3.48,0,7-1.5,10.42-.85,1,.18.33,1.92.27,2.89-.11,1.69-.78,3.33-.78,5a172.69,172.69,0,0,0,.81,17.47,1.17,1.17,0,0,0,1.08.94,2.84,2.84,0,0,0,1.73-1.07,3.35,3.35,0,0,0,1-1.69,24,24,0,0,0,.09-5c-.13-2.86-.75-5.7-.72-8.56,0-3.65.88-7.26.93-10.9,0-.56-.77-.93-.77-1.49,0-.93.73-1.75.8-2.67.17-2.7-.37-5.43-.1-8.13a1.44,1.44,0,0,1,1-1.22c3.26-.45,6.78-1.4,9.87-.26,1.17.43-1.09,2.68-.4,3.73s2.13.71,3.21.56a1.49,1.49,0,0,0,1-1.15c.36-1.44.1-3,.38-4.42,0-.22.31-.35.52-.39,2.9-.7,5.79-2.19,8.76-1.83.94.11-.39,1.86-.41,2.81-.1,4.25.22,8.51,0,12.76,0,.56-.56,1-.63,1.55-.2,1.43-1.36,3.53-.16,4.34,2.76,1.85,6.42,1.92,9.74,2.09M87.59,105.23h0a6.44,6.44,0,0,1-.8,1.18,3.88,3.88,0,0,1-1.74,1.11,29.77,29.77,0,0,1-6.67.39c-2.16-.09-4.26-.92-6.42-1-1.67-.06-3.3.5-5,.59a13.38,13.38,0,0,1-4.6-.1,2.08,2.08,0,0,1-1.2-1.66c-.17-1,.49-2.07.4-3.11-.62-6.55-1.86-13-2.53-19.6a8.26,8.26,0,0,1,.17-3.43c.13-.37.73-.39,1.12-.35,2.27.2,4.46,1,6.73,1a98.65,98.65,0,0,0,13-.77c2.14-.26,4.82-3.09,6.29-1.52,2.38,2.55,1.53,6.83,1.92,10.3a6.4,6.4,0,0,1-.46,2.89c-.48,1.27-1.62,2.25-2,3.57a1.76,1.76,0,0,0,.6,1.47c.26.28,1,0,1.09.41.26,2.52-.3,5-.28,7.58M138.6,66h0c-1.88-1.95-4.16-3.58-5.65-5.84a15.32,15.32,0,0,1-1.95-5.7c-.09-.52.54-.94.63-1.46a57.08,57.08,0,0,0,.59-6.27c0-1.06-.26-2.1-.19-3.15.11-1.57.63-3.08.73-4.65.06-.9-.4-1.83-.24-2.73.35-2,.45-4.23,1.74-5.76.51-.61,1.35.91,1.77,1.58s0,1.59.53,2.13a16.69,16.69,0,0,0,4.19,3c1.08.6,2.36.77,3.47,1.3.19.09.4.3.37.5a48.85,48.85,0,0,1-1.36,6.1c-.25.9-.86,1.66-1.09,2.56-.42,1.64-.43,3.37-.85,5-.22.9-.94,1.64-1.09,2.55-.24,1.55.09,3.13-.06,4.68a38.33,38.33,0,0,1-.92,5.64M133,67.89h0c-.56.4-1,1.13-1.67,1.22-.47.07-.88-.44-1.15-.83a2.52,2.52,0,0,1-.49-1.47c0-.9-.25-2.27.57-2.65s1.28,1,1.74,1.58M19.74,74.11h0c-2-.1-5.48,1.63-6.11-.31-.82-2.54,2.25-4.86,3.7-7.09A3.33,3.33,0,0,1,19,65.52c.21-.07.45.21.5.42a12.73,12.73,0,0,1,.27,2.76m-5-9h0c.24.65.89,1.3.7,2a13.36,13.36,0,0,1-2.46,4.08,5.06,5.06,0,0,1-1.6,1.3c-.41.23-1.24.82-1.38.37A81.94,81.94,0,0,1,7.78,54.67c-.1-.74.36-1.46.31-2.19-.16-2.39-1.89-4.91-1-7.12,1.27-3,4.53-4.82,6.91-7.11.5-.49,1-1.13,1.71-1.2A1.1,1.1,0,0,1,16.8,38c.13,1.51-.61,3-.61,4.49,0,4.53.6,9,.64,13.58a4.11,4.11,0,0,1-.5,2.35c-.22.32-.87-.16-1.16.1"/></g></g></svg>