<svg xmlns="http://www.w3.org/2000/svg" viewBox="0 0 178.48 164.59"><g id="Layer_2" data-name="Layer 2"><g id="Layer_1-2" data-name="Layer 1"><path d="M175.86,121.94h0a2.53,2.53,0,0,0,.31-1,23.66,23.66,0,0,0-.64-3.42c-1.05-4.47-2.48-8.86-3.29-13.37a32.94,32.94,0,0,1-.73-9c.24-2.39,1.77-4.47,2.33-6.81.25-1-.1-2.11,0-3.15.23-1.55.87-3,1.08-4.57.41-3,.4-6.11.78-9.13.15-1.22.68-2.36.83-3.58.11-.92-.21-1.87,0-2.78.29-1.46,1.2-2.78,1.42-4.25.25-1.72,1-3.8,0-5.19-2.44-3.33-6.49-5.15-9.57-7.91-1.9-1.71-3.48-3.74-5.36-5.47A4.73,4.73,0,0,0,161,41a1,1,0,0,0-1,.64c-.64,1.65-.37,3.6-1.21,5.15-.28.51-1.2.07-1.75.29-.17.07-.2.32-.25.5a14.32,14.32,0,0,0-.75,3.12c0,1.26.67,2.49.52,3.73a51.92,51.92,0,0,1-2.36,11.4c-.19.52-1.36,0-1.61-.48-1.08-2.15-1-4.75-2.09-6.9a46.84,46.84,0,0,0-6.39-10.21c-2.25-2.59-5.28-4.4-8.07-6.4a41.08,41.08,0,0,0-5.7-3.5c-1.74-.87-3.69-1.26-5.47-2.08-1.5-.7-2.81-1.81-4.34-2.46-1.13-.48-2.43-.45-3.57-.9-2-.78-3.75-2-5.73-2.8-1.33-.52-3.18,0-4.17-1.08-.58-.62.79-1.53.91-2.36.44-3,.34-6.09.77-9.11.32-2.12,1.27-4.13,1.48-6.28.13-1.35-.48-2.68-.46-4,0-.92.74-1.79.56-2.69A4.25,4.25,0,0,0,108.71,2,12.94,12.94,0,0,0,104.34.42,12,12,0,0,0,100.87,0c-8.07.29-16.12,1-24.19,1.41-1.3.05-2.63-.4-3.9-.14A9.55,9.55,0,0,0,70.1,2.76c-.47.28-1.22.42-1.34,1a14.72,14.72,0,0,0-.22,5.61,111.25,111.25,0,0,0,3.2,14.06A7.45,7.45,0,0,0,73.36,26c.25.29.78.23,1.07.49.1.09.07.38-.07.42-7.87,1.91-16.11,2.58-23.72,5.35-4.72,1.72-8.8,4.9-12.78,8A55.51,55.51,0,0,0,30,48.14c-1.69,1.94-2.61,4.5-4.45,6.3-.33.33-.94-.5-1-1A16.72,16.72,0,0,1,24.8,49c.16-1.2.84-2.32.81-3.53a164.76,164.76,0,0,0-1.35-18.71,4.62,4.62,0,0,0-1.62-2.63,2.63,2.63,0,0,0-1.82-.43,1,1,0,0,0-.89.55c-.39,1.05.42,2.74-.54,3.32S17,26.8,15.7,26.85a3,3,0,0,0-1.79.94c-1.78,1.65-3,3.86-5,5.32-.84.64-2.11.3-3.06.76a15.66,15.66,0,0,0-4.24,2.74A7.53,7.53,0,0,0,.23,39.33c-.13.31-.38.78-.11,1,.67.52,1.68.39,2.42.82a1.17,1.17,0,0,1,.55.9c.11,1.42-.26,2.84-.16,4.25.18,2.59,1.09,5.12,1,7.71,0,1-1.32,1.76-1.36,2.8-.11,2.71.72,5.38.92,8.1s-.17,5.57.26,8.3a5.92,5.92,0,0,0,1.49,2.67c.45.54,1.28.71,1.74,1.24.67.78,1.56,1.59,1.6,2.61.06,2-1.13,3.83-1.3,5.81-.24,2.86.3,5.74.08,8.6-.13,1.7-.91,3.28-1.16,5-.15,1,.11,2.12,0,3.15-.25,1.65-.87,3.22-1.16,4.87-.07.41.2.84.1,1.25-.22.91-.86,1.69-1,2.61a7.46,7.46,0,0,0,0,3,3.93,3.93,0,0,0,1.09,1.76,1.24,1.24,0,0,0,.91.29c1.34-.08,2.81.07,4-.58.6-.33.53-1.28.62-2,.13-1-.1-2.11,0-3.15.25-1.68.91-3.27,1.16-5,.15-1-.07-2.11.05-3.15.18-1.59.8-3.13.86-4.73.1-3.1-.4-6.2-.37-9.3a33.43,33.43,0,0,1,.46-5c.13-.79-.11-2.38.68-2.3,2.76.26,5,2.5,7.72,3.07.67.14,1.26-.59,1.75-1.07.28-.27.16-.85.49-1.06s.92.29,1.17,0a3.65,3.65,0,0,0,.67-2.26c0-2-.8-3.91-.73-5.89.07-1.7.92-3.28,1.16-5,.13-.91-.35-1.89,0-2.75A57.14,57.14,0,0,1,30,57.47a25.23,25.23,0,0,1,4-5.71c4.4-4.3,9.3-8.08,14.08-12a9.92,9.92,0,0,1,2.67-1.63,88.31,88.31,0,0,1,10.6-3.4A147.43,147.43,0,0,1,78.05,31.6a53.44,53.44,0,0,1,9.38.08c2.4.15,4.74.85,7.14,1,1.35.06,2.7-.66,4-.46,2.29.34,4.38,1.5,6.62,2,.91.22,1.93-.08,2.81.25,1.54.59,2.81,1.76,4.31,2.45.68.32,1.5.27,2.19.57,3.06,1.33,5.93,3,9,4.31,1.13.47,2.42.47,3.57.9A10.19,10.19,0,0,1,129.31,44c3.72,2.54,7.85,4.61,11.05,7.79a28.32,28.32,0,0,1,5.35,8.5c1.7,3.73,2.31,7.88,3.84,11.68.15.38.93.18,1.08.56s-.27,1.07-.22,1.61c.12,1.4.79,2.75.74,4.15,0,.3-.6-.16-.88-.08a1.6,1.6,0,0,0-.9.55A2.19,2.19,0,0,0,149,80a2.64,2.64,0,0,0,.38,1.51c.36.51,1.47.53,1.5,1.16.08,1.31-1,2.44-1.23,3.72-.18,1,.22,2,0,2.94a10.33,10.33,0,0,1-1.49,3.19,52.09,52.09,0,0,1-4.78,6.29,48.77,48.77,0,0,1-6.2,5.82c-.33.24-.83-.15-1.22,0a1.6,1.6,0,0,0-.9.55c-.25.3-.14.83-.45,1.08a13.74,13.74,0,0,1-3.48,2.15,83.84,83.84,0,0,1-11.44,3.91,64.83,64.83,0,0,1-9.64,1.23c-.31,0-.88,0-.88-.34,0-1.51.72-2.94.91-4.44.1-.92-.16-1.86,0-2.77.24-1.66,1-3.23,1.14-4.91.11-1.35-.43-2.68-.45-4,0-1.64.4-3.27.34-4.9,0-.21-.34-.25-.54-.27-7.23-.61-14.5-.74-21.7-1.62C87.78,90,87,89,86,88.79c-1.38-.32-2.89.08-4.25-.33-1.21-.36-2.08-1.47-3.26-1.89-.88-.32-1.9,0-2.79-.29s-1.83-1-2.81-1.38a3.78,3.78,0,0,0-2-.39c-.5.11-.84.64-1.1,1.08-1.44,2.38-2.74,4.85-3.95,7.35A37.82,37.82,0,0,0,64,97.59a31.46,31.46,0,0,0-1,4.26c-.28,1.74-.26,3.52-.55,5.25a8.84,8.84,0,0,1-.77,2.58c-.08.17-.37,0-.56,0-1.29-.26-2.56-.72-3.87-.9-.91-.11-1.86.25-2.74,0s-1.77-1.19-2.79-1.36c-2.22-.36-4.51.2-6.73-.19a9.69,9.69,0,0,1-3.35-1.57,39.7,39.7,0,0,1-4.32-3.22,54.51,54.51,0,0,1-6.51-5.91,17.57,17.57,0,0,1-3.06-5.22c-.5-1.32-.08-2.88-.55-4.22s-.91-2.91-2.15-3.47a2.22,2.22,0,0,0-2.75,1.26c-.52,3,.42,6.13.94,9.15.35,2,1.81,3.83,1.65,5.85-.34,4.48-2.25,8.7-3.12,13.11-.25,1.28.12,2.65-.24,3.91-.51,1.77-1.8,3.24-2.33,5a23.55,23.55,0,0,0-1.06,6.17,19.94,19.94,0,0,0,.74,6.19,1.8,1.8,0,0,0,1.48,1.21c2,.13,3.92-.6,5.89-.72,1.3-.08,2.64.41,3.91.13a6.37,6.37,0,0,0,2.62-1.62,1.26,1.26,0,0,0,.3-1c0-2.41-.49-4.81-.4-7.21,0-1.21.76-2.33.81-3.54s-.61-2.48-.52-3.73c.25-3.38-.49-7.34,1.54-10.06,1-1.29,2.73,1.72,4.23,2.32.52.21,1.14-.12,1.68,0a14,14,0,0,1,4.08,1.48c.44.29.48,1,.5,1.47.07,1.4-.38,2.8-.21,4.18a1.75,1.75,0,0,0,.87,1.08,4.34,4.34,0,0,0,2.18.89c.32,0,.14-.69.41-.85s1,.35,1.16,0c.49-1.29,0-2.79.42-4.1.15-.51.59-1.15,1.12-1.11a50.38,50.38,0,0,1,10.9,1.89c.5.15.52,1,.5,1.47-.05,2-.71,4.06-.71,6.11s.78,3.9.75,5.87c0,2.41-.84,4.75-1,7.15-.16,2.87.25,5.74.08,8.6-.08,1.23-.67,2.37-.83,3.59-.11.91.18,1.86,0,2.77-.45,2.6-1.39,5.1-1.82,7.7a7.11,7.11,0,0,0,0,3.08A5.56,5.56,0,0,0,60.51,164c.47.41,1.34.76,1.85.38a4.57,4.57,0,0,0,1.51-2.86c.46-2.53.05-5.17.44-7.72.47-3.06,1.74-6,2.13-9,.18-1.35-.46-2.7-.45-4.07,0-2.59-1.62-6.35.55-7.74,2.47-1.57,5.65,1.66,8.57,1.9,3.59.3,7.22-.46,10.82-.26,1.69.09,3.28.91,4.95,1.15.92.14,1.87-.17,2.78,0a14.26,14.26,0,0,1,5.06,1.34c.45.28-.36,1.07-.22,1.58.66,2.48,2.15,4.73,2.59,7.27.9,5.2.62,10.55,1.41,15.77.06.4.86.21,1.07.55s-.29.94,0,1.21a4.7,4.7,0,0,0,2.67,1.14,1.77,1.77,0,0,0,1.39-.91,4.79,4.79,0,0,0,.64-2.35,43,43,0,0,0-.22-8.1c-.53-3.48-1.83-6.81-2.57-10.25a23.62,23.62,0,0,1-.85-5.64c0-1.69.94-3.27,1.15-5,.33-2.57,0-5.2.45-7.75s.6-5.52,2-7.81c.45-.73,1.7.52,2.54.38s1.52-1.14,2.4-1.18,1.69.84,2.61,1a7.39,7.39,0,0,0,2.52-.14c3.26-.58,6.45-1.55,9.73-2a2.26,2.26,0,0,1,1.53.38c.23.15,0,.64.26.8.72.48,1.56,1.17,2.39,1s1.18-1.16,1.39-1.92c.28-1-.74-2.42,0-3.17s3.36-1.39,3.33-.28c-.09,5.19-2.71,10-3.59,15.17-.36,2.1.09,4.26-.12,6.38-.15,1.51-1.09,2.93-1,4.43a3.7,3.7,0,0,0,1.6,2.61,8.47,8.47,0,0,0,3.7,1c1,.14,2.37.66,3.08-.08,1.05-1.09.7-3,1.22-4.39.32-.87,1-1.58,1.28-2.46a57.69,57.69,0,0,0,2.35-9.75c.55-4.63-.07-9.34.48-14a34.52,34.52,0,0,1,2.21-8.84,1.91,1.91,0,0,1,1.75-1.07c2.45.15,4.74,1.44,7.18,1.62,3,.22,6.83-2.43,9.1-.41,2.76,2.46,2.05,7.14,2.56,10.8.48,3.49-.17,7.1.43,10.57.11.59,1,.82,1.56.89a7.7,7.7,0,0,0,3.85-.26m-13.73-29h0c-.41.21-.77.63-1.23.66-2.1.08-4.82,1.16-6.29-.34-1.09-1.11,1.35-2.83,1.71-4.35a27.56,27.56,0,0,0,0-3.15c.08-.72-.14-1.87.55-2.12s1.71.53,2.46,1a1.69,1.69,0,0,1,.59,1M99.43,131.14h0a62.36,62.36,0,0,1-6.7,0c-2.15-.24-4.16-1.33-6.33-1.49-3.6-.25-7.22.45-10.83.27a15.25,15.25,0,0,1-4.25-1,7.8,7.8,0,0,1-2.72-1.43,2.16,2.16,0,0,1-.5-1.49,46.14,46.14,0,0,1,0-6.11,15.94,15.94,0,0,1,.72-4.58c.11-.31.78.29,1,0a8.12,8.12,0,0,0,1.62-3.69c.06-.5-.62-.84-1.07-1.1s-1.76,0-1.9-.62c-.4-1.91.2-3.91.55-5.83a75.82,75.82,0,0,1,2-8.39c.4-1.33.31-3.52,1.66-3.84s2.27,2.07,3.66,2.64A30.62,30.62,0,0,0,83,96c1,.17,2.12-.13,3.16.06,2.47.42,4.83,1.46,7.32,1.73,4,.44,8-.12,12,.37.39,0,.34.75.28,1.14-.28,1.88-1,3.67-1.3,5.54-.08.41.19.84.09,1.24-.55,2.28-1.53,4.45-2,6.74-.21,1,.12,2.1,0,3.13a32.68,32.68,0,0,1-1.28,5.25c-.3.93-1.15,1.66-1.32,2.62M166.3,89h0c-.37-.28-.85-.45-1.11-.83-1.43-2.11-3.22-4.1-3.91-6.56-.33-1.17,1.52-2.32,1.11-3.47-.31-.92-1.84-.63-2.7-1.1a.67.67,0,0,1-.35-.57A93.52,93.52,0,0,1,160.1,67c.45-3.11,1.58-6.1,1.93-9.22.29-2.58-2.59-8,0-7.78,4.21.3,6.46,5.45,9.44,8.45a4.45,4.45,0,0,1,1.6,2.64c.09,1.85-.71,3.63-1.23,5.41-.11.4-.57.65-.65,1.07-1,4.93-1.33,10-2.45,14.89M104,28.37h0a27.41,27.41,0,0,0-3.94-.92c-7.34-.56-14.76-.07-22-1.08-.66-.09.17-1.4-.14-2-.18-.35-.83-.17-1.12-.45a4.24,4.24,0,0,1-1.1-1.78c-.46-1.68-.42-3.47-.81-5.18-.47-2.09-1.38-4.07-1.76-6.19a8.45,8.45,0,0,1,0-3.84c.17-.53.9-.76,1.45-.83,1.29-.17,2.6.24,3.9.14,1.86-.13,3.67-.69,5.53-.83,5.76-.45,11.53-.8,17.3-1a6.68,6.68,0,0,1,3.45.43A2.81,2.81,0,0,1,106,7.18a120.55,120.55,0,0,1-1.22,14.42c-.13,1.19-.67,2.33-.81,3.53M18.68,77h0c-1.46-.68-3-1.22-4.38-2-.12-.07-.06-.36.07-.42a29.32,29.32,0,0,0,3-1c.34-.19.17-.84.5-1s.84.2,1.17,0,.23-.77.49-1.06.56-.58.9-.54.41.43.4.71a32.47,32.47,0,0,1-.63,5.65.69.69,0,0,1-.7.49M10.5,71.89h0c-.46.14-1.33.89-1.39.41-.44-3.31.22-6.7.1-10a85.65,85.65,0,0,0-.78-8.59C8,50.76,7.19,47.93,6.85,45c-.26-2.24-.92-4.64-.2-6.78.29-.88,1.87-.25,2.7-.66a30,30,0,0,0,6-3.65A17.7,17.7,0,0,0,18.44,30c.3-.46.24-1.1.54-1.56.08-.12.33-.05.42.06A2.47,2.47,0,0,1,20,29.69c.35,3.14.51,6.29.63,9.45a74.54,74.54,0,0,1,0,7.91c-.12,1.73-.93,3.38-.92,5.11,0,2.71,1.36,5.4.92,8.08-.35,2-1.83,3.71-3.17,5.26M29,130.89h0c-.44.14-1.07.81-1.32.43s.53-.83,1-1"/></g></g></svg>