<svg xmlns="http://www.w3.org/2000/svg" viewBox="0 0 133.78 37.11"><defs><style>.cls-1{fill:#6e6f77;}</style></defs><g id="Layer_2" data-name="Layer 2"><g id="Layer_1-2" data-name="Layer 1"><path class="cls-1" d="M67.28,35.29h0c7.86-.58,15.74-1,23.59-1.73,3.17-.27,6.3-1,9.48-1.15.43,0,.66.72,1.08.68,6.34-.63,12.58-2,18.92-2.68.41,0,.63.55,1,.68a2.24,2.24,0,0,0,1.09,0,58.24,58.24,0,0,0,8.73-1.67c1-.34,2.54-1,2.58-2.07.21-6-1-11.94-1.88-17.85A18.38,18.38,0,0,0,130.14,4,6.53,6.53,0,0,0,128.08,2c-.81-.63-1.61-1.52-2.63-1.58a243.39,243.39,0,0,0-25-.13c-5,.22-10,1.47-15,1.83-.4,0-.62-.55-1-.68a2.85,2.85,0,0,0-1.09,0C66.16,2.3,49,3.07,31.84,4.22c-4.18.28-8.33.87-12.48,1.46-2.65.37-5.23,1.24-7.91,1.44-.73,0-1.36-.78-2.1-.71C6.73,6.66,3.13,5.88,1.62,8-.63,11.25.32,15.79.05,19.71c0,.41.68.61.68,1,0,.71-.64,1.32-.64,2,0,.39.56.6.65,1a5.36,5.36,0,0,1,.14,2c-.15,1-1.11,2-.83,3s1.82,1.48,2.34,2.5c.23.44-.48,1-.3,1.47a2.88,2.88,0,0,0,1.6,1.77c4.47,1.27,9.06,2.54,13.71,2.59m43.49-17.4h0a25.69,25.69,0,0,1,0,3c-.06.47,0,1.37-.52,1.34a26.92,26.92,0,0,1-7.13-1.83c-.53-.2-1.49-.67-1.23-1.17.62-1.23,2.25-1.62,3.18-2.65a6.27,6.27,0,0,0,1.57-2.64c.31-1.32.62-2.87,0-4.07a4.27,4.27,0,0,0-3.29-2.34c-2.28-.09-5.1.18-6.56,1.92-2.13,2.53-2.3,6.22-3,9.45a8.54,8.54,0,0,0,.13,4c.17.62.83,1.7,1.38,1.35,1.19-.76.79-3.63,2.2-3.63,2.54,0,4.29,2.87,6.72,3.61a12.42,12.42,0,0,0,5.08,0c.39,0,.56-.6.95-.7.82-.22,1.9.36,2.53-.21,1-.92.37-3.83,1.72-3.69,2.71.29,4.33,3.34,6.75,4.6a3.07,3.07,0,0,0,2,0c.38-.08.6-.77,1-.65.81.28,1.2,1.29,2,1.65.51.23,1.28.43,1.68,0a15.36,15.36,0,0,0,2.71-4.33c.24-.49-.17-1.23.22-1.61a7.18,7.18,0,0,1,3.36-1.81,2,2,0,0,1,1.85.68c1.11,1.31,1.41,3.2,2.55,4.49a9.1,9.1,0,0,0,3.64,2.54,2.54,2.54,0,0,0,2.36-.32,1.31,1.31,0,0,0,.06-1.66c-1.1-1.27-3-1.67-4.06-3-1.21-1.48-1.59-3.5-2.59-5.13-.38-.63-1.11-1-1.54-1.6-1.15-1.61-1.81-3.6-3.18-5a1.27,1.27,0,0,0-1.7,0c-1.27,1.81-1.6,4.15-2.6,6.13a2.72,2.72,0,0,1-1,1c-.94.58-2.62.41-3,1.46s1.5,1.7,1.57,2.75a1.43,1.43,0,0,1-1.29,1.37,15.47,15.47,0,0,1-5.77-1.61c-.73-.32-1.93-1-1.62-1.74.77-1.84,2.89-2.76,4.15-4.3a6.17,6.17,0,0,0,1.53-2.66,1.6,1.6,0,0,0-.83-1.5A12.94,12.94,0,0,0,67.4,9.4c-1.36,0-2.55.95-3.73,1.6a2.62,2.62,0,0,0-1,1A13.88,13.88,0,0,0,61,15.69M66.2,31.53h0c-12.61.56-25.2,1.4-37.81,1.69-.71,0-1.29-.77-2-.77s-1.29.72-2,.79a39,39,0,0,1-7,0c-1-.11-2-.87-3-1C11.88,32,8.6,34,6.83,32.17,4,29.31,3.44,24.74,3,20.74c-.34-3.28-1.17-8,1.65-9.77,5.53-3.38,12.79-2.1,19.21-3,2.71-.38,5.44-.63,8.17-.79,15.59-.9,31.19-1.47,46.77-2.38,12.17-.7,24.31-1.89,36.49-2.44.72,0,1.32.7,2,.71s1.32-.64,2-.64c.39,0,.6.53,1,.64a1.74,1.74,0,0,0,1.06,0c.38-.12.61-.76,1-.66,1.09.28,1.88,1.25,2.92,1.68.53.23,1.23-.06,1.72.26a2.85,2.85,0,0,1,1,1.47,23.22,23.22,0,0,1,1.84,5.92c.41,4.46,2.7,9.9,0,13.45-2.49,3.23-8,1.69-12,2.22-6.5.86-13,1.44-19.58,2M83.42,17h0a5.68,5.68,0,0,1-.36-1.31c0-.15.25-.4.33-.28a2.46,2.46,0,0,1,.33,1.33M69.37,13.27h0c0,.32.2.69,0,1a4.57,4.57,0,0,1-2,1.88,2.59,2.59,0,0,1-2.37-.32,1.38,1.38,0,0,1,0-1.66,3.94,3.94,0,0,1,2.34-1.73M53.09,16.53h0c-1.56.85-3.06,1.82-4.68,2.54-.14.07-.34-.14-.36-.3a10.39,10.39,0,0,1,0-3,2.55,2.55,0,0,1,.9-1.51,10.8,10.8,0,0,1,3.39-1.82c.46-.14,1.22-.11,1.4.33a5.54,5.54,0,0,1,0,3M40.35,13.25h0c.79-.16,1.91.18,2.38-.47s.44-2.11-.31-2.37c-2.22-.76-4.69-.38-7-.15-6.68.68-13.26,2.2-19.95,2.86-.73.07-1.37-.85-2.09-.69a6.33,6.33,0,0,0-2.95,1.81c-.36.38-.72,1.17-.35,1.54a2.91,2.91,0,0,0,2.33.45c1-.1,2-.86,3-1,.79-.08,2.15-.32,2.33.45.77,3.25.32,6.69.15,10,0,.71-.89,1.29-.79,2s.75,1,1.28,1.35a1.49,1.49,0,0,0,1,.12,2.26,2.26,0,0,0,1.34-.44c.25-.25.15-.69.15-1a24.65,24.65,0,0,0-.14-4c-.11-.7-.75-1.26-.83-2a8.56,8.56,0,0,1,.13-4,7.25,7.25,0,0,1,2.72-3.37c.73-.47,1.75-.16,2.63-.08.47,0,1.07.06,1.34.45s0,.92-.15,1.33c-.4.94-1.37,1.64-1.55,2.65a16.15,16.15,0,0,0,0,6.08c.17.79,1,1.26,1.66,1.76a13.53,13.53,0,0,0,2.64,1.57,1.53,1.53,0,0,0,1.05.11,51.17,51.17,0,0,0,7.67-2.67,4.26,4.26,0,0,0,1.67-1.77c.18-.31.3-.88,0-1.06a3.39,3.39,0,0,0-2.36-.32c-.55.12-.77.83-1.25,1.1a13.35,13.35,0,0,1-3.67,1.62,8.45,8.45,0,0,1-4.09,0c-.45-.13-.41-.87-.45-1.34-.1-1.17-.92-2.85.05-3.51,2.74-1.85,6.36-1.84,9.48-2.92.44-.15,1.17-.3,1.16-.76s-.7-.88-1.18-1.16a2.1,2.1,0,0,0-1-.13,7.56,7.56,0,0,0-2,.13c-.38.11-.56.64-.95.7a5.58,5.58,0,0,1-3.06,0c-.43-.17-.47-.93-.31-1.37a2,2,0,0,1,1.32-1.32m87,12h0a8.42,8.42,0,0,0,2.53-.66,10.06,10.06,0,0,0,2.52-2.52c.16-.22.29-.75,0-.82a5.85,5.85,0,0,0-3.08,0c-1.08.31-1.8,1.47-2.89,1.72a18.15,18.15,0,0,1-5,.12c-.48,0-1.14,0-1.35-.45-.37-.75-.81-2-.11-2.5,2.41-1.57,5.5-1.71,8.17-2.78a1.17,1.17,0,0,0,.62-.72c.12-.34.23-.8,0-1.06a1.63,1.63,0,0,0-1.34-.44c-1,.13-2,.86-3,1-1.4.12-3.81,1-4.21-.3s2.25-1.54,3.51-2c3.57-1.35,7.44-1.83,10.9-3.43.48-.23-.65-1-1.17-1.09a11,11,0,0,0-4.09,0,30.33,30.33,0,0,0-6,1.74c-1.93.75-4.21,1.23-5.56,2.81s-.57,3.95-1.63,5.58c-.81,1.26-2.37,1.85-3.66,2.6a2.11,2.11,0,0,1-1.06.13,15.39,15.39,0,0,1-4-.14A2,2,0,0,1,97,20.78a6.73,6.73,0,0,1,0-3.06c.07-.38.6-.56.7-.94.23-.86-.2-1.9.25-2.66a5.56,5.56,0,0,1,2.35-1.73,2.09,2.09,0,0,1,1.06-.12,4.88,4.88,0,0,1,2,.13c.78.35,1.12,1.56,2,1.65.61.07,1.2-.69,1.3-1.3a1.85,1.85,0,0,0-.84-1.54c-1-.8-2.17-1.91-3.46-1.81A11.91,11.91,0,0,0,95.63,12c-1.24,1.08-1.34,3-1.61,4.65a13,13,0,0,0,0,5.09c.19.78,1,1.26,1.66,1.76a6.64,6.64,0,0,0,2.64,1.57,17,17,0,0,0,6.11,0c1.1-.2,1.81-1.87,2.91-1.68,1.33.22,1.73,2.27,3,2.67,1.91.6,4,.31,6,.14"/></g></g></svg>