<svg xmlns="http://www.w3.org/2000/svg" viewBox="0 0 219.2 42.89"><g id="Layer_2" data-name="Layer 2"><g id="Layer_1-2" data-name="Layer 1"><path d="M26.18,42.54h0c.35-.48.5-1.22,1.05-1.46a22.87,22.87,0,0,1,6.45-1.89c.73-.09,1.32.72,2,.82a9.57,9.57,0,0,0,3-.13c.38-.08.58-.65,1-.66s.61.6,1,.6.62-.6,1-.6.61.53,1,.65a1.79,1.79,0,0,0,1,0c.37-.13.56-.68,1-.69.7,0,1.31.63,2,.64.39,0,.62-.62,1-.6.72,0,1.29.77,2,.77s1.29-.74,2-.77c.41,0,.64.68,1.05.64,4.34-.36,8.6-1.5,13-1.81.71,0,1.28.73,2,.77.39,0,.62-.62,1-.6.72.05,1.29.73,2,.79a50.75,50.75,0,0,0,8,0c.71-.06,1.29-.79,2-.79s1.29.77,2,.79q16,.36,32,0c.72,0,1.29-.75,2-.79.39,0,.6.53,1,.65a3.12,3.12,0,0,0,1.1,0c11.79-.56,23.6-1,35.39-1.75,4.19-.25,8.36-.82,12.55-1.1a6.23,6.23,0,0,1,2,.13c.38.1.58.65,1,.65s.59-.57,1-.65a16.89,16.89,0,0,1,3-.15,39.71,39.71,0,0,1,5,0c.71.08,1.29.74,2,.78.39,0,.62-.61,1-.6s.59.58,1,.66a16,16,0,0,0,3,.14c7.67,0,15.34.27,23,0,1.05,0,2-.84,3-1a2.55,2.55,0,0,1,1.49.47c.57.35.87,1.09,1.49,1.35a4.17,4.17,0,0,0,2,.14c.47,0,1.12,0,1.35-.46a3.13,3.13,0,0,0,0-2c-.09-.38-.78-.61-.66-1,.28-.81,1.29-1.19,1.64-2a1.7,1.7,0,0,0-.15-1.33c-.4-.94-1.13-1.71-1.55-2.64a2,2,0,0,1-.11-1.06,4,4,0,0,1,.47-1.48c.35-.57,1-.9,1.35-1.49a1.09,1.09,0,0,0,0-1.05,9.11,9.11,0,0,0-2.62-2.73c-3-1.79-6.39-2.82-9.45-4.5-.65-.35-1-1.11-1.6-1.54a11.75,11.75,0,0,0-2-1c-1.87-.88-3.65-2.06-5.66-2.54-.72-.17-1.37.79-2.1.69A23.7,23.7,0,0,1,189.26,10c-.33-.15.1-.8-.14-1.08a9.9,9.9,0,0,0-2.71-2.15c-2.95-1.59-6.15-2.66-9.12-4.2C176,1.89,175,.85,173.75.17a1.4,1.4,0,0,0-1-.12A12.94,12.94,0,0,0,169,1.74a10.87,10.87,0,0,0-3.66,3.76c-.63,1.34,1.06,3.63-.18,4.45-2.67,1.77-6.24,1.52-9.43,1.91-.4.05-.63-.64-1-.64s-.63.67-1,.65c-7.67-.39-15.3-1.35-23-1.85a12.23,12.23,0,0,0-3,.15c-.7.14-1.28.71-2,.84a4.92,4.92,0,0,1-2-.13c-.38-.1-.59-.66-1-.66s-.59.56-1,.66a4.93,4.93,0,0,1-2,.13c-.71-.12-1.29-.79-2-.79s-1.28.77-2,.79q-18.5.38-37,0c-.72,0-1.29-.74-2-.79-.38,0-.61.6-1,.6s-.61-.6-1-.6-.61.6-1,.6-.61-.6-1-.6-.6.53-1,.65a1.79,1.79,0,0,1-1,0c-.37-.13-.58-.56-1-.69a1.71,1.71,0,0,0-1,0c-.37.12-.59.64-1,.64s-.59-.55-1-.65a8.07,8.07,0,0,0-2-.15,25.65,25.65,0,0,0-4,.15c-.39.06-.59.64-1,.65s-.61-.61-1-.6-.59.56-1,.66a5.54,5.54,0,0,1-2,.14c-1.36-.16-2.65-.79-4-.84-.4,0-.62.79-1,.67a51.08,51.08,0,0,1-7.41-3.31c-1.6-.8-3-1.94-4.64-2.71a43.59,43.59,0,0,0-6.93-2.78,1.93,1.93,0,0,0-1.48.47A9.11,9.11,0,0,0,28,4.8a13.6,13.6,0,0,0-1.61,3.66c-.23.79.64,2.26-.15,2.47C19.52,12.66,12.5,12.64,5.7,13.82A7.47,7.47,0,0,0,2.76,15c-.95.65-2.11,1.38-2.39,2.5a17.41,17.41,0,0,0,0,7.08c.19,1.11,1.74,1.78,1.73,2.92,0,1-1.33,1.49-1.76,2.38a1.28,1.28,0,0,0,0,1.27A7.1,7.1,0,0,0,3,33.25c2.38,1.07,5,1.35,7.41,2.44,2,.92,3.55,2.7,5.58,3.55,2.35,1,5.05.94,7.41,1.88.76.31,1,1.4,1.71,1.77m-.6-5.13h0c-2.47-.8-5-1.47-7.41-2.4A7.08,7.08,0,0,1,14.75,34c-.21-.18-.33-.83-.05-.83,1.37,0,2.65.82,4,.82.72,0,1.28-.67,2-.84a4.92,4.92,0,0,1,2-.13c.7.12,1.27.7,2,.84a10.91,10.91,0,0,0,3,.13c5-.47,10-1.47,15-1.83.43,0,.66.71,1.09.69,9.32-.65,18.59-2,27.91-2.69.43,0,.66.73,1.08.68,3.36-.35,6.6-1.69,10-1.82,12-.48,24-.25,36,0,.72,0,1.29.75,2,.78.41,0,.64-.66,1-.64,7.67.34,15.32,1,23,1.71,3,.27,6,.91,9,1.12a45.31,45.31,0,0,0,7,0c.71-.06,1.29-.74,2-.79.39,0,.62.63,1,.6.72,0,1.3-.69,2-.78a9,9,0,0,1,3,.13c.38.08.57.6.95.71a7.59,7.59,0,0,0,2,.14c10,0,20,.24,30,0,.72,0,1.29-.85,2-.79.54.05,1.39.58,1.21,1.09a2.73,2.73,0,0,1-2.15,1.57c-1.05.15-2-.82-3.06-.84-12.66-.26-25.33-.42-38,0-6,.19-12,1.47-18,1.83-.43,0-.66-.7-1.09-.69-18,.37-36,1.54-54,1.81-1,0-2-.92-3-1-8.32-.29-16.67-.37-25,0m153-2.21h0c-2.45-1.55-5.25-2.67-7.37-4.66-.43-.41.68-1.06.66-1.65s-.74-1.28-.78-2a6.06,6.06,0,0,1,.45-3.33c.22-.39.92,0,1.34.15a9,9,0,0,1,2.38,1.4A9.71,9.71,0,0,1,213,25.52c.19.36-.7.64-.63,1,.31,1.7,1.33,3.21,1.7,4.9M24.25,29.55h0A9.73,9.73,0,0,0,21.73,29c-.72.05-1.29.67-2,.84a5.31,5.31,0,0,1-2,.13c-.71-.13-1.28-.7-2-.84a9.29,9.29,0,0,0-3-.13c-.71.1-1.27.73-2,.84-1.48.21-3.34,1.05-4.5.09-1.47-1.21-1.49-3.52-1.9-5.39C4.1,23.41,3.63,22,4.3,21a8.31,8.31,0,0,1,4.4-2.8c.67-.22,1.3.6,2,.7a6.82,6.82,0,0,0,3.05,0c.82-.27,1.21-1.25,1.95-1.7a2,2,0,0,1,1-.13c3,0,6-.23,9,0,.73.05,1.31.86,2.05.83,7.33-.31,14.63-1.35,22-1.85a27.83,27.83,0,0,1,5,0c.71.08,1.29.75,2,.78.39,0,.6-.55,1-.65a8.52,8.52,0,0,1,2-.15q48-.06,96,0a8.57,8.57,0,0,1,2,.15c.38.1.58.65,1,.65s.59-.6,1-.65a38.22,38.22,0,0,1,5-.15,8.07,8.07,0,0,1,2,.15c.38.1.58.67,1,.65.72,0,1.29-.76,2-.78,8.66-.25,17.33-.06,26,0a4.44,4.44,0,0,1,2,.15,16,16,0,0,1,3.37,2.72c.14.14.09.39.09.59,0,1.89.5,3.88-.09,5.68-.3.92-1.49,1.26-2.34,1.73a2.23,2.23,0,0,1-1.06.12c-9.33,0-18.67.26-28,0-.72,0-1.28-.67-2-.84a5.12,5.12,0,0,0-2-.13c-.71.11-1.29.74-2,.78-.38,0-.61-.62-1-.6-.71.05-1.29.72-2,.79a39.92,39.92,0,0,1-6,0c-5.12-.27-10.22-.87-15.34-1.14-13.55-.72-27.1-2.34-40.66-1.83-23.07.87-46,4.09-69,6a24.16,24.16,0,0,1-4,0M31.4,11.57h0c.11-.45-.15-1.34.32-1.35s1.44.71,1.3,1.31m146.37-1h0c0-.69-.36-1.47,0-2.07a1.2,1.2,0,0,1,1.4-.33c1.22.53,2.82,1.09,3.24,2.36.25.74-1.51.48-2.3.49m-8.95-.17h0a12.75,12.75,0,0,1-2,.16c-.47,0-1.08-.06-1.34-.46s0-.93.15-1.33a5,5,0,0,1,1.55-2.06c.33-.21.79.14,1.12.36s.79.55.86,1"/></g></g></svg>