<svg xmlns="http://www.w3.org/2000/svg" viewBox="0 0 166.98 40.92"><defs><style>.cls-1{fill:#6e6f77;}</style></defs><g id="Layer_2" data-name="Layer 2"><g id="Layer_1-2" data-name="Layer 1"><path class="cls-1" d="M28.25,33.91h0c.36-.23.66-.7,1.09-.68q46.16,1.91,92.28,4.53c13.59.78,27.12,2.31,40.71,3.16a.8.8,0,0,0,.69-.59,154.4,154.4,0,0,0,3.65-15.69c.16-1.05-.74-2-.71-3.09,0-.71.79-1.26.83-2a86.13,86.13,0,0,0-.12-13A5.32,5.32,0,0,0,165,2.8c-1.6-1.18-3.75-1.36-5.7-1.71a8.29,8.29,0,0,0-3,.13c-.39.08-.59.67-1,.66-.71,0-1.28-.78-2-.77s-1.26.78-2,.81-1.32-.64-2-.64c-.39,0-.59.59-1,.65a28.48,28.48,0,0,1-4,.15,37.76,37.76,0,0,1-5,0c-1.05-.13-2-.92-3-1-6-.28-12-.23-18,0-.72,0-1.29.74-2,.79-.39,0-.61-.61-1-.6s-.59.59-1,.65a27.06,27.06,0,0,1-4,.15c-6.33,0-12.67.26-19,0-1.06-.05-2-.86-3-1a19.12,19.12,0,0,0-6,0c-1.15.26-1.75,1.87-2.91,2-7,.58-14,.06-21,0a8,8,0,0,1-2-.15c-.38-.11-.56-.69-1-.7-.73,0-1.34.7-2.07.69-3.85-.08-7.66-.74-11.5-1Q23.54.88,5.3.09a12.58,12.58,0,0,0-4,.14C.68.39-.06,1,0,1.58c.09.85,1.34,1.18,1.6,2,.12.38-.66.63-.63,1,.07,1.11.71,2.1.9,3.19A108.5,108.5,0,0,1,3.64,19.53c0,.74-.83,1.31-.81,2,0,1.06,1.26,2,.94,3-.4,1.3-2.16,1.74-2.81,2.93-.25.47-.12,1.36.38,1.55A54.84,54.84,0,0,0,11,31.33M6.8,15.62h0a29.62,29.62,0,0,0-.13-4.11C6.28,9.18,5.08,7,5,4.61c0-.48.86-.5,1.34-.52,3.34-.11,6.8-.7,10,.13,1,.25-1.71,1.1-2.43,1.8-.14.14-.06.4,0,.58,1.83,5.26,3.48,10.6,5.65,15.72a3.64,3.64,0,0,0,1.7,1.61c.45.23,1.24.52,1.5.09,1.3-2.13,1.07-5.08,2.68-7,.53-.63,1.19,1.18,1.64,1.87.91,1.4,1.43,3,2.42,4.37a17.35,17.35,0,0,0,3.31,3.32,2.2,2.2,0,0,0,1.51.34.8.8,0,0,0,.67-.56c.73-3.2,1.67-6.43,1.67-9.72,0-2.67-.94-5.26-1.66-7.83a1,1,0,0,0-.68-.57,1.44,1.44,0,0,0-1.08,0c-.87.42-2.24.74-2.34,1.69s1.73,1.56,1.88,2.62c.4,3.06,2.46,7.88-.3,9.26-2.44,1.22-2.77-4.72-4.4-6.9a9.08,9.08,0,0,0-2.76-2.66,3.2,3.2,0,0,0-2,0,.72.72,0,0,0-.49.38c-.66,1.11-.51,3.18-1.78,3.43-1,.21-1.16-1.79-1.54-2.78-1-2.5-2.15-5-2.5-7.65-.08-.63.68-1.3,1.31-1.38a50.81,50.81,0,0,1,10-.14c11.68.74,23.3,2.43,35,3,9,.43,18,.14,27,0a3,3,0,0,0,1.48-.48c.58-.35.92-1,1.5-1.35a2.07,2.07,0,0,1,1-.14,34.63,34.63,0,0,1,5,0c.71.09,1.27.7,2,.84a16,16,0,0,0,3,.15,16.12,16.12,0,0,0,3-.15c.7-.14,1.26-.83,2-.84,16.66-.27,33.33-.15,50,0a3.12,3.12,0,0,1,1.48.48,5.42,5.42,0,0,1,1,1,4.12,4.12,0,0,1,.85,1,2.37,2.37,0,0,1,.14,1c0,2,.13,4,0,6,0,.46-.06,1.12-.48,1.31s-.6-.57-1-.66a5.87,5.87,0,0,0-2.09,0c-3.45.54-6.89,1.16-10.29,2a1.32,1.32,0,0,0-1,.7c-.33,1.06.28,2.35-.23,3.34s-2.6,1.18-2.7,2.37,1.62,1.61,2.3,2.51c.22.29.65.77.39,1a11.22,11.22,0,0,1-4.36,2.81,10.52,10.52,0,0,1-5.05,0c-.62-.13-1-.8-1.33-1.33a2,2,0,0,1-.13-1,20.78,20.78,0,0,1,.12-5.05,8.53,8.53,0,0,1,1.84-2.92,5,5,0,0,1,1.49-1.37,1.23,1.23,0,0,1,1.06,0c.76.42,1.13,1.64,2,1.67a2.62,2.62,0,0,0,2.18-1.54c.23-.49-.4-1-.78-1.42a6.37,6.37,0,0,0-2.37-1.73,6.18,6.18,0,0,0-3.08,0c-.43.08-.67.55-1,.85a15.12,15.12,0,0,0-2.73,2.75,13.87,13.87,0,0,0-1.64,4.69,14.15,14.15,0,0,0,0,5.11,7,7,0,0,0,1.58,2.64c.49.63,1,1.49,1.76,1.66a13.29,13.29,0,0,0,6.08,0c1.53-.41,2.37-2.86,3.94-2.66,1.79.22,2.29,3,4,3.65,1.87.71,4,.28,6,.13,1-.08,2-1,3-.82.47.07.41.87.46,1.34a3.45,3.45,0,0,1-.14,2c-.25.41-.88.43-1.35.46a26,26,0,0,1-5,0c-.71-.08-1.27-.8-2-.83s-1.35.76-2.07.69c-5.68-.6-11.24-2.05-16.92-2.68-.42-.05-.65.7-1.08.68-5.65-.33-11.24-1.41-16.89-1.71-.74,0-1.37.73-2.11.71-13.83-.34-27.66-1-41.47-1.77-8.16-.46-16.28-1.52-24.44-1.92-.43,0-.66.71-1.09.69-10.53-.63-21.06-1.42-31.54-2.63-2.92-.33-6-.61-8.61-2-.69-.35,1.14-1,1.54-1.71a1.44,1.44,0,0,0,.12-1c-.21-1-.83-2-.95-3M129.26,31.9h0a5.15,5.15,0,0,0,1.52-.32,1.63,1.63,0,0,0,.86-1,2.18,2.18,0,0,0-.34-1.5c-.33-.59-1.28-.83-1.35-1.5-.16-1.7,1.05-3.4.72-5.08a16.59,16.59,0,0,0-2.86-5.92c-.3-.44-1-.44-1.51-.51s-1.25-.29-1.64.09c-1.14,1.13-1.58,2.82-2.57,4.08-.32.4-1,.4-1.28.84a31.26,31.26,0,0,0-2.87,6.42,4.05,4.05,0,0,0,0,3.08,1.47,1.47,0,0,0,2,.37c1.63-1.69,2.3-4.1,3.57-6.08a1.53,1.53,0,0,1,.76-.66c.48-.16,1.26-.53,1.52-.09,1.33,2.19,1.71,4.82,2.75,7.15m28.8-.38h0c-1.69,0-3.56.78-5.07,0-1.33-.67-3.47-2.73-2.41-3.77,2.07-2,5.67-1.13,8.39-2.06.34-.11.79-.8.47-1-2.51-1.16-5.45-1.24-7.92-2.49-.45-.23-.45-1.33,0-1.51,3.59-1.39,7.51-1.67,11.18-2.81.53-.17.75-1.16,1.3-1.06s.41.89.36,1.36c-.37,3.25-.5,6.6-1.62,9.67-.33.89-1.68.9-2.44,1.48m-57.31.14h0c.78-.78,1.91-1.32,2.35-2.33a5.2,5.2,0,0,0,0-3.05,3.31,3.31,0,0,0-.92-1.61A50.46,50.46,0,0,0,99,17.79c-1.3-1-3.83-1.18-4.1-2.81-.2-1.25,2.14-1.44,3.35-1.77a7.32,7.32,0,0,1,3.09,0c.38.07.57.57,1,.7s.88.3,1,0a2.9,2.9,0,0,0,.31-2.36c-.16-.45-.87-.44-1.34-.46-2.34-.09-4.8-.61-7,.14-1.49.49-2.5,2-3.33,3.32a1.84,1.84,0,0,0,0,2.05c1.8,1.85,4.33,2.82,6.32,4.45a19.58,19.58,0,0,1,3.37,3.5.93.93,0,0,1,0,1.06,2.07,2.07,0,0,1-1.34.45,4.57,4.57,0,0,1-2-.12c-1-.39-1.88-1.25-2.89-1.73a2,2,0,0,0-1.06-.1c-.46.06-1.08,0-1.34.44s-.47,1.32,0,1.68a14.59,14.59,0,0,0,5.32,2.71m13.52-1.34h0c-.28-.85-1.41-1.86-.84-2.57,1.19-1.48,3.56-1.45,5-2.64a5.22,5.22,0,0,0,1.7-2.76,7.08,7.08,0,0,0,0-4.08,3.86,3.86,0,0,0-2.32-2.32,7.67,7.67,0,0,0-5,0A5.6,5.6,0,0,0,107,16.55c-.76,2.59-.38,5.41,0,8.09a11.18,11.18,0,0,0,1.62,3.66,1.21,1.21,0,0,0,.72.63,3.06,3.06,0,0,0,2,0M91.6,27.27h0c-3.24-3.13-9.17-4.91-9.72-9.38C81.53,15,87.37,15.63,90,14.32a1.28,1.28,0,0,0,.61-.72,1.46,1.46,0,0,0,0-1,2.44,2.44,0,0,0-.86-1,.9.9,0,0,0-.78-.17c-2.61,1-5,2.51-7.64,3.53-.5.19-1.19.39-1.61.06-.89-.7-.91-2.26-1.9-2.81-.52-.29-1.16.45-1.55.91a2.61,2.61,0,0,0-.48,1.48,7.51,7.51,0,0,0,.11,2.06c.55,3.11,1.09,6.23,1.9,9.29a3.18,3.18,0,0,0,1,1.62,1,1,0,0,0,1,0c.38-.2.86-.54.86-1,0-1-.76-2-.82-3s-.49-3.84.48-3.29c3.63,2,5.49,6.43,9,8.62M62.64,27.62h0c.63-1.77,0-5.15,1.89-5.29,2.71-.22,4.33,3.32,6.72,4.61a3.64,3.64,0,0,0,2,.12c.46,0,1.21,0,1.3-.48s-.41-1.23-.88-1.65c-1.45-1.29-3.89-1.64-4.74-3.38-.49-1,1.36-1.85,1.68-2.92a8.22,8.22,0,0,0,.13-3,2.9,2.9,0,0,0-.49-1.49,4.52,4.52,0,0,0-2-1.86,9.54,9.54,0,0,0-4-.14c-.72.08-1.29.76-2,.79-.56,0-1.09-1-1.55-.68-.8.54-1,1.69-1.25,2.6-.63,1.91-1.59,3.82-1.56,5.84,0,1.41,1.26,2.54,1.73,3.88.19.53-.12,1.24.23,1.69a6.85,6.85,0,0,0,2.38,1.69M49.6,25.77h0c.83-.5,1.89-.75,2.49-1.5a8.76,8.76,0,0,0,1.58-3.63,10.39,10.39,0,0,0,0-4.12,10.87,10.87,0,0,0-1.62-3.67c-.87-1.35-1.7-2.91-3.11-3.67a4.45,4.45,0,0,0-3.66.05,11.89,11.89,0,0,0-3.61,2.92A9.1,9.1,0,0,0,40,14.52a1.41,1.41,0,0,0,0,1.12c1.15,2.69,2.14,5.52,3.84,7.91a7.45,7.45,0,0,0,3.47,2.39m64.07-5h0a5.5,5.5,0,0,1-.5-1.33,4.09,4.09,0,0,1,.13-2,2.49,2.49,0,0,1,1.33-1.32c.63-.25,1.57-.48,2,0a2.3,2.3,0,0,1,.32,2.37,6,6,0,0,1-2.33,2.32m-65,2h0a9.64,9.64,0,0,1-1.75-1.62,12.61,12.61,0,0,1-1.61-3.66,2.26,2.26,0,0,1,.38-1.45c.73-1.39,1.07-3.33,2.48-4,.86-.42,1.66,1,2.29,1.71a10.13,10.13,0,0,1,1.57,2.63,2.54,2.54,0,0,1,.13,1.06c0,1,.29,2.11-.14,3a6.22,6.22,0,0,1-2.32,2.32M64.84,18.6h0c-.29-.33-.71-.58-.88-1a1.27,1.27,0,0,1,0-1.06,2.77,2.77,0,0,1,1.32-1.32c.63-.25,1.57-.48,2,0a2.56,2.56,0,0,1,.32,2.37,2.11,2.11,0,0,1-1.32,1.32"/></g></g></svg>